<?xml version="1.0" encoding="UTF-8"?>
<svg version="1.1" xmlns="http://www.w3.org/2000/svg" width="499" height="576">
<path d="M0 0 C164.67 0 329.34 0 499 0 C499 190.08 499 380.16 499 576 C334.33 576 169.66 576 0 576 C0 385.92 0 195.84 0 0 Z " fill="#FEFEFE" transform="translate(0,0)"/>
<path d="M0 0 C164.67 0 329.34 0 499 0 C499 190.08 499 380.16 499 576 C334.33 576 169.66 576 0 576 C0 385.92 0 195.84 0 0 Z M152.671875 29.0546875 C146.19889275 36.58633507 140.32516655 44.55882077 140.6953125 54.90234375 C141.25694716 58.76898235 142.58865608 62.37082992 144 66 C143.195625 66.78375 142.39125 67.5675 141.5625 68.375 C138.04877563 71.97442497 137.86821495 73.74734035 137.671875 78.734375 C138.12367335 81.853935 139.5071321 84.24998018 141 87 C140.06542969 87.44988281 139.13085938 87.89976563 138.16796875 88.36328125 C108.80868056 102.67157658 75.37926348 119.41092559 63.69042969 151.95751953 C48.18308797 197.83249154 40.95857264 247.58745463 36.8125 295.6875 C36.74063477 296.52112061 36.66876953 297.35474121 36.59472656 298.21362305 C36.364726 301.14108142 36.17721743 304.06883635 36 307 C35.93644821 308.00880722 35.93644821 308.00880722 35.87161255 309.03799438 C34.71035467 328.11351107 34.80217088 347.21004185 34.8125 366.3125 C34.81244387 368.04116821 34.81238281 369.76983643 34.81231689 371.49850464 C34.81909552 395.38254092 35.06913122 419.19972425 36.73095703 443.03564453 C36.99013841 446.85468918 37.20281264 450.67352445 37.40234375 454.49609375 C38.53320129 496.35301372 38.53320129 496.35301372 55.59765625 532.609375 C58.02047281 534.4959415 60.44364308 536.29576206 63 538 C63.80859375 540.06640625 63.80859375 540.06640625 64.4375 542.5625 C65.62471182 546.88645041 67.1391961 550.83611052 69.03515625 554.89453125 C70.10676825 557.23298821 71.05147236 559.60933578 72 562 C90.8129663 562.67100681 106.26682702 562.4124098 123 553 C123 555.64 123 558.28 123 561 C127.80754624 563.33880628 132.69477535 563.76751951 137.9375 564.375 C138.95730957 564.4972998 139.97711914 564.61959961 141.02783203 564.74560547 C144.6838218 565.17656798 148.34148591 565.59116922 152 566 C152.73385925 566.0822583 153.46771851 566.1645166 154.22381592 566.24926758 C159.11378265 566.79588443 164.00481167 567.33188136 168.89700317 567.85821533 C170.5210565 568.03306323 172.14498378 568.20908676 173.76876831 568.38641357 C196.28731697 570.83422799 218.67904053 571.2440738 241.3125 571.25 C242.08596771 571.25044186 242.85943542 571.25088371 243.65634155 571.25133896 C306.25934122 572.85328973 306.25934122 572.85328973 367 561 C367 558.36 367 555.72 367 553 C367.72703125 553.39832031 368.4540625 553.79664063 369.203125 554.20703125 C370.20859375 554.73683594 371.2140625 555.26664063 372.25 555.8125 C373.71179688 556.59560547 373.71179688 556.59560547 375.203125 557.39453125 C384.92778065 561.8509818 394.70425042 562.41078134 405.25 562.1875 C407.10044922 562.16719727 407.10044922 562.16719727 408.98828125 562.14648438 C411.99266604 562.11154967 414.99608409 562.06250145 418 562 C420.01443276 557.64859711 421.95821911 553.32083082 423.45703125 548.76171875 C423.68326172 548.08689453 423.90949219 547.41207031 424.14257812 546.71679688 C424.5938876 545.34971075 425.02850373 543.97701389 425.44726562 542.59960938 C427.37799149 536.99131043 429.75748189 535.63590296 435 533 C453.31947777 514.56258568 451.3268373 475.15047694 453 451 C453.05091797 450.27222351 453.10183594 449.54444702 453.15429688 448.7946167 C459.0965496 363.51219657 456.82260898 277.89623182 413.93359375 129.08984375 C413.29550781 128.40019531 412.65742188 127.71054688 412 127 C411.29423828 126.22740845 411.29423828 126.22740845 410.57421875 125.43920898 C405.91783673 120.53872048 400.77768654 116.86177222 395.125 113.1875 C394.20243408 112.58147949 393.27986816 111.97545898 392.3293457 111.35107422 C371.89605094 96.22505148 371.89605094 96.22505148 349 88 C349.7425 86.824375 349.7425 86.824375 350.5 85.625 C352.4238768 80.97563106 352.92556139 76.96880325 352 72 C350.85864853 70.20589076 350.85864853 70.20589076 349.375 68.75 C348.199375 67.38875 348.199375 67.38875 347 66 C347.6875 63.375 347.6875 63.375 349 60 C350.47966019 49.30826187 347.13514301 41.9109713 341.08984375 33.26953125 C327.20407208 16.11346569 297.52586551 10.56004072 276.47119141 8.15371704 C265.6327525 7.01631244 254.89522734 6.59954747 244 6.625 C243.11324585 6.62554382 242.2264917 6.62608765 241.31286621 6.62664795 C214.18882944 6.70261713 173.37618293 8.62521552 152.671875 29.0546875 Z " fill="#FEFEFE" transform="translate(0,0)"/>
<path d="M0 0 C0.90029938 0.00215515 1.80059875 0.0043103 2.72817993 0.00653076 C31.16444968 0.11550009 72.24593969 1.71814087 94.421875 22.4609375 C101.50561729 29.79932412 106.33090916 37.21627831 106.5625 47.625 C106.43508566 51.15164688 106.10468681 53.36473392 104.8125 56.6875 C104.4721875 57.986875 104.4721875 57.986875 104.125 59.3125 C105.36526327 60.74859431 106.61334341 62.18017895 107.9296875 63.546875 C110.32028842 67.07808944 109.75541871 71.25417952 109.125 75.3125 C107.625 78.9375 107.625 78.9375 106.125 81.3125 C107.38828125 81.68761719 108.6515625 82.06273438 109.953125 82.44921875 C115.64657271 84.35481259 120.68448905 87.13864204 125.875 90.125 C126.86781982 90.69250977 127.86063965 91.26001953 128.88354492 91.84472656 C156.507192 107.83978344 178.63763803 123.93604048 187.44372559 155.93971252 C188.03931832 158.18551315 188.61512912 160.43567719 189.1875 162.6875 C189.61141502 164.31012095 190.03557394 165.93267821 190.45996094 167.55517578 C211.84330522 250.23073042 215.93425544 335.48612113 197.0625 519.0625 C192.42609694 526.83969223 192.42609694 526.83969223 188.22265625 528.3671875 C183.71555618 531.19762361 182.99525448 534.69892676 181.4375 539.625 C180.87423258 541.30964648 180.30788896 542.99326795 179.73828125 544.67578125 C179.47225098 545.47064941 179.2062207 546.26551758 178.93212891 547.08447266 C177.89263963 549.95391582 176.5737784 552.62941494 175.125 555.3125 C170.87513521 555.40092548 166.62551254 555.45336428 162.375 555.5 C160.59416016 555.53770508 160.59416016 555.53770508 158.77734375 555.57617188 C148.2261463 555.6626571 138.73121077 554.13725577 129.375 549.125 C128.36953125 548.59519531 127.3640625 548.06539062 126.328125 547.51953125 C125.60109375 547.12121094 124.8740625 546.72289062 124.125 546.3125 C124.125 548.9525 124.125 551.5925 124.125 554.3125 C87.4239152 567.67853117 40.05145919 564.57805918 1.48080444 564.62212753 C-0.76833867 564.62494469 -3.0174641 564.63046323 -5.26660156 564.63613892 C-30.95688879 564.68308813 -56.46407951 563.4777727 -82.01245117 560.61743164 C-84.23852787 560.36931242 -86.46576255 560.13443141 -88.69335938 559.90039062 C-96.31113154 559.07939926 -103.86826177 558.0580738 -111.41796875 556.74609375 C-112.15219559 556.61944839 -112.88642242 556.49280304 -113.64289856 556.36231995 C-118.74834377 555.43915623 -118.74834377 555.43915623 -119.875 554.3125 C-120.01615161 551.64191149 -119.91747107 548.98817762 -119.875 546.3125 C-120.43445313 546.62703125 -120.99390625 546.9415625 -121.5703125 547.265625 C-137.8863071 555.97448385 -152.74471956 555.82254901 -170.875 555.3125 C-173.35777383 549.16691524 -175.74011014 543.00892331 -177.9453125 536.7578125 C-179.78255403 531.82938089 -179.78255403 531.82938089 -183.6875 528.4375 C-193.23609968 522.07176688 -196.77826702 510.90623546 -199.0390625 500.1328125 C-200.16305452 494.21841138 -201.05229732 488.27545649 -201.875 482.3125 C-202.01534668 481.29752441 -202.15569336 480.28254883 -202.30029297 479.23681641 C-204.70011881 461.33564199 -205.99253819 443.3470032 -206.875 425.3125 C-206.91843536 424.45302765 -206.96187073 423.5935553 -207.00662231 422.70803833 C-207.92984498 403.89505664 -208.06271136 385.09670262 -208.06030273 366.26586914 C-208.06022171 362.93443344 -208.06714852 359.60313595 -208.08081055 356.27172852 C-208.31314556 298.65240052 -203.0018197 241.48022282 -189.875 185.3125 C-189.71259827 184.61388855 -189.55019653 183.9152771 -189.38287354 183.19549561 C-180.26704655 144.0618949 -169.52282154 119.76798266 -134.46044922 97.890625 C-123.9193126 91.45645058 -112.99560723 85.6765576 -101.875 80.3125 C-102.36097656 79.405 -102.84695312 78.4975 -103.34765625 77.5625 C-105.23231818 73.55217078 -105.6787529 70.65103718 -104.875 66.3125 C-103.12864203 63.16905565 -101.40637274 60.84387274 -98.875 58.3125 C-99.37 57.1575 -99.865 56.0025 -100.375 54.8125 C-102.66015081 48.59120425 -102.6892809 43.73839209 -100.125 37.6875 C-98.31558148 33.99931243 -96.3340643 30.61467205 -93.875 27.3125 C-93.44058594 26.68601562 -93.00617188 26.05953125 -92.55859375 25.4140625 C-80.4590279 9.58455529 -53.37282859 5.29182832 -34.875 2.3125 C-33.8015332 2.13372314 -32.72806641 1.95494629 -31.62207031 1.77075195 C-21.05891445 0.17059777 -10.66521725 -0.04594693 0 0 Z M-168.875 128.3125 C-170.19668184 131.2218625 -170.19668184 131.2218625 -168.96972656 133.68725586 C-168.48987305 134.62448486 -168.01001953 135.56171387 -167.515625 136.52734375 C-166.98211426 137.59178711 -166.44860352 138.65623047 -165.89892578 139.75292969 C-165.31353027 140.90696289 -164.72813477 142.06099609 -164.125 143.25 C-150.83249264 170.03838345 -140.7716639 197.97568148 -134.875 227.3125 C-134.545 227.3125 -134.215 227.3125 -133.875 227.3125 C-133.38 223.3525 -133.38 223.3525 -132.875 219.3125 C-132.65209232 246.43228177 -133.24378954 273.50094386 -134.08637238 300.60665894 C-134.18885265 303.91871628 -134.28924603 307.23083122 -134.38909912 310.54296875 C-135.4618181 346.0347337 -136.80333354 381.50631776 -138.5637207 416.97070312 C-138.7680562 421.08878333 -138.96244139 425.20708097 -139.14526367 429.32617188 C-139.5406503 438.18283232 -140.00745989 446.99267723 -140.9375 455.8125 C-142.56069503 472.64497304 -142.79719669 486.39676661 -133.875 501.3125 C-132.42501815 503.14105744 -132.42501815 503.14105744 -130.875 504.3125 C-130.215 504.3125 -129.555 504.3125 -128.875 504.3125 C-128.689375 504.89 -128.50375 505.4675 -128.3125 506.0625 C-125.91043609 509.8222522 -122.00472908 511.73366962 -117.77661133 512.8828125 C-115.5433674 513.3006825 -113.31453565 513.637485 -111.0625 513.9375 C-109.55572522 514.15704741 -108.04921457 514.37841497 -106.54296875 514.6015625 C-105.77509033 514.71274414 -105.00721191 514.82392578 -104.21606445 514.93847656 C-101.87167786 515.31303077 -99.56435496 515.7805144 -97.2421875 516.2734375 C-91.144389 517.51995205 -84.99635307 518.29826507 -78.82202148 519.0625 C-76.86682314 519.30574178 -74.91287648 519.55897928 -72.95898438 519.8125 C-68.60324858 520.36689893 -64.24169675 520.85295954 -59.875 521.3125 C-59.01318115 521.40397308 -58.1513623 521.49544617 -57.26342773 521.58969116 C-39.41752292 523.41426639 -21.64104094 523.65667371 -3.72265625 523.62817383 C-0.59197526 523.62356691 2.53831486 523.630394 5.66894531 523.64868164 C34.58013337 523.81565113 63.20659302 522.19600527 91.8125 517.8125 C93.20365021 517.60981153 94.59492825 517.40799865 95.98632812 517.20703125 C102.94223592 516.18921132 109.87940732 515.05496032 116.80078125 513.82421875 C118.07477783 513.59951904 119.34877441 513.37481934 120.66137695 513.14331055 C125.35418341 512.01765887 129.1940305 510.07509801 133.125 507.3125 C133.125 506.6525 133.125 505.9925 133.125 505.3125 C134.011875 504.6525 134.89875 503.9925 135.8125 503.3125 C142.12671061 498.25217518 144.65985866 490.01866449 146.125 482.3125 C146.37752144 479.41074793 146.37738969 476.53986686 146.33203125 473.62890625 C146.32173637 472.39546227 146.32173637 472.39546227 146.31123352 471.13710022 C146.19261326 462.46123401 145.61846393 453.82034272 145.01409912 445.16723633 C143.48451257 423.03338269 142.47991124 400.88532096 141.5959816 378.71828079 C141.50176865 376.35683126 141.40675685 373.99541495 141.31161499 371.63400269 C140.77200006 358.19791072 140.24597144 344.76158785 139.85253906 331.3203125 C139.8309479 330.58502823 139.80935673 329.84974396 139.78711128 329.09217834 C139.68634021 325.63080223 139.5895623 322.16941104 139.49838257 318.70776367 C139.31744963 312.21032605 139.04446044 305.73087502 138.62866211 299.24438477 C137.97575459 288.86728843 137.79323521 278.4837446 137.58984375 268.08984375 C137.5467139 266.00663173 137.50329739 263.92342562 137.45960999 261.84022522 C137.34663303 256.41699661 137.23749125 250.99369769 137.12921143 245.57037354 C137.0175424 240.01236172 136.90215886 234.45442706 136.78710938 228.89648438 C136.56281808 218.03522769 136.34258771 207.17389291 136.125 196.3125 C136.785 196.3125 137.445 196.3125 138.125 196.3125 C138.125 207.2025 138.125 218.0925 138.125 229.3125 C138.455 229.3125 138.785 229.3125 139.125 229.3125 C139.41890625 227.70761719 139.41890625 227.70761719 139.71875 226.0703125 C145.54552428 195.6890572 156.48416143 165.33569504 171.31787109 138.14697266 C173.52469127 134.39168245 173.52469127 134.39168245 173.81347656 130.20336914 C172.36563977 126.22695213 168.96810571 123.35704033 166.125 120.3125 C165.63257813 119.74402344 165.14015625 119.17554688 164.6328125 118.58984375 C150.15641808 102.72581567 119.28104033 83.80450554 97.9375 80.875 C94.97914728 81.03290382 94.97914728 81.03290382 93.234375 83.40234375 C91.33124505 86.02795822 89.53005071 88.6962961 87.77783203 91.42456055 C82.49847551 99.62569836 76.70448633 107.11766602 70.125 114.3125 C69.65336426 114.82941406 69.18172852 115.34632812 68.69580078 115.87890625 C52.09226087 133.82624773 30.06888978 147.90625892 5.14477539 148.88232422 C-7.20443491 149.0907108 -17.63294244 147.42715678 -28.875 142.3125 C-29.90625 141.84457031 -30.9375 141.37664062 -32 140.89453125 C-55.63749353 128.90790456 -74.48388481 107.10557249 -87.52734375 84.44140625 C-88.69873258 82.18541141 -88.69873258 82.18541141 -90.875 81.3125 C-114.92940187 78.17496932 -155.26039761 110.77182623 -168.875 128.3125 Z " fill="#2C2C2D" transform="translate(242.875,6.6875)"/>
<path d="M0 0 C2.94650486 2.43406923 3.33883349 4.316358 4 8 C4.66 8.66 5.32 9.32 6 10 C7.24937227 13.01574097 8.08653494 16.18111108 9 19.3125 C9.29688721 20.32997314 9.59377441 21.34744629 9.8996582 22.39575195 C13.08781186 33.7259347 15.64054997 45.19952602 18.1875 56.6875 C18.39737549 57.63178864 18.60725098 58.57607727 18.82348633 59.54898071 C23.15064362 79.09380179 27.08235082 98.62851076 29.5625 118.5 C29.66639038 119.31829285 29.77028076 120.13658569 29.87731934 120.97967529 C31.4589959 133.50464051 32.7369821 146.04159113 33.75 158.625 C33.80898468 159.35307861 33.86796936 160.08115723 33.92874146 160.83129883 C34.33145533 165.88479416 34.68440694 170.94033497 35 176 C35.0725853 177.16204453 35.0725853 177.16204453 35.14663696 178.3475647 C36.07952325 193.87344388 36.20109744 209.38706339 36.1875 224.9375 C36.18689575 226.22213135 36.1862915 227.5067627 36.18566895 228.83032227 C36.00962981 367.86688739 36.00962981 367.86688739 18.44140625 386.66796875 C17.72791016 387.32732422 17.72791016 387.32732422 17 388 C16.70834961 388.64155029 16.41669922 389.28310059 16.11621094 389.9440918 C14.1467403 393.57158792 10.77349489 394.8432896 7 396 C2.59000943 396.51405242 -1.75332019 396.4684547 -6.1875 396.375 C-7.33025391 396.37371094 -8.47300781 396.37242187 -9.65039062 396.37109375 C-22.34700293 396.24190267 -36.14894449 395.23403701 -47 388 C-47 387.01 -47 386.02 -47 385 C-45.68 384.67 -44.36 384.34 -43 384 C-43.99 384 -44.98 384 -46 384 C-46.2890625 381.2578125 -46.2890625 381.2578125 -46 378 C-44.0234375 375.8671875 -44.0234375 375.8671875 -41.375 373.875 C-33.61705174 367.358763 -29.82287267 358.84185093 -28 349 C-27.39122841 340.78158358 -27.90689571 332.52602387 -28.63134766 324.3302002 C-30.45173601 303.52686375 -31.06570218 282.64730578 -31.87257385 261.78611755 C-32.00126918 258.46726993 -32.13143112 255.14848298 -32.26208496 251.82971191 C-32.7358096 239.79601744 -33.20312108 227.76209323 -33.6640358 215.72790146 C-33.89718642 209.64849539 -34.13451056 203.56927669 -34.37695312 197.49023438 C-35.02032321 181.32932258 -35.60607823 165.16911443 -36 149 C-36.02640564 147.93038025 -36.05281128 146.8607605 -36.08001709 145.75872803 C-37.20302986 98.34077087 -37.20302986 98.34077087 -31 77 C-30.4982104 75.12903693 -29.99691612 73.25794096 -29.49609375 71.38671875 C-13.35137118 13.35137118 -13.35137118 13.35137118 0 0 Z " fill="#FCFCFC" transform="translate(418,140)"/>
<path d="M0 0 C0.66 0 1.32 0 2 0 C9.28366434 14.77897825 16.23216779 29.55975391 22 45 C22.27537598 45.7312207 22.55075195 46.46244141 22.83447266 47.21582031 C31.22884786 69.67165946 41.61544122 97.83680118 38 122 C36.46875 123.9453125 36.46875 123.9453125 35 125 C35.66 125 36.32 125 37 125 C37.19886951 150.16114476 36.70706797 175.25488926 35.7888298 200.39870071 C35.68576046 203.23537555 35.58502262 206.07212497 35.4848938 208.90890503 C34.09980476 248.05571177 32.47641314 287.21029548 29.55834961 326.27758789 C28.31550743 343.24432765 28.68215825 358.2962386 40.125 372.0625 C41.79894894 373.88583021 43.27207607 375.19118859 45.3125 376.625 C47.60780079 378.49524509 47.68996002 380.13213016 48 383 C46.68 383.33 45.36 383.66 44 384 C44 384.66 44 385.32 44 386 C45.32 385.67 46.64 385.34 48 385 C47.8359375 386.8359375 47.8359375 386.8359375 47 389 C44.6640625 390.4140625 44.6640625 390.4140625 41.625 391.625 C40.64789063 392.02976562 39.67078125 392.43453125 38.6640625 392.8515625 C28.91565736 395.90703277 19.41787424 396.3385181 9.25 396.3125 C7.97511719 396.32861328 6.70023438 396.34472656 5.38671875 396.36132812 C-2.30844305 396.3653402 -8.08213191 396.24623356 -14.1875 391.1875 C-18.18715919 386.36032512 -20.79683577 381.64622911 -22.5 375.625 C-22.81300049 374.52043457 -22.81300049 374.52043457 -23.13232422 373.39355469 C-28.91899983 352.0009245 -30.30114057 329.86068951 -31.79815674 307.84329224 C-32.02051475 304.71101616 -32.26918721 301.58128236 -32.51708984 298.45092773 C-34.24074221 275.70033563 -34.39948694 252.99398711 -34.375 230.1875 C-34.37476082 229.19824524 -34.37452164 228.20899048 -34.37427521 227.1897583 C-34.36474049 195.96695681 -33.81038389 165.02934734 -30 134 C-29.89109436 133.09527954 -29.78218872 132.19055908 -29.66998291 131.25842285 C-25.11911949 93.64446454 -18.39323607 56.03780491 -7.8125 19.625 C-7.5745874 18.79162109 -7.3366748 17.95824219 -7.09155273 17.09960938 C-6.86153564 16.33712891 -6.63151855 15.57464844 -6.39453125 14.7890625 C-6.19706299 14.12600098 -5.99959473 13.46293945 -5.79614258 12.77978516 C-5 11 -5 11 -3.4519043 9.45458984 C-1.28073936 7.27940896 -1.37947649 4.97256583 -1 2 C-0.67 1.34 -0.34 0.68 0 0 Z " fill="#FCFCFC" transform="translate(71,140)"/>
<path d="M0 0 C14.85949774 0 28.31636537 0.39145438 42.75 3.25 C43.88034668 3.47179932 45.01069336 3.69359863 46.17529297 3.92211914 C55.3021006 5.76321879 64.18823752 7.99584131 73 11 C73.70366699 11.2386377 74.40733398 11.47727539 75.13232422 11.72314453 C95.11038275 18.60362913 95.11038275 18.60362913 98.1953125 24.1484375 C98.59363281 25.06496094 98.59363281 25.06496094 99 26 C98.01 26 97.02 26 96 26 C96.639375 26.268125 97.27875 26.53625 97.9375 26.8125 C100 28 100 28 101 31 C101.60016593 36.95549272 101.3100085 41.93154949 98 47 C94.375 48.125 94.375 48.125 92.2421875 48.50390625 C83.79697309 50.37244672 78.02466632 56.3004449 73 63 C70.67610671 66.78195253 70.67610671 66.78195253 70 71 C70.3403125 70.3709375 70.680625 69.741875 71.03125 69.09375 C76.35043291 59.70029933 82.34068289 52.18986999 93 49 C97.11821989 48.28723117 98.36739109 48.58742897 101.875 50.875 C104.86998039 55.27938293 104.73763323 58.82808882 104 64 C103.0625 67.125 103.0625 67.125 101 69 C98.68500473 69.17099397 96.55846584 69.06201535 94.25390625 68.78515625 C91.87821705 68.80780805 91.87821705 68.80780805 90.0078125 70.5546875 C87.52851499 73.57422105 85.41362334 76.77659496 83.3125 80.0625 C78.94076633 86.7462082 74.24283005 92.96443963 69 99 C68.20851563 99.92554687 67.41703125 100.85109375 66.6015625 101.8046875 C52.09096929 118.32936935 32.24134027 132.68039697 10 136 C6.7 136 3.4 136 0 136 C0 91.12 0 46.24 0 0 Z " fill="#FCFCFC" transform="translate(246,18)"/>
<path d="M0 0 C0 44.88 0 89.76 0 136 C-24.41813788 136 -42.65084529 124.41136256 -60 108 C-60.80050781 107.26394531 -61.60101563 106.52789062 -62.42578125 105.76953125 C-70.81590545 97.7808484 -78.34714145 88.37109869 -84.1875 78.33984375 C-87.25229299 72.49940604 -87.25229299 72.49940604 -92.5703125 69.25390625 C-94.30812211 69.17030899 -96.04949241 69.13852987 -97.7890625 69.16796875 C-100 69 -100 69 -102.625 66.4375 C-104.51990466 61.70023834 -105.21503613 57.93684611 -103.22265625 53.12109375 C-102.125 51.4375 -102.125 51.4375 -99 49 C-93.52173587 48.13149471 -88.94496768 49.68799441 -84.3125 52.5625 C-78.48115768 56.8560193 -73.18611006 62.44036165 -70 69 C-70 69.99 -70 70.98 -70 72 C-69.34 72 -68.68 72 -68 72 C-72.69995753 61.43051026 -78.12663124 53.65742628 -89 49 C-90.62040375 48.52567295 -92.24542313 48.06678464 -93.875 47.625 C-97.5259919 46.49083498 -97.8656542 46.21169641 -100.0625 42.75 C-101.78062998 35.87748007 -100.93334119 31.02063568 -98.75390625 24.4296875 C-87.70216882 9.11970826 -54.30778252 4.93223397 -37.2578125 1.96484375 C-35.42314728 1.67667561 -33.58722986 1.39633703 -31.75 1.125 C-30.97350098 1.00471436 -30.19700195 0.88442871 -29.39697266 0.76049805 C-19.55252386 -0.5255962 -10.07580561 0 0 0 Z " fill="#FCFCFC" transform="translate(244,18)"/>
<path d="M0 0 C0.7307373 0.13051758 1.46147461 0.26103516 2.21435547 0.39550781 C17.14222637 3.03568569 32.07073749 5.39750205 47.125 7.1875 C48.39327637 7.34186523 49.66155273 7.49623047 50.96826172 7.65527344 C74.4820472 10.35949075 97.92501843 11.33534647 121.57202148 11.26074219 C125.20606619 11.24935944 128.83981744 11.25613748 132.47385216 11.26761627 C146.95232283 11.30640907 161.36717897 11.08903931 175.81640625 10.109375 C177.53077126 9.99314789 177.53077126 9.99314789 179.2797699 9.87457275 C185.92126927 9.37100369 192.45476956 8.54931276 199.02693176 7.46792603 C203.02871289 6.83809267 207.04373676 6.40161317 211.06982422 5.96020508 C221.68468132 4.79557356 232.02338081 3.15950758 242.4296875 0.76953125 C246 0 246 0 249 0 C248.4521804 5.0541022 247.9007352 10.10779077 247.34594727 15.16113281 C247.1577784 16.87977423 246.97059541 18.59852389 246.78442383 20.31738281 C246.51643721 22.79000599 246.24489117 25.26221641 245.97265625 27.734375 C245.8491555 28.88459137 245.8491555 28.88459137 245.72315979 30.05804443 C245.34650112 33.44975041 244.87758988 36.70391614 244 40 C230.43693203 42.26859903 216.87247112 44.25140539 203.1875 45.625 C201.56013916 45.79092651 201.56013916 45.79092651 199.89990234 45.96020508 C196.75740802 46.2624284 193.61394261 46.53987342 190.46749878 46.79760742 C188.67092179 46.94496873 186.87467687 47.09639547 185.0786438 47.25024414 C165.92469453 48.86223082 146.90867159 49.31787849 127.69848633 49.26074219 C123.839216 49.24935881 119.98022208 49.25613011 116.12096119 49.26762581 C78.43295538 49.362588 41.16920315 46.41879775 4 40 C3.42275823 35.75090183 2.85342654 31.5008363 2.29101562 27.24975586 C2.09911159 25.80741675 1.9051475 24.36535002 1.70898438 22.92358398 C0.66746883 15.25834838 -0.27733564 7.75673109 0 0 Z " fill="#EDF0F7" transform="translate(121,520)"/>
<path d="M0 0 C-0.70125 0.31453125 -1.4025 0.6290625 -2.125 0.953125 C-4.10089186 1.84442404 -6.07338333 2.74328785 -8.04296875 3.6484375 C-9.78623745 4.44522874 -11.53640315 5.22767536 -13.30078125 5.9765625 C-18.51559474 8.30550833 -21.61254528 11.43206864 -25 16 C-24.071875 15.484375 -23.14375 14.96875 -22.1875 14.4375 C-19 13 -19 13 -16 14 C-16.89203125 14.38929687 -17.7840625 14.77859375 -18.703125 15.1796875 C-26.81079024 18.8927816 -26.81079024 18.8927816 -31.8125 26 C-33.42422118 31.60709316 -33.45258979 36.06032947 -32.125 41.75 C-29.38382737 45.94238166 -27.37814908 46.07556274 -22.69140625 47.21484375 C-12.89489693 50.0727514 -7.50315337 57.80177242 -2.0625 65.875 C-1 68 -1 68 -1 71 C-1.66 71 -2.32 71 -3 71 C-3.32871094 70.29875 -3.65742188 69.5975 -3.99609375 68.875 C-8.18493349 60.52002426 -13.31438006 53.6646155 -22.1875 50 C-27.06304636 48.69357214 -27.06304636 48.69357214 -32 49 C-34.49231528 51.09879182 -35.76413219 52.68550077 -36.34765625 55.9375 C-36.48952488 59.19431018 -36.05715752 61.80811403 -35.125 64.9375 C-32.50905227 67.47650809 -31.82913063 67.14120567 -28.3125 67.125 C-24.84190287 67.3208803 -23.45423086 67.56281345 -20.91796875 70.00390625 C-18.82223755 72.93622261 -16.90372091 75.939542 -15 79 C-13.43097631 81.33773097 -11.81648793 83.64124257 -10.1875 85.9375 C-9.77129395 86.52635986 -9.35508789 87.11521973 -8.92626953 87.72192383 C-4.44234541 93.95585948 0.68018243 99.47836841 6 105 C6.65355469 105.71671875 7.30710938 106.4334375 7.98046875 107.171875 C19.85776935 119.83424238 35.63439767 128.59501482 52.2578125 133.17578125 C54.69578538 133.90856227 56.77413129 134.78056475 59 136 C53.09170003 136.26915589 48.72267281 135.62303749 43.25 133.4375 C42.55825684 133.1679248 41.86651367 132.89834961 41.15380859 132.62060547 C30.5958716 128.37159042 21.60502843 122.40143121 13 115 C12.17757812 114.30003906 11.35515625 113.60007812 10.5078125 112.87890625 C-2.74385029 101.29918222 -14.28449703 87.32726384 -23 72 C-23 71.34 -23 70.68 -23 70 C-31.16515521 69.3195704 -36.7050416 71.44475591 -44 75 C-44.60811523 75.29519531 -45.21623047 75.59039062 -45.84277344 75.89453125 C-65.83094419 85.72179578 -88.3913559 97.87939903 -102 116 C-103.32168184 118.9093625 -103.32168184 118.9093625 -102.09472656 121.37475586 C-101.61487305 122.31198486 -101.13501953 123.24921387 -100.640625 124.21484375 C-100.10711426 125.27928711 -99.57360352 126.34373047 -99.02392578 127.44042969 C-98.43853027 128.59446289 -97.85313477 129.74849609 -97.25 130.9375 C-84.91119575 155.80388606 -75.1220732 181.88796154 -69 209 C-67.74161443 206.48322887 -67.79181027 204.58706712 -67.68359375 201.7734375 C-67.64169922 200.7421875 -67.59980469 199.7109375 -67.55664062 198.6484375 C-67.51732422 197.56820312 -67.47800781 196.48796875 -67.4375 195.375 C-67.39431641 194.28703125 -67.35113281 193.1990625 -67.30664062 192.078125 C-67.2003547 189.3855483 -67.09831943 186.69287747 -67 184 C-66.67 184 -66.34 184 -66 184 C-65.08158945 257.56232996 -68.0425798 331.19611038 -71.6887207 404.65820312 C-71.8930562 408.77628333 -72.08744139 412.89458097 -72.27026367 417.01367188 C-72.6656503 425.87033232 -73.13245989 434.68017723 -74.0625 443.5 C-75.68480396 460.32323265 -75.93693769 474.10510385 -67 489 C-64.54242578 491.9614968 -64.54242578 491.9614968 -62 494 C-60.66666667 495.33333333 -59.33333333 496.66666667 -58 498 C-62.01323076 498 -63.25350785 496.57428684 -66.16015625 493.96875 C-76.15863058 483.26974562 -78.37666064 470.09170827 -78 456 C-77.5994409 448.2566344 -76.99459822 440.52322778 -76.43261719 432.7902832 C-73.97594439 398.73386911 -72.74315746 364.59452351 -71.56738281 330.47387695 C-71.4394389 326.76669582 -71.30746796 323.05969238 -71.171875 319.3527832 C-70.43408286 299.16673888 -69.80932415 279.01284245 -70.01766968 258.8110199 C-70.03333481 256.92565269 -70.03333481 256.92565269 -70.04931641 255.00219727 C-70.06330475 253.90867447 -70.07729309 252.81515167 -70.09170532 251.68849182 C-70 249 -70 249 -69 246 C-69.66 246 -70.32 246 -71 246 C-70.67 244.68 -70.34 243.36 -70 242 C-69.67 242.33 -69.34 242.66 -69 243 C-66.64222969 212.82927247 -78.39687478 181.40547672 -90 154 C-90.37979004 153.09378906 -90.75958008 152.18757812 -91.15087891 151.25390625 C-92.32335679 148.45818388 -93.50323109 145.6657468 -94.6875 142.875 C-95.04376465 142.03437012 -95.4000293 141.19374023 -95.76708984 140.32763672 C-98.00414522 135.12092907 -100.43867891 130.06157615 -103.05786133 125.03564453 C-104 123 -104 123 -104 121 C-104.66 121 -105.32 121 -106 121 C-106.33 123.97 -106.66 126.94 -107 130 C-107.99 130 -108.98 130 -110 130 C-110.23783203 131.11181641 -110.23783203 131.11181641 -110.48046875 132.24609375 C-111.70610735 137.77839615 -113.0235514 143.20555741 -114.69458008 148.62109375 C-126.24684005 186.08492222 -132.0904002 225.99753065 -135.80337715 264.93795776 C-135.9331612 266.29904164 -136.06367372 267.66005627 -136.19495964 269.02099609 C-138.65661447 294.63860564 -139.53247206 320.07770497 -139.44642639 345.80791473 C-139.43734441 348.73769078 -139.43341254 351.66744099 -139.43029785 354.597229 C-139.39236532 379.23449695 -138.97272928 403.79320947 -137.25 428.375 C-137.13251907 430.07829971 -137.13251907 430.07829971 -137.01266479 431.81600952 C-136.12214137 444.24706663 -134.75136841 456.58002248 -133.01953125 468.921875 C-132.85910339 470.06755951 -132.69867554 471.21324402 -132.53338623 472.39364624 C-130.14650185 492.1160958 -130.14650185 492.1160958 -121 509 C-120.67 509.99 -120.34 510.98 -120 512 C-113.48058685 516.93894936 -105.37116649 517.31733225 -97.5 517.625 C-96.67757812 517.66367187 -95.85515625 517.70234375 -95.0078125 517.7421875 C-93.0055299 517.83531692 -91.00279738 517.91868985 -89 518 C-89 518.33 -89 518.66 -89 519 C-96.26 519 -103.52 519 -111 519 C-108.69971122 525.49315932 -108.69971122 525.49315932 -106.39257812 531.98388672 C-105.9662207 533.19455811 -105.9662207 533.19455811 -105.53125 534.4296875 C-105.09135742 535.67081299 -105.09135742 535.67081299 -104.64257812 536.93701172 C-104 539 -104 539 -104 541 C-86.5266729 540.89799225 -71.73810402 540.15519936 -56 532 C-56.0407666 531.40461426 -56.0815332 530.80922852 -56.12353516 530.19580078 C-56.3015863 527.50612557 -56.46348359 524.81571656 -56.625 522.125 C-56.72167969 520.71927734 -56.72167969 520.71927734 -56.8203125 519.28515625 C-56.871875 518.38925781 -56.9234375 517.49335937 -56.9765625 516.5703125 C-57.05511475 515.32918701 -57.05511475 515.32918701 -57.13525391 514.06298828 C-57 512 -57 512 -55 510 C-54.48967332 513.47773158 -53.99366732 516.95736775 -53.5 520.4375 C-53.35691406 521.41138672 -53.21382813 522.38527344 -53.06640625 523.38867188 C-52.23231939 529.32657597 -51.85119126 535.00424766 -52 541 C-50.81148438 541.10957031 -49.62296875 541.21914063 -48.3984375 541.33203125 C-38.47520266 542.27266066 -28.60170574 543.37397163 -18.74365234 544.85864258 C-1.30938274 547.38423162 16.28929375 548.34962026 33.875 549.0625 C35.82642672 549.14541909 37.77784261 549.22859329 39.72924805 549.31201172 C56.14870381 550.00418226 72.57202589 550.55624447 89 551 C89 551.33 89 551.66 89 552 C25.05446598 552.43029099 25.05446598 552.43029099 1 550 C-0.50777288 549.85327071 -2.01558801 549.70697513 -3.5234375 549.56103516 C-8.45509944 549.0801971 -13.38424435 548.57701026 -18.3125 548.0625 C-19.07696442 547.98318237 -19.84142883 547.90386475 -20.62905884 547.82214355 C-28.97987084 546.94302737 -37.26850117 545.87152193 -45.54296875 544.43359375 C-46.27719559 544.30694839 -47.01142242 544.18030304 -47.76789856 544.04981995 C-52.87334377 543.12665623 -52.87334377 543.12665623 -54 542 C-54.14115161 539.32941149 -54.04247107 536.67567762 -54 534 C-54.55945313 534.31453125 -55.11890625 534.6290625 -55.6953125 534.953125 C-72.0113071 543.66198385 -86.86971956 543.51004901 -105 543 C-107.48277383 536.85441524 -109.86511014 530.69642331 -112.0703125 524.4453125 C-113.90755403 519.51688089 -113.90755403 519.51688089 -117.8125 516.125 C-127.36109968 509.75926688 -130.90326702 498.59373546 -133.1640625 487.8203125 C-134.28805452 481.90591138 -135.17729732 475.96295649 -136 470 C-136.14034668 468.98502441 -136.28069336 467.97004883 -136.42529297 466.92431641 C-138.82511881 449.02314199 -140.11753819 431.0345032 -141 413 C-141.04343536 412.14052765 -141.08687073 411.2810553 -141.13162231 410.39553833 C-142.05484498 391.58255664 -142.18771136 372.78420262 -142.18530273 353.95336914 C-142.18522171 350.62193344 -142.19214852 347.29063595 -142.20581055 343.95922852 C-142.43814556 286.33990052 -137.1268197 229.16772282 -124 173 C-123.83759827 172.30138855 -123.67519653 171.6027771 -123.50787354 170.88299561 C-114.39204655 131.7493949 -103.64782154 107.45548266 -68.58544922 85.578125 C-58.0443126 79.14395058 -47.12060723 73.3640576 -36 68 C-36.48597656 67.0925 -36.97195312 66.185 -37.47265625 65.25 C-39.35731818 61.23967078 -39.8037529 58.33853718 -39 54 C-37.25364203 50.85655565 -35.53137274 48.53137274 -33 46 C-33.495 44.845 -33.99 43.69 -34.5 42.5 C-36.78515081 36.27870425 -36.8142809 31.42589209 -34.25 25.375 C-32.44058148 21.68681243 -30.4590643 18.30217205 -28 15 C-27.56558594 14.37351562 -27.13117188 13.74703125 -26.68359375 13.1015625 C-21.50252088 6.32331679 -8.81352791 -2.7352328 0 0 Z " fill="#292929" transform="translate(177,19)"/>
<path d="M0 0 C0.33 0 0.66 0 1 0 C1.17309372 3.64555633 1.33717195 7.29147189 1.5 10.9375 C1.54769531 11.93974609 1.59539062 12.94199219 1.64453125 13.97460938 C1.90537271 19.91806832 2.01323698 25.84390727 1.97924805 31.79248047 C1.95618637 40.9474809 2.22807395 50.08209966 2.55078125 59.23046875 C2.60998904 60.96619033 2.6690046 62.70191848 2.72784424 64.43765259 C2.8856864 69.06392066 3.04771041 73.69003221 3.2111702 78.31610489 C3.31314509 81.20578007 3.41422383 84.09548546 3.5151062 86.98519897 C4.42032095 112.86685064 5.38174446 138.74606044 6.47072983 164.62067032 C6.56097465 166.77606874 6.64966442 168.93152596 6.73794556 171.08700562 C7.38915899 186.91921265 8.26227937 202.70726054 9.57641602 218.49951172 C10.81038713 233.71807594 10.99911405 248.03416781 1.72265625 261.01171875 C-0.69979906 263.80770458 -3.50300152 266.027566 -6.36328125 268.359375 C-8.68225046 270.68387874 -9 272.78134914 -9 276 C-8.01 276 -7.02 276 -6 276 C-6.33 276.66 -6.66 277.32 -7 278 C-7.99 277.67 -8.98 277.34 -10 277 C-10 275.35 -10 273.7 -10 272 C-10.66 272.17015625 -11.32 272.3403125 -12 272.515625 C-28.78095507 276.62346296 -45.87939109 279.11723849 -63.078125 280.60546875 C-66.68933962 280.86804188 -66.68933962 280.86804188 -68.89906311 281.49176025 C-87.91641521 286.09226694 -110.2018254 284.32247908 -129.70239258 284.26074219 C-133.33763096 284.24933784 -136.97257672 284.2561564 -140.60780525 284.26761055 C-165.53257886 284.33437324 -190.20133743 282.94523312 -214.95800781 279.93261719 C-217.53073897 279.62128015 -220.10498986 279.3258334 -222.6796875 279.03125 C-253.09694613 275.45152693 -253.09694613 275.45152693 -260 272 C-260.13430792 282.3864793 -259.76214036 292.64305688 -259 303 C-274.98260731 312.50426966 -289.7753266 312.67800124 -308 312 C-309.17461555 308.89878289 -310.33830456 305.79357759 -311.5 302.6875 C-311.83386719 301.80642578 -312.16773438 300.92535156 -312.51171875 300.01757812 C-312.82753906 299.17001953 -313.14335937 298.32246094 -313.46875 297.44921875 C-313.90864258 296.27879028 -313.90864258 296.27879028 -314.35742188 295.0847168 C-315 293 -315 293 -315 290 C-311.76746906 288.09295392 -309.32884007 287.7401445 -305.59765625 287.69140625 C-304.54843994 287.66844482 -303.49922363 287.6454834 -302.41821289 287.62182617 C-300.75713501 287.59245972 -300.75713501 287.59245972 -299.0625 287.5625 C-286.76410655 287.20209788 -273.934039 286.35482609 -263 280 C-262.67 279.01 -262.34 278.02 -262 277 C-263.32 277.33 -264.64 277.66 -266 278 C-266 277.34 -266 276.68 -266 276 C-265.01 275.34 -264.02 274.68 -263 274 C-262.74969023 271.41619823 -262.74969023 271.41619823 -263 269 C-261.80375 269.28875 -260.6075 269.5775 -259.375 269.875 C-254.19529282 271.03329672 -248.98275429 271.74845792 -243.72265625 272.4375 C-240.94089797 272.85782864 -238.2472741 273.35571762 -235.5 273.9375 C-229.35683237 275.1894334 -223.16663482 275.98016027 -216.94702148 276.75 C-214.99182314 276.99324178 -213.03787648 277.24647928 -211.08398438 277.5 C-206.72824858 278.05439893 -202.36669675 278.54045954 -198 279 C-197.13818115 279.09147308 -196.2763623 279.18294617 -195.38842773 279.27719116 C-177.54252292 281.10176639 -159.76604094 281.34417371 -141.84765625 281.31567383 C-138.71697526 281.31106691 -135.58668514 281.317894 -132.45605469 281.33618164 C-103.54486663 281.50315113 -74.91840698 279.88350527 -46.3125 275.5 C-44.92134979 275.29731153 -43.53007175 275.09549865 -42.13867188 274.89453125 C-38.76327802 274.40105983 -35.39388866 273.87750641 -32.0269165 273.32958984 C-30.63589614 273.10340086 -29.24420951 272.88128293 -27.85198975 272.66259766 C-25.70451889 272.32136066 -23.56125951 271.96023922 -21.41796875 271.59375 C-20.16137451 271.38427734 -18.90478027 271.17480469 -17.61010742 270.95898438 C-13.48233121 269.86248712 -10.64487347 268.19103368 -7 266 C-6.34 266 -5.68 266 -5 266 C-5.33 265.01 -5.66 264.02 -6 263 C-5.278125 262.67 -4.55625 262.34 -3.8125 262 C2.05034863 257.8308632 4.83692171 251.35233922 6.44848633 244.47241211 C7.09332497 240.41241209 7.18281939 236.53229467 7.15625 232.4296875 C7.15305252 231.59921402 7.14985504 230.76874054 7.14656067 229.9131012 C7.06567474 221.20404363 6.49572375 212.54019807 5.88909912 203.85473633 C4.35951257 181.72088269 3.35491124 159.57282096 2.4709816 137.40578079 C2.37676865 135.04433126 2.28175685 132.68291495 2.18661499 130.32150269 C1.46857223 112.44234307 0.82853169 94.56252971 0.33493042 76.67565918 C0.15022835 70.16669872 -0.09334676 63.68228683 -0.5625 57.1875 C-1.7990616 38.16800498 -1.15200364 19.00806008 0 0 Z " fill="#232324" transform="translate(381,248)"/>
<path d="M0 0 C4.53739843 1.79267751 9.10506785 3.3761278 13.75 4.8671875 C14.7709375 5.19589844 15.791875 5.52460938 16.84375 5.86328125 C18.94565769 6.53703631 21.0498435 7.20372575 23.15625 7.86328125 C30.92571431 10.38443318 38.31435877 13.20080743 43.5 19.8125 C44.22703125 20.71935547 44.22703125 20.71935547 44.96875 21.64453125 C45.3090625 22.09183594 45.649375 22.53914063 46 23 C41.64815273 21.57575907 37.31305116 20.1190538 33.00390625 18.5703125 C18.19885644 12.83963178 18.19885644 12.83963178 2.62890625 11.0859375 C-0.74678185 10.97558811 -3.87616682 10.29455886 -7.1875 9.625 C-20.25499911 7.03851627 -33.72654065 6.72661591 -47 6 C-47 7.32 -47 8.64 -47 10 C-46.01 10.495 -46.01 10.495 -45 11 C-45.99 11 -46.98 11 -48 11 C-48 54.56 -48 98.12 -48 143 C-52.29 143.33 -56.58 143.66 -61 144 C-57 142 -57 142 -49 142 C-49 97.12 -49 52.24 -49 6 C-66.30124242 6.72788573 -66.30124242 6.72788573 -83.375 8.6875 C-85.05710571 8.94370117 -85.05710571 8.94370117 -86.77319336 9.20507812 C-100.78061582 11.45526647 -114.72826482 14.58936732 -127.80712891 20.16943359 C-130.81371009 21.30819881 -133.81918681 21.62578668 -137 22 C-139.81862203 22.97549761 -139.81862203 22.97549761 -142 24 C-138.46775261 16.10844242 -131.7257343 12.56851629 -124 9.5625 C-121.67474197 8.68151694 -119.34317948 7.83292708 -117 7 C-117.33 6.34 -117.66 5.68 -118 5 C-87.42812894 -4.83018362 -30.42198903 -16.18020077 0 0 Z " fill="#2E2E2F" transform="translate(293,12)"/>
<path d="M0 0 C0.66 0.33 1.32 0.66 2 1 C2.625 3.0625 2.625 3.0625 3 5 C2.01 5 1.02 5 0 5 C-0.23783203 6.11181641 -0.23783203 6.11181641 -0.48046875 7.24609375 C-1.70610735 12.77839615 -3.0235514 18.20555741 -4.69458008 23.62109375 C-16.24684005 61.08492222 -22.0904002 100.99753065 -25.80337715 139.93795776 C-25.9331612 141.29904164 -26.06367372 142.66005627 -26.19495964 144.02099609 C-28.65661447 169.63860564 -29.53247206 195.07770497 -29.44642639 220.80791473 C-29.43734441 223.73769078 -29.43341254 226.66744099 -29.43029785 229.597229 C-29.39236532 254.23449695 -28.97272928 278.79320947 -27.25 303.375 C-27.13251907 305.07829971 -27.13251907 305.07829971 -27.01266479 306.81600952 C-26.12214137 319.24706663 -24.75136841 331.58002248 -23.01953125 343.921875 C-22.85910339 345.06755951 -22.69867554 346.21324402 -22.53338623 347.39364624 C-20.14650185 367.1160958 -20.14650185 367.1160958 -11 384 C-10.67 384.99 -10.34 385.98 -10 387 C-3.48058685 391.93894936 4.62883351 392.31733225 12.5 392.625 C13.32242188 392.66367187 14.14484375 392.70234375 14.9921875 392.7421875 C16.9944701 392.83531692 18.99720262 392.91868985 21 393 C21 393.33 21 393.66 21 394 C13.74 394 6.48 394 -1 394 C1.30028878 400.49315932 1.30028878 400.49315932 3.60742188 406.98388672 C4.0337793 408.19455811 4.0337793 408.19455811 4.46875 409.4296875 C4.76201172 410.25710449 5.05527344 411.08452148 5.35742188 411.93701172 C6 414 6 414 6 416 C23.4733271 415.89799225 38.26189598 415.15519936 54 407 C53.9592334 406.40461426 53.9184668 405.80922852 53.87646484 405.19580078 C53.6984137 402.50612557 53.53651641 399.81571656 53.375 397.125 C53.27832031 395.71927734 53.27832031 395.71927734 53.1796875 394.28515625 C53.10234375 392.94130859 53.10234375 392.94130859 53.0234375 391.5703125 C52.97106934 390.74289551 52.91870117 389.91547852 52.86474609 389.06298828 C53 387 53 387 55 385 C55.51032668 388.47773158 56.00633268 391.95736775 56.5 395.4375 C56.64308594 396.41138672 56.78617187 397.38527344 56.93359375 398.38867188 C57.76768061 404.32657597 58.14880874 410.00424766 58 416 C59.78277344 416.16435547 59.78277344 416.16435547 61.6015625 416.33203125 C71.52479734 417.27266066 81.39829426 418.37397163 91.25634766 419.85864258 C108.69061726 422.38423162 126.28929375 423.34962026 143.875 424.0625 C145.82642672 424.14541909 147.77784261 424.22859329 149.72924805 424.31201172 C166.14870381 425.00418226 182.57202589 425.55624447 199 426 C199 426.33 199 426.66 199 427 C135.05446598 427.43029099 135.05446598 427.43029099 111 425 C109.49222712 424.85327071 107.98441199 424.70697513 106.4765625 424.56103516 C101.54490056 424.0801971 96.61575565 423.57701026 91.6875 423.0625 C90.54080338 422.94352356 90.54080338 422.94352356 89.37094116 422.82214355 C81.02012916 421.94302737 72.73149883 420.87152193 64.45703125 419.43359375 C63.72280441 419.30694839 62.98857758 419.18030304 62.23210144 419.04981995 C57.12665623 418.12665623 57.12665623 418.12665623 56 417 C55.85884839 414.32941149 55.95752893 411.67567762 56 409 C55.44054687 409.31453125 54.88109375 409.6290625 54.3046875 409.953125 C37.9886929 418.66198385 23.13028044 418.51004901 5 418 C2.51722617 411.85441524 0.13488986 405.69642331 -2.0703125 399.4453125 C-3.90755403 394.51688089 -3.90755403 394.51688089 -7.8125 391.125 C-17.36109968 384.75926688 -20.90326702 373.59373546 -23.1640625 362.8203125 C-24.28805452 356.90591138 -25.17729732 350.96295649 -26 345 C-26.14034668 343.98502441 -26.28069336 342.97004883 -26.42529297 341.92431641 C-28.82511881 324.02314199 -30.11753819 306.0345032 -31 288 C-31.04343536 287.14052765 -31.08687073 286.2810553 -31.13162231 285.39553833 C-32.05484498 266.58255664 -32.18771136 247.78420262 -32.18530273 228.95336914 C-32.18522171 225.62193344 -32.19214852 222.29063595 -32.20581055 218.95922852 C-32.43814556 161.33990052 -27.1268197 104.16772282 -14 48 C-13.83759827 47.30138855 -13.67519653 46.6027771 -13.50787354 45.88299561 C-6.08339943 14.01025323 -6.08339943 14.01025323 0 0 Z " fill="#272728" transform="translate(67,144)"/>
<path d="M0 0 C7.44744235 0.52752717 13.94972637 2.34689921 21 4.75 C22.02867187 5.08515625 23.05734375 5.4203125 24.1171875 5.765625 C38.67552449 10.65544811 47.84413063 17.21996673 55 31 C57.63692519 36.56882846 57.47007164 41.93854984 57 48 C56.566875 49.11375 56.13375 50.2275 55.6875 51.375 C55.460625 52.24125 55.23375 53.1075 55 54 C56.24026327 55.43609431 57.48834341 56.86767895 58.8046875 58.234375 C61.19528842 61.76558944 60.63041871 65.94167952 60 70 C58.5 73.625 58.5 73.625 57 76 C58.26328125 76.37511719 59.5265625 76.75023438 60.828125 77.13671875 C66.52157271 79.04231259 71.55948905 81.82614204 76.75 84.8125 C77.74281982 85.38000977 78.73563965 85.94751953 79.75854492 86.53222656 C121.42851557 110.66059559 121.42851557 110.66059559 131 131 C130.75 133.4375 130.75 133.4375 130 135 C129.01 133.02 128.02 131.04 127 129 C101.25808764 159.51197919 89.08602268 218.4188283 89 257 C88.67 257 88.34 257 88 257 C87.22197127 248.35842811 86.86135193 239.81126839 86.90234375 231.13671875 C86.90446617 229.39972466 86.90446617 229.39972466 86.90663147 227.62763977 C86.91216503 223.98089862 86.92470448 220.33422215 86.9375 216.6875 C86.94252361 214.19336027 86.94708499 211.69921957 86.95117188 209.20507812 C86.96211257 203.13669721 86.97878282 197.06835323 87 191 C87.66 191 88.32 191 89 191 C89.33 200.24 89.66 209.48 90 219 C90.639375 216.091875 91.27875 213.18375 91.9375 210.1875 C98.21210049 183.27429051 108.22006893 156.70522217 121.44726562 132.42749023 C123.48453381 128.86420911 123.48453381 128.86420911 123.67480469 124.90283203 C116.45399899 104.54141393 79.48660505 88.80115175 61.4453125 80.08203125 C56.35059672 77.82766021 51.63930799 76.41637175 46 77 C44.00338649 78.81234859 44.00338649 78.81234859 42.5625 81.375 C41.97339844 82.29152344 41.38429688 83.20804687 40.77734375 84.15234375 C40.19082031 85.09207031 39.60429687 86.03179687 39 87 C21.87423189 112.47010988 -0.65586951 135.32536298 -31.18359375 143.390625 C-38.74855646 144.59854126 -46.36677862 144.29295946 -54 144 C-54 143.67 -54 143.34 -54 143 C-51.69 143 -49.38 143 -47 143 C-47 99.44 -47 55.88 -47 11 C-46.67 11 -46.34 11 -46 11 C-46 54.23 -46 97.46 -46 142 C-23.37523265 138.98336435 -8.04266438 132.95526828 9 118 C9.77988281 117.35289062 10.55976563 116.70578125 11.36328125 116.0390625 C17.36886634 110.9566157 22.19846851 105.21374664 27 99 C27.76570313 98.01515625 28.53140625 97.0303125 29.3203125 96.015625 C33.72274624 90.25515238 37.76146467 84.39755889 41.4921875 78.1796875 C43 76 43 76 46 74 C52.33333333 73.66666667 52.33333333 73.66666667 55 75 C57.54851101 70.22154186 57.68425718 65.27855536 57 60 C55.78829159 57.12094905 55.78829159 57.12094905 53 56 C46.3353177 55.39769079 41.03396219 57.80999597 36 62 C31.05539715 66.82708944 27.13974746 71.8513279 24 78 C23 75 23 75 23.96875 72.765625 C29.65820562 63.4186622 35.48652675 56.83249764 46 53 C49.625 52.6875 49.625 52.6875 52 53 C54.30844801 46.65176798 54.19818283 40.70518586 54 34 C52.35 33.34 50.7 32.68 49 32 C49.99 31.67 50.98 31.34 52 31 C48.15234558 26.6368346 44.57907126 24.57841137 39.1875 22.5 C38.07568359 22.05672363 38.07568359 22.05672363 36.94140625 21.60449219 C30.57634563 19.11510619 24.10834571 17.02230329 17.5625 15.06640625 C13.34088475 13.80269905 9.17259582 12.41570215 5 11 C5 10.67 5 10.34 5 10 C11.43755409 10.53860014 17.12794238 11.72261056 23.25 13.75 C24.06831299 14.01441895 24.88662598 14.27883789 25.72973633 14.55126953 C32.5825859 16.79416673 39.31773708 19.28870481 46 22 C35.6571827 8.85762313 15.2260059 5.6951335 0 1 C0 0.67 0 0.34 0 0 Z " fill="#2A2A2A" transform="translate(292,12)"/>
<path d="M0 0 C0.73046875 1.546875 0.73046875 1.546875 1 4 C-0.12022511 6.57259243 -1.27624846 8.84398893 -2.6875 11.25 C-3.09250732 11.95092773 -3.49751465 12.65185547 -3.91479492 13.37402344 C-16.46306573 34.56119608 -33.5341933 53.98000655 -57 63 C-57.92683594 63.36738281 -58.85367188 63.73476562 -59.80859375 64.11328125 C-68.93545535 67.59440045 -77.22484341 69.33036767 -87 69.1875 C-87.83789062 69.18685547 -88.67578125 69.18621094 -89.5390625 69.18554688 C-113.1399034 69.02114473 -132.57649299 59.59708281 -150 44 C-150.62003906 43.45085937 -151.24007812 42.90171875 -151.87890625 42.3359375 C-161.31658997 33.44568323 -168.5845008 22.1799508 -175 11 C-175.4228125 10.30003906 -175.845625 9.60007812 -176.28125 8.87890625 C-177.17569657 6.54070624 -176.82836027 5.31940877 -176 3 C-175.12601563 4.27230469 -175.12601563 4.27230469 -174.234375 5.5703125 C-168.00468601 14.52637624 -161.29260464 22.88821852 -154 31 C-153.07960937 32.03060547 -153.07960937 32.03060547 -152.140625 33.08203125 C-136.82265619 49.27206264 -115.19723287 61.83732862 -92.68432617 62.66015625 C-65.52473451 62.8888858 -44.77359315 51.3651045 -25.54736328 32.89624023 C-15.49511032 22.99008767 -7.31296889 12.08334925 0 0 Z " fill="#D6D9E0" transform="translate(334,93)"/>
<path d="M0 0 C3.23798897 1.05234642 6.36779223 2.15762524 9.5 3.5 C23.67437353 8.70691272 40.13483365 7.60432472 55 8 C53.85900371 11.48077209 52.71139816 14.95932886 51.5625 18.4375 C51.23701172 19.43072266 50.91152344 20.42394531 50.57617188 21.44726562 C50.26357422 22.39150391 49.95097656 23.33574219 49.62890625 24.30859375 C49.34088135 25.18314209 49.05285645 26.05769043 48.75610352 26.95874023 C48 29 48 29 47 30 C29.17021317 31.30461855 13.44273696 30.56273692 -2 21 C-1.49656013 13.97326485 -0.95812032 6.98059091 0 0 Z " fill="#EBEDF4" transform="translate(370,530)"/>
<path d="M0 0 C0.33965474 2.18652739 0.67142477 4.37428025 1 6.5625 C1.185625 7.78066406 1.37125 8.99882813 1.5625 10.25390625 C1.98555077 13.87627848 2.07501425 17.35712046 2 21 C-13.98260731 30.50426966 -28.7753266 30.67800124 -47 30 C-48.17461555 26.89878289 -49.33830456 23.79357759 -50.5 20.6875 C-51.00080078 19.36588867 -51.00080078 19.36588867 -51.51171875 18.01757812 C-51.82753906 17.17001953 -52.14335938 16.32246094 -52.46875 15.44921875 C-52.90864258 14.27879028 -52.90864258 14.27879028 -53.35742188 13.0847168 C-54 11 -54 11 -54 8 C-53.16976318 7.9906543 -52.33952637 7.98130859 -51.48413086 7.97167969 C-27.83418681 7.83503665 -27.83418681 7.83503665 -5.24609375 1.3671875 C-2 0 -2 0 0 0 Z " fill="#EBEEF5" transform="translate(120,530)"/>
<path d="M0 0 C0.33 0 0.66 0 1 0 C1.26921731 18.02616444 0.50808632 36.01755773 -0.21137238 54.02489471 C-0.31334868 56.58379593 -0.41387254 59.1427509 -0.51409912 61.70172119 C-1.70391579 91.97967926 -3.25257314 122.22362666 -5.30102539 152.45678711 C-5.34742157 153.14330353 -5.39381775 153.82981995 -5.44161987 154.53713989 C-5.56337045 156.3286527 -5.68722215 158.12002239 -5.8112793 159.91137695 C-6.72971345 174.94256768 -4.85929672 188.20693206 5.25 200.125 C6.81826361 201.76454832 8.39569806 203.39569806 10 205 C3.87322517 204.68580642 -0.44144621 201.88048934 -5 198 C-15.16837471 186.66512343 -14.76793518 172.33385912 -14 158 C-13.71266787 154.46256943 -13.29250259 150.94624632 -12.84619141 147.42578125 C-12.00121319 140.60857161 -11.58838709 133.79350637 -11.1875 126.9375 C-10.34991582 113.08208485 -8.95558818 99.30278396 -7.5 85.5 C-5.95238627 70.81286127 -4.53747018 56.16572664 -3.67236328 41.42138672 C-2.844759 27.57836553 -1.41823821 13.79300605 0 0 Z " fill="#D8DAE1" transform="translate(106,312)"/>
<path d="M0 0 C0.33 0 0.66 0 1 0 C2.33171621 9.91703558 3.25608278 19.82973775 3.9375 29.8125 C5.5857177 53.82938646 7.63300051 77.79957488 10.0625 101.75 C14.14170993 142.08152795 14.14170993 142.08152795 14.25 155.9375 C14.26401855 157.11844238 14.26401855 157.11844238 14.27832031 158.32324219 C14.22346019 168.11788344 12.07645107 178.47964401 5.2578125 185.89453125 C1.53467773 189.17824024 -1.88349492 192 -7 192 C-7.33 192.99 -7.66 193.98 -8 195 C-8.99 194.34 -9.98 193.68 -11 193 C-10.49210937 192.61070312 -9.98421875 192.22140625 -9.4609375 191.8203125 C-0.81231115 184.7912791 4.35260291 176.07493845 6 165 C6.56747601 156.78510919 6.09442776 148.64905029 5.36947632 140.45722961 C3.58915845 120.01580854 2.94774451 99.50203958 2.14013672 79.00463867 C1.92021982 73.42478227 1.69185537 67.84530929 1.46098137 62.2658968 C1.28083275 57.88933157 1.10520756 53.51259314 0.93085098 49.13579369 C0.84848638 47.08097079 0.76481293 45.02619981 0.67965317 42.97149086 C0.08910517 28.64082785 -0.10486562 14.34257009 0 0 Z " fill="#D7D9E0" transform="translate(384,324)"/>
<path d="M0 0 C2.5488758 2.5488758 3.09746967 4.77464328 4.2421875 8.1953125 C4.55515778 9.12630768 4.55515778 9.12630768 4.87445068 10.07611084 C5.54834621 12.09014023 6.2122931 14.10726379 6.875 16.125 C7.1003241 16.80451721 7.32564819 17.48403442 7.55780029 18.18414307 C10.81671833 28.0215662 13.82887476 37.85728058 16 48 C17.25838557 45.48322887 17.20818973 43.58706712 17.31640625 40.7734375 C17.35830078 39.7421875 17.40019531 38.7109375 17.44335938 37.6484375 C17.48267578 36.56820312 17.52199219 35.48796875 17.5625 34.375 C17.60568359 33.28703125 17.64886719 32.1990625 17.69335938 31.078125 C17.7996453 28.3855483 17.90168057 25.69287747 18 23 C18.33 23 18.66 23 19 23 C19.91841055 96.56232996 16.9574202 170.19611038 13.3112793 243.65820312 C13.1069438 247.77628333 12.91255861 251.89458097 12.72973633 256.01367188 C12.3343497 264.87033232 11.86754011 273.68017723 10.9375 282.5 C9.31519604 299.32323265 9.06306231 313.10510385 18 328 C20.45757422 330.9614968 20.45757422 330.9614968 23 333 C24.33333333 334.33333333 25.66666667 335.66666667 27 337 C22.98676924 337 21.74649215 335.57428684 18.83984375 332.96875 C8.84136942 322.26974562 6.62333936 309.09170827 7 295 C7.4005591 287.2566344 8.00540178 279.52322778 8.56738281 271.7902832 C11.02405561 237.73386911 12.25684254 203.59452351 13.43261719 169.47387695 C13.5605611 165.76669582 13.69253204 162.05969238 13.828125 158.3527832 C14.56591714 138.16673888 15.19067585 118.01284245 14.98233032 97.8110199 C14.9718869 96.55410843 14.96144348 95.29719696 14.95068359 94.00219727 C14.92970108 92.36191307 14.92970108 92.36191307 14.90829468 90.68849182 C15 88 15 88 16 85 C15.34 85 14.68 85 14 85 C14.33 83.68 14.66 82.36 15 81 C15.495 81.495 15.495 81.495 16 82 C17.99186707 56.51147875 9.88201536 28.33426123 -0.34130859 5.11791992 C-1 3 -1 3 0 0 Z " fill="#2C2C2D" transform="translate(92,180)"/>
<path d="M0 0 C27.37204273 -0.98736827 66.41945997 1.36037871 88.36669922 20.01123047 C89.99245378 21.62012473 91.52910466 23.24942738 93 25 C92.34 25.33 91.68 25.66 91 26 C88.62493004 25.05986814 86.32394563 24.05457263 84 23 C57.15856622 11.4496233 28.82349068 8.82709506 0 7 C0 4.69 0 2.38 0 0 Z " fill="#E6E8EF" transform="translate(246,9)"/>
<path d="M0 0 C0 2.31 0 4.62 0 7 C-1.093125 7.03738281 -2.18625 7.07476563 -3.3125 7.11328125 C-34.55908586 8.35998499 -64.52433254 13.77915439 -93 27 C-89.41971385 19.06110462 -82.6040023 15.50270244 -74.875 12.3125 C-74.21363037 12.03946045 -73.55226074 11.7664209 -72.87084961 11.48510742 C-61.44489482 7.00950301 -49.57788414 4.26509711 -37.5 2.25 C-35.56616455 1.9247937 -35.56616455 1.9247937 -33.59326172 1.59301758 C-22.3251825 -0.17899562 -11.37474608 -0.53208272 0 0 Z " fill="#E8EBF2" transform="translate(244,9)"/>
<path d="M0 0 C0.66 0.33 1.32 0.66 2 1 C2.625 3.0625 2.625 3.0625 3 5 C2.01 5 1.02 5 0 5 C-0.23783203 6.11181641 -0.23783203 6.11181641 -0.48046875 7.24609375 C-1.70610735 12.77839615 -3.0235514 18.20555741 -4.69458008 23.62109375 C-16.05950503 60.47739718 -22.0004884 99.8263363 -25.63232422 138.14794922 C-25.87988885 140.74162432 -26.1369096 143.33441227 -26.40283203 145.92626953 C-29.70887686 178.19686442 -29.7302967 210.59254363 -30 243 C-30.33 243 -30.66 243 -31 243 C-32.61814983 180.69835064 -32.61814983 180.69835064 -30 152 C-29.80078782 149.51312427 -29.60288784 147.02614311 -29.40625 144.5390625 C-26.6889998 112.00963587 -21.42619786 79.77560388 -14 48 C-13.83759827 47.30138855 -13.67519653 46.6027771 -13.50787354 45.88299561 C-6.08339943 14.01025323 -6.08339943 14.01025323 0 0 Z " fill="#2D2D2D" transform="translate(67,144)"/>
<path d="M0 0 C0.33 0 0.66 0 1 0 C1 43.23 1 86.46 1 131 C23.62476735 127.98336435 38.95733562 121.95526828 56 107 C56.77988281 106.35289062 57.55976563 105.70578125 58.36328125 105.0390625 C64.36886634 99.9566157 69.19846851 94.21374664 74 88 C74.76570313 87.01515625 75.53140625 86.0303125 76.3203125 85.015625 C80.74304591 79.22859078 84.77968278 73.35024574 88.4921875 67.08203125 C90 65 90 65 93 64 C87.0025133 76.70435354 78.51679491 87.77321728 69 98 C68.48034668 98.56348145 67.96069336 99.12696289 67.42529297 99.70751953 C52.8328384 115.37856636 31.78765118 131.75762015 9.54248047 133.15429688 C4.02019664 133.32179355 -1.48049865 133.21183587 -7 133 C-7 132.67 -7 132.34 -7 132 C-4.69 132 -2.38 132 0 132 C0 88.44 0 44.88 0 0 Z " fill="#161617" transform="translate(245,23)"/>
<path d="M0 0 C1.19625 0.28875 2.3925 0.5775 3.625 0.875 C8.80470718 2.03329672 14.01724571 2.74845792 19.27734375 3.4375 C22.05910203 3.85782864 24.7527259 4.35571762 27.5 4.9375 C33.64316763 6.1894334 39.83336518 6.98016027 46.05297852 7.75 C48.00817686 7.99324178 49.96212352 8.24647928 51.91601562 8.5 C73.92031606 11.29714672 95.89587853 12.33085449 118.0625 12.625 C120.50196471 12.66333236 122.9414181 12.70239184 125.38085938 12.7421875 C131.25380312 12.83645773 137.12681949 12.92194302 143 13 C143 13.33 143 13.66 143 14 C90.63998131 15.63262075 90.63998131 15.63262075 67 13 C65.36170471 12.82439276 63.72335441 12.64929823 62.08496094 12.47460938 C56.55401009 11.88072733 51.02659639 11.25801134 45.5 10.625 C44.62611633 10.52612488 43.75223267 10.42724976 42.85186768 10.32537842 C10.15651297 6.57825649 10.15651297 6.57825649 3 3 C3 6.63 3 10.26 3 14 C1.35 14.33 -0.3 14.66 -2 15 C-4.65557131 15.92944996 -7.26870936 16.94477894 -9.890625 17.96484375 C-18.66892643 20.88726822 -26.32392429 21.13626595 -35.5625 20.625 C-36.76197266 20.56828125 -37.96144531 20.5115625 -39.19726562 20.453125 C-42.13221474 20.31280871 -45.06615435 20.16151952 -48 20 C-48 19.67 -48 19.34 -48 19 C-46.96613159 18.97812622 -46.96613159 18.97812622 -45.91137695 18.95581055 C-22.16105187 18.79849516 -22.16105187 18.79849516 0 11 C0.33 10.01 0.66 9.02 1 8 C-0.32 8.33 -1.64 8.66 -3 9 C-3 8.34 -3 7.68 -3 7 C-2.01 6.34 -1.02 5.68 0 5 C0.25030977 2.41619823 0.25030977 2.41619823 0 0 Z " fill="#3B3B3B" transform="translate(118,517)"/>
<path d="M0 0 C20.64651524 20.64651524 23.40005977 89.0870614 27 117 C27.15484863 118.18480957 27.30969727 119.36961914 27.46923828 120.59033203 C29.25138462 134.53604183 30.66107598 147.99092545 29 162 C28.67 162 28.34 162 28 162 C27.89510254 160.60769165 27.89510254 160.60769165 27.78808594 159.18725586 C24.7387007 119.30257163 18.9093897 80.55477951 9.9375 41.5625 C9.7299408 40.65447632 9.52238159 39.74645264 9.30853271 38.81091309 C7.22343512 29.72665453 5.03792617 20.69471679 2.31640625 11.77734375 C2.1137767 11.10159805 1.91114716 10.42585236 1.70237732 9.72962952 C1.19691399 8.1321299 0.60612841 6.56208405 0 5 C-0.66 4.67 -1.32 4.34 -2 4 C-2 3.34 -2 2.68 -2 2 C-1.34 2 -0.68 2 0 2 C0 1.34 0 0.68 0 0 Z " fill="#2A2A2A" transform="translate(423,145)"/>
<path d="M0 0 C0.33 0 0.66 0 1 0 C1.17309372 3.64555633 1.33717195 7.29147189 1.5 10.9375 C1.54769531 11.93974609 1.59539062 12.94199219 1.64453125 13.97460938 C1.9039046 19.88461653 2.01140222 25.77118446 1.97485352 31.68701172 C1.94828725 41.43982961 2.27186849 51.17254632 2.62109375 60.91796875 C2.68618196 62.7915216 2.75104202 64.66508239 2.81568909 66.53865051 C2.95092612 70.44062749 3.08807837 74.34253038 3.22680664 78.24438477 C3.40218611 83.17812356 3.573978 88.11197868 3.74451447 93.04588699 C4.59829251 118.36504006 4.59829251 118.36504006 5.71299744 143.67362976 C6.198985 153.46668341 6.58532241 163.28990022 5 173 C4.67 173 4.34 173 4 173 C3.62398063 163.9216192 3.25000802 154.8431567 2.87835789 145.76459599 C2.70555867 141.54492939 2.53216154 137.3252895 2.35717773 133.10571289 C1.57553737 114.2466957 0.84003913 95.38934842 0.32545471 76.52088928 C0.14482749 70.06322716 -0.09727535 63.63105127 -0.5625 57.1875 C-1.7990616 38.16800498 -1.15200364 19.00806008 0 0 Z " fill="#29292A" transform="translate(381,248)"/>
<path d="M0 0 C7.44744235 0.52752717 13.94972637 2.34689921 21 4.75 C22.02867187 5.08515625 23.05734375 5.4203125 24.1171875 5.765625 C36.98414095 10.08734982 45.87392259 15.67800404 53.25 27.203125 C54 29 54 29 53 32 C52.23623047 30.87078125 52.23623047 30.87078125 51.45703125 29.71875 C48.56443376 26.51803799 45.60069245 25.08744485 41.6875 23.5 C40.63224121 23.05672363 40.63224121 23.05672363 39.55566406 22.60449219 C29.36167359 18.39838883 18.9815491 15.01999 8.1953125 12.67578125 C7.47085937 12.45277344 6.74640625 12.22976562 6 12 C5.67 11.34 5.34 10.68 5 10 C11.43755409 10.53860014 17.12794238 11.72261056 23.25 13.75 C24.06831299 14.01441895 24.88662598 14.27883789 25.72973633 14.55126953 C32.5825859 16.79416673 39.31773708 19.28870481 46 22 C35.6571827 8.85762313 15.2260059 5.6951335 0 1 C0 0.67 0 0.34 0 0 Z " fill="#2A2A2B" transform="translate(292,12)"/>
<path d="M0 0 C0.33 0 0.66 0 1 0 C1.929153 6.46567628 2.2368014 12.84998552 2.4375 19.375 C2.74969162 28.44271686 3.30669584 37.4589337 4.0625 46.5 C7.00442043 83.27536608 7.00442043 83.27536608 -5 98 C-6.91518765 100.18748921 -8.81444516 102.06280367 -11 104 C-11.66 104 -12.32 104 -13 104 C-12.67 103.01 -12.34 102.02 -12 101 C-11.34 101 -10.68 101 -10 101 C-10.33 100.01 -10.66 99.02 -11 98 C-9.9171875 97.505 -9.9171875 97.505 -8.8125 97 C-2.88303461 92.78349128 -0.15662126 86.24569527 1.5 79.30859375 C3.5531255 65.72267736 1.68515094 51.56207078 0.71655273 37.95581055 C-0.15655825 25.30184184 -0.21238218 12.67921612 0 0 Z " fill="#232324" transform="translate(386,413)"/>
<path d="M0 0 C0.84691406 0.10183594 1.69382812 0.20367188 2.56640625 0.30859375 C3.49259766 0.43427734 3.49259766 0.43427734 4.4375 0.5625 C4.4375 0.8925 4.4375 1.2225 4.4375 1.5625 C-30.78365173 5.75559429 -65.13044139 6.80762964 -100.5625 5.5625 C-100.5625 5.2325 -100.5625 4.9025 -100.5625 4.5625 C-99.37849609 4.54791748 -98.19449219 4.53333496 -96.97460938 4.51831055 C-75.36064007 4.23335118 -53.80524834 3.75862809 -32.25 2.0625 C-31.4132373 1.99678802 -30.57647461 1.93107605 -29.71435547 1.8633728 C-22.90037161 1.32056249 -16.09066986 0.77255758 -9.3046875 -0.05859375 C-6.03736191 -0.38941899 -3.24304582 -0.41109031 0 0 Z " fill="#3D3D3F" transform="translate(334.5625,564.4375)"/>
<path d="M0 0 C0.33 0 0.66 0 1 0 C4.37068894 23.73147212 1.02733155 59.74810345 -13.0625 79.75 C-15.10550819 82.35327913 -16.96970924 83.67058212 -20 85 C-20.66 84.34 -21.32 83.68 -22 83 C-21.01 82.401875 -20.02 81.80375 -19 81.1875 C-17.515 80.1046875 -17.515 80.1046875 -16 79 C-16 78.01 -16 77.02 -16 76 C-15.3915625 75.39671875 -14.783125 74.7934375 -14.15625 74.171875 C1.12418243 58.7807148 -1.58085886 20.44188917 0 0 Z " fill="#313131" transform="translate(450,451)"/>
<path d="M0 0 C2.49365824 3.75007835 2.08965068 7.26631356 1.75 11.5625 C1.69798431 12.31065475 1.64596863 13.05880951 1.59237671 13.82963562 C1.26548976 18.47599301 0.90988988 23.11801383 0.51123047 27.75878906 C-0.94740465 45.2016413 -1.4117199 62.56736577 -1.60089111 80.05834961 C-1.64190285 83.68025687 -1.69253435 87.30203086 -1.7421875 90.92382812 C-1.83716756 97.94911967 -1.92209892 104.97449643 -2 112 C-2.33 112 -2.66 112 -3 112 C-4.62987084 49.24707063 -4.62987084 49.24707063 -2 21 C-1.80591468 18.7864649 -1.61190202 16.57292343 -1.41796875 14.359375 C-0.98607765 9.56809504 -0.51153562 4.78340225 0 0 Z " fill="#434343" transform="translate(39,275)"/>
<path d="M0 0 C2.5488758 2.5488758 3.09746967 4.77464328 4.2421875 8.1953125 C4.55515778 9.12630768 4.55515778 9.12630768 4.87445068 10.07611084 C5.54834621 12.09014023 6.2122931 14.10726379 6.875 16.125 C7.1003241 16.80451721 7.32564819 17.48403442 7.55780029 18.18414307 C10.81671833 28.0215662 13.82887476 37.85728058 16 48 C16.66 47.34 17.32 46.68 18 46 C18 49.96 18 53.92 18 58 C17.34 58 16.68 58 16 58 C15.67 58.66 15.34 59.32 15 60 C14.88519287 59.39341553 14.77038574 58.78683105 14.65209961 58.16186523 C12.41241271 46.49514252 9.91587664 34.99158592 6.4375 23.625 C6.01682251 22.2471936 6.01682251 22.2471936 5.58764648 20.84155273 C3.89436321 15.45419049 1.93655964 10.27480359 -0.34350586 5.10693359 C-1 3 -1 3 0 0 Z " fill="#333333" transform="translate(92,180)"/>
<path d="M0 0 C0.33 0 0.66 0 1 0 C1.7039382 5.0625374 2.39706316 10.12641237 3.08129883 15.19165039 C3.3141947 16.90524683 3.54976108 18.61848299 3.78833008 20.33129883 C5.07794432 29.60397964 6.18603631 38.84924042 6.72265625 48.19921875 C6.76893661 48.95185501 6.81521698 49.70449127 6.86289978 50.47993469 C7.11825605 55.7621332 6.68678458 60.75625871 6 66 C5.67 66 5.34 66 5 66 C4.92483154 65.0298999 4.84966309 64.0597998 4.7722168 63.06030273 C4.41803881 58.51876935 4.05446222 53.97801693 3.6875 49.4375 C3.62163696 48.6198819 3.55577393 47.80226379 3.48791504 46.95986938 C2.58980068 35.91232922 1.53209558 24.92679512 -0.1730957 13.96850586 C-0.9099865 9.00183298 -0.98575409 4.93543096 0 0 Z " fill="#2E2E2E" transform="translate(446,241)"/>
<path d="M0 0 C2.88141396 1.13510247 5.72566185 2.31827274 8.5625 3.5625 C12.59724207 5.24975577 15.9764563 6.09882282 20.328125 6.31640625 C21.52695313 6.37924805 21.52695313 6.37924805 22.75 6.44335938 C23.9875 6.50233398 23.9875 6.50233398 25.25 6.5625 C26.09046875 6.60568359 26.9309375 6.64886719 27.796875 6.69335938 C29.86440671 6.79908543 31.93218281 6.90001295 34 7 C34 7.33 34 7.66 34 8 C26.74 8 19.48 8 12 8 C14.30028878 14.49315932 14.30028878 14.49315932 16.60742188 20.98388672 C16.89166016 21.79100098 17.17589844 22.59811523 17.46875 23.4296875 C17.76201172 24.25710449 18.05527344 25.08452148 18.35742188 25.93701172 C19 28 19 28 19 30 C25.93 30.33 32.86 30.66 40 31 C40 31.33 40 31.66 40 32 C32.74 32 25.48 32 18 32 C15.52753632 25.81884079 13.13916898 19.70855339 10.9296875 13.4453125 C8.85116233 7.97826732 6.99376424 6.22513941 2 3 C1.34 2.01 0.68 1.02 0 0 Z " fill="#1B1B1B" transform="translate(54,530)"/>
<path d="M0 0 C0 0.33 0 0.66 0 1 C-1.24910156 1.14695312 -2.49820313 1.29390625 -3.78515625 1.4453125 C-13.75235098 2.69859118 -23.46189793 4.3992752 -33.1875 6.9375 C-34.11763916 7.17807129 -35.04777832 7.41864258 -36.00610352 7.66650391 C-41.51580097 9.15465053 -46.68620687 11.00308657 -51.8996582 13.33032227 C-54 14 -54 14 -57 13 C-49.24822204 5.24822204 -31.67320118 3.24192665 -21.3125 1 C-19.84562744 0.67068481 -19.84562744 0.67068481 -18.34912109 0.3347168 C-11.9768925 -0.96768015 -6.42068998 -1.03697953 0 0 Z " fill="#303031" transform="translate(217,19)"/>
<path d="M0 0 C-0.45358887 0.55341064 -0.90717773 1.10682129 -1.37451172 1.67700195 C-3.09563086 4.13666681 -4.01781779 6.33988555 -5.0078125 9.16796875 C-5.35457031 10.14314453 -5.70132812 11.11832031 -6.05859375 12.12304688 C-6.41050781 13.13431641 -6.76242187 14.14558594 -7.125 15.1875 C-7.83354588 17.20266542 -8.54435966 19.21703537 -9.2578125 21.23046875 C-9.5686377 22.12145264 -9.87946289 23.01243652 -10.19970703 23.93041992 C-11 26 -11 26 -12 27 C-13.56172745 27.08685603 -15.12729344 27.10702219 -16.69140625 27.09765625 C-17.63564453 27.09443359 -18.57988281 27.09121094 -19.55273438 27.08789062 C-21.04256836 27.07532227 -21.04256836 27.07532227 -22.5625 27.0625 C-23.55958984 27.05798828 -24.55667969 27.05347656 -25.58398438 27.04882812 C-28.05604849 27.03700007 -30.52799518 27.02051849 -33 27 C-33 26.67 -33 26.34 -33 26 C-26.4 25.34 -19.8 24.68 -13 24 C-10.69 17.4 -8.38 10.8 -6 4 C-12.93 3.67 -19.86 3.34 -27 3 C-27 2.67 -27 2.34 -27 2 C-25.83082031 1.93941406 -24.66164063 1.87882813 -23.45703125 1.81640625 C-21.90884386 1.73195966 -20.36066732 1.64731375 -18.8125 1.5625 C-18.04357422 1.52318359 -17.27464844 1.48386719 -16.48242188 1.44335938 C-10.92989094 1.13356151 -5.54845346 -0.15852724 0 0 Z " fill="#222324" transform="translate(430,535)"/>
<path d="M0 0 C0.66 0.33 1.32 0.66 2 1 C1.36191406 1.93779297 1.36191406 1.93779297 0.7109375 2.89453125 C-1.96980963 7.76027091 -3.52336552 13.03599912 -5.21875 18.31445312 C-7.41061293 24.6580204 -7.41061293 24.6580204 -10.7265625 26.58203125 C-11.47679687 26.71996094 -12.22703125 26.85789062 -13 27 C-11.49662154 20.90092804 -9.73101092 14.91941872 -7.625 9 C-7.24601562 7.9275 -6.86703125 6.855 -6.4765625 5.75 C-4.75211038 2.53832198 -3.32183547 1.43418928 0 0 Z " fill="#E4E6ED" transform="translate(432,534)"/>
<path d="M0 0 C0.66 0 1.32 0 2 0 C-5.59784629 16.09436257 -17.16026082 29.84001172 -30 42 C-30 37.75448479 -28.12430091 36.75662695 -25.1875 33.75 C-16.31870836 24.41343898 -8.99016328 13.92184379 -2.2421875 2.9765625 C-1 1 -1 1 0 0 Z " fill="#212122" transform="translate(336,87)"/>
<path d="M0 0 C-0.33 2.64 -0.66 5.28 -1 8 C-0.01 8 0.98 8 2 8 C1.67 8.66 1.34 9.32 1 10 C0.01 9.67 -0.98 9.34 -2 9 C-2 7.35 -2 5.7 -2 4 C-2.82242188 4.19335938 -3.64484375 4.38671875 -4.4921875 4.5859375 C-29.66217309 10.4569965 -29.66217309 10.4569965 -36 7 C-35.1121582 6.85900879 -34.22431641 6.71801758 -33.30957031 6.57275391 C-30.00627389 6.04496996 -26.70404097 5.51129452 -23.40234375 4.97363281 C-21.97498951 4.74243251 -20.54725521 4.51356567 -19.11914062 4.28710938 C-17.06274978 3.96060721 -15.00788593 3.62565113 -12.953125 3.2890625 C-11.71723633 3.09006348 -10.48134766 2.89106445 -9.20800781 2.68603516 C-6.00857968 2.00183477 -3.1901996 0 0 0 Z " fill="#373738" transform="translate(373,516)"/>
<path d="M0 0 C0.33 0 0.66 0 1 0 C1 19.47 1 38.94 1 59 C0.67 59 0.34 59 0 59 C-0.33851178 56.31306278 -0.670936 53.62559711 -1 50.9375 C-1.09539062 50.18533203 -1.19078125 49.43316406 -1.2890625 48.65820312 C-1.84571902 44.06578683 -2.09829028 39.6257865 -2 35 C-1.34 35 -0.68 35 0 35 C0 23.45 0 11.9 0 0 Z " fill="#141414" transform="translate(110,203)"/>
<path d="M0 0 C0.33 0 0.66 0 1 0 C1 14.52 1 29.04 1 44 C0.67 44 0.34 44 0 44 C-0.31068562 39.35568734 -0.61363492 34.71095908 -0.90942383 30.06567383 C-1.01113779 28.48545734 -1.114965 26.90537541 -1.22094727 25.32543945 C-1.37291265 23.05452008 -1.51727316 20.7832254 -1.66015625 18.51171875 C-1.70906509 17.80536789 -1.75797394 17.09901703 -1.80836487 16.3712616 C-1.9994287 13.22572314 -2.00799885 11.02399654 -1 8 C-1.66 8 -2.32 8 -3 8 C-2.67 6.68 -2.34 5.36 -2 4 C-1.67 4.33 -1.34 4.66 -1 5 C-0.67 3.35 -0.34 1.7 0 0 Z " fill="#393939" transform="translate(109,257)"/>
<path d="M0 0 C0.33 0 0.66 0 1 0 C2.10643764 5.83394389 2.27137992 8.76579213 -1 14 C-0.40832031 14.18175781 0.18335938 14.36351563 0.79296875 14.55078125 C5.212508 15.95667057 9.12540125 17.37527181 13 20 C12.34 20.66 11.68 21.32 11 22 C10.14341797 21.51080078 10.14341797 21.51080078 9.26953125 21.01171875 C2.39401012 17.30615172 -4.3538268 15.47410549 -12 14 C-12 13.34 -12 12.68 -12 12 C-5.25 11.875 -5.25 11.875 -3 13 C-0.96834048 8.66579301 -0.47939368 4.71403788 0 0 Z " fill="#393939" transform="translate(350,74)"/>
<path d="M0 0 C0.33 0 0.66 0 1 0 C2.7625 34.2046875 2.7625 34.2046875 1 45 C0.67 45 0.34 45 0 45 C-1.69811321 14.85849057 -1.69811321 14.85849057 0 0 Z " fill="#3B3B3C" transform="translate(385,376)"/>
<path d="M0 0 C4.64831466 0.8069407 8.7975386 2.36547724 13.18359375 4.0625 C19.13207409 6.04257667 25.16390088 6.26036519 31.375 6.5625 C32.20644531 6.60568359 33.03789062 6.64886719 33.89453125 6.69335938 C35.92953228 6.79861805 37.96474703 6.89973072 40 7 C40 7.33 40 7.66 40 8 C25.17161911 9.28740127 13.57636677 8.75389963 0 2 C0 1.34 0 0.68 0 0 Z " fill="#2D2D2D" transform="translate(370,553)"/>
<path d="M0 0 C4.00055301 3.66717359 6.66825595 7.06746451 9 12 C8.75 14.4375 8.75 14.4375 8 16 C7.01 14.02 6.02 12.04 5 10 C2.16811225 13.4505463 0.25496982 17.25962359 -1.6875 21.25 C-2.00783203 21.8996875 -2.32816406 22.549375 -2.65820312 23.21875 C-3.44247141 24.81069757 -4.22174255 26.40510529 -5 28 C-5.78031503 25.72450067 -6.1547717 24.45197135 -5.36328125 22.140625 C-5.01652344 21.51671875 -4.66976563 20.8928125 -4.3125 20.25 C-3.94382812 19.5590625 -3.57515625 18.868125 -3.1953125 18.15625 C-2.3984375 16.71875 -1.6015625 15.28125 -0.8046875 13.84375 C-0.25167969 12.80734375 -0.25167969 12.80734375 0.3125 11.75 C0.65925781 11.12609375 1.00601562 10.5021875 1.36328125 9.859375 C2.16530354 7.5172731 1.77801909 6.31508118 1 4 C0.5 2 0.5 2 0 0 Z " fill="#1F1F1F" transform="translate(414,131)"/>
<path d="M0 0 C0.33 0 0.66 0 1 0 C2.13085054 16.53589553 1.71761777 32.51759694 0 49 C-0.33 49 -0.66 49 -1 49 C-1.11611648 32.63114978 -0.99040946 16.34175605 0 0 Z " fill="#585858" transform="translate(381,248)"/>
<path d="M0 0 C2 3 2 3 1.75 5.1640625 C-1.06867105 14.41282689 -5.76591306 21.58796839 -13 28 C-13.66 28 -14.32 28 -15 28 C-14.505 26.515 -14.505 26.515 -14 25 C-13.34 25 -12.68 25 -12 25 C-12.33 24.01 -12.66 23.02 -13 22 C-12.278125 21.67 -11.55625 21.34 -10.8125 21 C-3.73935773 15.97020994 -1.83582129 8.11940475 0 0 Z " fill="#2B2C2C" transform="translate(388,489)"/>
<path d="M0 0 C3.07435513 3.07435513 3.78510299 6.9072821 5.0625 11 C5.33271973 11.85762939 5.60293945 12.71525879 5.88134766 13.59887695 C7.66243704 19.43357541 8.79927335 24.87783705 9 31 C6.8517209 28.8517209 6.5508395 27.9671448 5.81640625 25.11328125 C5.61080078 24.33919922 5.40519531 23.56511719 5.19335938 22.76757812 C4.98517578 21.95740234 4.77699219 21.14722656 4.5625 20.3125 C2.89948848 13.87554374 0.98219845 7.9643969 -2 2 C-1.34 2 -0.68 2 0 2 C0 1.34 0 0.68 0 0 Z " fill="#2F2F2F" transform="translate(423,145)"/>
<path d="M0 0 C0.33 0 0.66 0 1 0 C2.71782828 12.09443965 1.2642543 23.92536565 0 36 C-0.33 36 -0.66 36 -1 36 C-2.06447067 27.78468171 -1.83890081 20.04427756 -1.0625 11.8125 C-0.96259766 10.66974609 -0.86269531 9.52699219 -0.75976562 8.34960938 C-0.5151381 5.56551513 -0.26175299 2.78252724 0 0 Z " fill="#464646" transform="translate(450,451)"/>
<path d="M0 0 C0.66 0.33 1.32 0.66 2 1 C1.071875 1.928125 0.14375 2.85625 -0.8125 3.8125 C-2.33197975 5.67403117 -2.33197975 5.67403117 -3 8 C-2.08594938 11.10514803 -0.77591928 13.64214126 0.828125 16.44921875 C2 19 2 19 1.671875 21.33203125 C1.45015625 21.88246094 1.2284375 22.43289062 1 23 C0.16180842 21.37750059 -0.6704116 19.75191503 -1.5 18.125 C-1.9640625 17.22007812 -2.428125 16.31515625 -2.90625 15.3828125 C-4 13 -4 13 -4 11 C-4.66 11 -5.32 11 -6 11 C-6.66 12.65 -7.32 14.3 -8 16 C-9 13 -9 13 -7.890625 10.625 C-7.34921875 9.75875 -6.8078125 8.8925 -6.25 8 C-5.71890625 7.13375 -5.1878125 6.2675 -4.640625 5.375 C-3.22329181 3.32324147 -1.8317222 1.67723961 0 0 Z " fill="#222222" transform="translate(77,129)"/>
<path d="M0 0 C0.66 0.33 1.32 0.66 2 1 C2.625 3.0625 2.625 3.0625 3 5 C2.01 5 1.02 5 0 5 C-0.19335938 5.85722656 -0.38671875 6.71445313 -0.5859375 7.59765625 C-1.91792493 13.44653174 -3.26380085 19.25718743 -5 25 C-5.99 25 -6.98 25 -8 25 C-6.07813928 16.32818942 -3.35448294 8.22047203 0 0 Z " fill="#3A3A3A" transform="translate(67,144)"/>
<path d="M0 0 C1.98 0 3.96 0 6 0 C8.70733176 5.87846936 9.31894821 12.87542784 7.32421875 19.11328125 C6.5 20.75 6.5 20.75 5 23 C4.34 22.67 3.68 22.34 3 22 C3.33 21.0925 3.66 20.185 4 19.25 C5.55521854 13.93816204 5.16196433 8.47979305 5 3 C2.525 2.01 2.525 2.01 0 1 C0 0.67 0 0.34 0 0 Z M1 22 C3 23 3 23 3 23 Z " fill="#393939" transform="translate(341,43)"/>
<path d="M0 0 C2 2 2 2 2.04907227 3.82788086 C1.29039597 9.48124291 0.23131296 15.00779064 -1.0625 20.5625 C-1.24876953 21.38041016 -1.43503906 22.19832031 -1.62695312 23.04101562 C-2.08020687 25.02835896 -2.53946212 27.01433201 -3 29 C-3.33 29 -3.66 29 -4 29 C-4.24856408 22.41305198 -3.31547023 16.44402648 -2 10 C-1.80921875 9.03449219 -1.6184375 8.06898438 -1.421875 7.07421875 C-0.95464658 4.71471522 -0.48056564 2.35681661 0 0 Z " fill="#303030" transform="translate(51,200)"/>
<path d="M0 0 C1.41377341 2.63904371 2.37240135 5.07120629 3 8 C3.66 7.34 4.32 6.68 5 6 C5 9.96 5 13.92 5 18 C4.34 18 3.68 18 3 18 C2.67 18.66 2.34 19.32 2 20 C1.46535565 17.79496964 0.94785565 15.58577828 0.4375 13.375 C0.14746094 12.14523438 -0.14257812 10.91546875 -0.44140625 9.6484375 C-0.99059728 6.06141357 -0.81517436 3.50902871 0 0 Z " fill="#474747" transform="translate(105,220)"/>
<path d="M0 0 C-0.6496875 0.7734375 -0.6496875 0.7734375 -1.3125 1.5625 C-3.40319031 4.582386 -4.62526065 7.5958835 -6 11 C-6.93423645 7.98968256 -7.04449911 7.13349732 -6 4 C-12.93 3.67 -19.86 3.34 -27 3 C-27 2.67 -27 2.34 -27 2 C-25.83082031 1.93941406 -24.66164063 1.87882813 -23.45703125 1.81640625 C-21.90884386 1.73195966 -20.36066732 1.64731375 -18.8125 1.5625 C-18.04357422 1.52318359 -17.27464844 1.48386719 -16.48242188 1.44335938 C-10.92989094 1.13356151 -5.54845346 -0.15852724 0 0 Z " fill="#161717" transform="translate(430,535)"/>
<path d="M0 0 C-3.19457351 1.88414642 -5.51502629 2.23819737 -9.203125 2.1953125 C-10.1828125 2.18886719 -11.1625 2.18242188 -12.171875 2.17578125 C-13.18765625 2.15902344 -14.2034375 2.14226563 -15.25 2.125 C-16.28125 2.11597656 -17.3125 2.10695313 -18.375 2.09765625 C-20.91690287 2.07412011 -23.4583328 2.04124023 -26 2 C-18.89974707 -2.73350195 -8.15046601 -1.1958923 0 0 Z " fill="#434344" transform="translate(314,528)"/>
<path d="M0 0 C0.33 0 0.66 0 1 0 C0.44093116 5.77449181 -1.18319184 10.54913959 -3.4375 15.875 C-3.90639648 17.03128906 -3.90639648 17.03128906 -4.38476562 18.2109375 C-6.7413233 23.87066165 -6.7413233 23.87066165 -9 25 C-8.40414792 19.2306386 -6.23012403 14.38338464 -3.9375 9.125 C-3.56044922 8.24585938 -3.18339844 7.36671875 -2.79492188 6.4609375 C-1.86913928 4.30468436 -0.93738089 2.15123021 0 0 Z " fill="#2C2C2C" transform="translate(407,157)"/>
<path d="M0 0 C3.83681717 7.0202026 5.95940608 15.16237568 4 23 C3.67 23 3.34 23 3 23 C2.29806544 20.29468997 1.61323543 17.58686232 0.9375 14.875 C0.73833984 14.11445313 0.53917969 13.35390625 0.33398438 12.5703125 C-0.78085522 8.03271975 -1.17773803 4.63688054 0 0 Z " fill="#4B4B4B" transform="translate(432,173)"/>
<path d="M0 0 C2.04718475 3.33262634 2.11814299 5.37228483 1.5390625 9.203125 C1.39726563 10.1828125 1.25546875 11.1625 1.109375 12.171875 C0.94953125 13.18765625 0.7896875 14.2034375 0.625 15.25 C0.47289062 16.28125 0.32078125 17.3125 0.1640625 18.375 C-0.21276221 20.91856682 -0.60115326 23.45980917 -1 26 C-3.26532011 22.60201983 -3.18353602 21.94721088 -2.75 18.0625 C-2.64300781 17.09828125 -2.53601562 16.1340625 -2.42578125 15.140625 C-1.73863926 10.07216483 -0.90485303 5.03379402 0 0 Z " fill="#3C3C3C" transform="translate(46,225)"/>
<path d="M0 0 C0.66 0.66 1.32 1.32 2 2 C1.72265625 5.09765625 1.72265625 5.09765625 1 9 C0.87737793 9.68304199 0.75475586 10.36608398 0.62841797 11.06982422 C0.24404012 13.19494772 -0.15689708 15.3163326 -0.5625 17.4375 C-0.77036133 18.53481445 -0.77036133 18.53481445 -0.98242188 19.65429688 C-1.3202181 21.43646318 -1.65990988 23.21827002 -2 25 C-4.42476881 21.36284679 -4.0515798 20.59163315 -3.25 16.4375 C-2.95222656 14.85001953 -2.95222656 14.85001953 -2.6484375 13.23046875 C-2.43445313 12.16441406 -2.22046875 11.09835938 -2 10 C-1.80664062 9.00613281 -1.61328125 8.01226562 -1.4140625 6.98828125 C-0.9549478 4.65611166 -0.48395855 2.32711982 0 0 Z " fill="#363636" transform="translate(385,217)"/>
<path d="M0 0 C0 0.33 0 0.66 0 1 C-3.76824722 1.56080149 -7.53976054 2.09533521 -11.3125 2.625 C-12.9202832 2.86476563 -12.9202832 2.86476563 -14.56054688 3.109375 C-16.10258789 3.32207031 -16.10258789 3.32207031 -17.67578125 3.5390625 C-18.62364502 3.67521973 -19.57150879 3.81137695 -20.5480957 3.95166016 C-23 4 -23 4 -26 2 C-8.85106383 -1.76595745 -8.85106383 -1.76595745 0 0 Z " fill="#404041" transform="translate(217,19)"/>
<path d="M0 0 C0.99 0.495 0.99 0.495 2 1 C2.66 3.64 3.32 6.28 4 9 C10.93 9.33 17.86 9.66 25 10 C25 10.33 25 10.66 25 11 C17.74 11 10.48 11 3 11 C0 4 0 4 0 0 Z " fill="#1D1D1E" transform="translate(69,551)"/>
<path d="M0 0 C0.33 0 0.66 0 1 0 C1.1979005 3.87454177 1.3814709 7.7496362 1.5625 11.625 C1.61857422 12.71941406 1.67464844 13.81382812 1.73242188 14.94140625 C1.78076172 16.00488281 1.82910156 17.06835938 1.87890625 18.1640625 C1.94960327 19.62513428 1.94960327 19.62513428 2.02172852 21.11572266 C1.99868166 24.17499807 1.57784025 26.9999001 1 30 C0.67 30 0.34 30 0 30 C-1.34862385 8.99082569 -1.34862385 8.99082569 0 0 Z " fill="#4F4F4F" transform="translate(39,445)"/>
<path d="M0 0 C0.33 0 0.66 0 1 0 C1.19697084 2.97880524 1.38277673 5.95764386 1.5625 8.9375 C1.61857422 9.76830078 1.67464844 10.59910156 1.73242188 11.45507812 C2.06275821 17.11484061 1.76547933 22.38081467 1 28 C0.67 28 0.34 28 0 28 C-0.19756803 24.27129547 -0.38128099 20.54203204 -0.5625 16.8125 C-0.61857422 15.75740234 -0.67464844 14.70230469 -0.73242188 13.61523438 C-0.78076172 12.59365234 -0.82910156 11.57207031 -0.87890625 10.51953125 C-0.94960327 9.11344604 -0.94960327 9.11344604 -1.02172852 7.67895508 C-0.99989432 4.98697068 -0.61586406 2.61483024 0 0 Z " fill="#4F4F4F" transform="translate(451,279)"/>
<path d="M0 0 C0.66 0.33 1.32 0.66 2 1 C1.67 1.66 1.34 2.32 1 3 C1.928125 2.484375 2.85625 1.96875 3.8125 1.4375 C7 0 7 0 10 1 C8.62714844 1.72316406 8.62714844 1.72316406 7.2265625 2.4609375 C6.0259405 3.09876794 4.8254252 3.73679926 3.625 4.375 C3.02171875 4.69210938 2.4184375 5.00921875 1.796875 5.3359375 C-0.78550382 6.7132062 -2.91830581 7.91830581 -5 10 C-5.33 9.34 -5.66 8.68 -6 8 C-2.25 2.25 -2.25 2.25 0 0 Z " fill="#1F1F1F" transform="translate(151,32)"/>
<path d="M0 0 C1.19882813 0.14501953 1.19882813 0.14501953 2.421875 0.29296875 C3.659375 0.46119141 3.659375 0.46119141 4.921875 0.6328125 C5.76234375 0.73722656 6.6028125 0.84164062 7.46875 0.94921875 C9.53784921 1.20785615 11.60507679 1.48138887 13.671875 1.7578125 C11.671875 3.7578125 11.671875 3.7578125 8.859375 4.0078125 C3.08181648 3.86030037 -2.64147215 2.71556456 -8.328125 1.7578125 C-5.30556834 -0.01629684 -3.46615303 -0.44564825 0 0 Z " fill="#414142" transform="translate(136.328125,561.2421875)"/>
<path d="M0 0 C0.99 0.495 0.99 0.495 2 1 C2.6729424 3.43089325 3.2153243 5.77980002 3.6875 8.25 C3.82994141 8.91902344 3.97238281 9.58804688 4.11914062 10.27734375 C4.88329507 14.14753891 5.09857333 17.19554472 4 21 C3.67 21 3.34 21 3 21 C2.49078672 18.81462633 1.99305563 16.62657569 1.5 14.4375 C1.2215625 13.21933594 0.943125 12.00117188 0.65625 10.74609375 C0.01362446 7.07777293 -0.11474823 3.71497397 0 0 Z " fill="#3A3A3A" transform="translate(436,193)"/>
<path d="M0 0 C1.54287594 0.32769047 3.08498293 0.65912666 4.625 1 C2.625 3 2.625 3 -0.01953125 3.01171875 C-1.58767578 2.85123047 -1.58767578 2.85123047 -3.1875 2.6875 C-4.74404297 2.53861328 -4.74404297 2.53861328 -6.33203125 2.38671875 C-9.0513901 2.04112629 -11.69691614 1.57917895 -14.375 1 C-9.5743153 -2.20045647 -5.43202463 -1.07564844 0 0 Z " fill="#444445" transform="translate(146.375,522)"/>
<path d="M0 0 C1.71948485 2.96948578 2.22039127 4.91452225 1.9765625 8.328125 C1.925 9.12734375 1.8734375 9.9265625 1.8203125 10.75 C1.75585938 11.575 1.69140625 12.4 1.625 13.25 C1.56828125 14.09046875 1.5115625 14.9309375 1.453125 15.796875 C1.31209668 17.86529042 1.15738212 19.9327646 1 22 C0.67 22 0.34 22 0 22 C-1.33257403 7.40318907 -1.33257403 7.40318907 0 0 Z " fill="#4A4A4A" transform="translate(39,275)"/>
<path d="M0 0 C0.66 0 1.32 0 2 0 C1.86722656 0.54527344 1.73445312 1.09054688 1.59765625 1.65234375 C0.32210753 7.09902987 -0.46963843 12.43120352 -1 18 C-3 16 -3 16 -3.3125 12.375 C-3.21983697 7.77554395 -1.80103851 4.20242319 0 0 Z " fill="#2B2B2B" transform="translate(144,41)"/>
<path d="M0 0 C0 0.33 0 0.66 0 1 C-6.40654045 2.28130809 -12.60624381 2.59843905 -19 1 C-19 0.67 -19 0.34 -19 0 C-12.42150508 -0.95494281 -6.58183362 -0.8931507 0 0 Z " fill="#4B4C4D" transform="translate(339,565)"/>
<path d="M0 0 C1.40668945 0.07734375 1.40668945 0.07734375 2.84179688 0.15625 C3.81826172 0.22070312 4.79472656 0.28515625 5.80078125 0.3515625 C6.78884766 0.40828125 7.77691406 0.465 8.79492188 0.5234375 C11.2351101 0.66489769 13.67426716 0.81630524 16.11328125 0.9765625 C16.11328125 1.3065625 16.11328125 1.6365625 16.11328125 1.9765625 C13.05109865 2.17189309 9.98881804 2.35809534 6.92578125 2.5390625 C5.62930664 2.62317383 5.62930664 2.62317383 4.30664062 2.70898438 C0.06579046 2.9527114 -3.74469694 3.13427046 -7.88671875 1.9765625 C-4.56667254 -0.23680164 -3.81260943 -0.23106724 0 0 Z " fill="#535456" transform="translate(393.88671875,559.0234375)"/>
<path d="M0 0 C0 0.66 0 1.32 0 2 C-6.66071488 4.13645572 -12.10163546 3.93838047 -19 3 C-19 2.67 -19 2.34 -19 2 C-16.58374679 1.66340751 -14.16707192 1.33061612 -11.75 1 C-10.72712891 0.85691406 -10.72712891 0.85691406 -9.68359375 0.7109375 C-6.40628012 0.2654774 -3.31615847 0 0 0 Z " fill="#404041" transform="translate(265,152)"/>
<path d="M0 0 C0.66 0 1.32 0 2 0 C0.46162154 3.19624262 -1.28866532 6.21605574 -3.125 9.25 C-3.66382813 10.14203125 -4.20265625 11.0340625 -4.7578125 11.953125 C-5.37269531 12.96632813 -5.37269531 12.96632813 -6 14 C-6.99 13.67 -7.98 13.34 -9 13 C-7.68889201 11.01989841 -6.37618664 9.04088963 -5.0625 7.0625 C-4.50272461 6.21655273 -4.50272461 6.21655273 -3.93164062 5.35351562 C-1.11328125 1.11328125 -1.11328125 1.11328125 0 0 Z " fill="#2A2A2A" transform="translate(336,87)"/>
<path d="M0 0 C-0.66 0.66 -1.32 1.32 -2 2 C-4.92991019 1.81870815 -7.72692113 1.53430659 -10.625 1.125 C-11.42679687 1.02058594 -12.22859375 0.91617187 -13.0546875 0.80859375 C-15.03777197 0.54890412 -17.01908028 0.27571688 -19 0 C-19 -0.33 -19 -0.66 -19 -1 C-12.77451803 -2.80739799 -6.20473771 -1.4010698 0 0 Z " fill="#444445" transform="translate(299,21)"/>
<path d="M0 0 C2.475 0.99 2.475 0.99 5 2 C4.67 3.98 4.34 5.96 4 8 C2.68 8 1.36 8 0 8 C0 5.36 0 2.72 0 0 Z " fill="#DFE2E8" transform="translate(367,553)"/>
<path d="M0 0 C3.62613199 0.56959153 5.25517741 1.92374534 7.75 4.5625 C8.36359375 5.20316406 8.9771875 5.84382813 9.609375 6.50390625 C10.06828125 6.99761719 10.5271875 7.49132813 11 8 C10.67 8.99 10.34 9.98 10 11 C7.69110584 9.84555292 6.6593357 8.59131281 5 6.625 C4.484375 6.01914062 3.96875 5.41328125 3.4375 4.7890625 C2 3 2 3 0 0 Z " fill="#303031" transform="translate(330,25)"/>
<path d="M0 0 C3.53586014 3.17320782 5.58578031 5.16743695 6 10 C4.8944811 9.06409496 3.79064547 8.12620142 2.6875 7.1875 C2.07261719 6.66542969 1.45773437 6.14335938 0.82421875 5.60546875 C-0.85424679 4.12827531 -2.43882034 2.59960869 -4 1 C-2.68 1.33 -1.36 1.66 0 2 C0 1.34 0 0.68 0 0 Z " fill="#191919" transform="translate(340,34)"/>
<path d="M0 0 C0.33 0 0.66 0 1 0 C1 2.97 1 5.94 1 9 C3.31 9.33 5.62 9.66 8 10 C8 10.33 8 10.66 8 11 C1.84765625 11.09765625 1.84765625 11.09765625 0 11 C-0.33 10.67 -0.66 10.34 -1 10 C-0.91036938 8.30858344 -0.75422324 6.62040398 -0.5625 4.9375 C-0.46066406 4.01839844 -0.35882813 3.09929688 -0.25390625 2.15234375 C-0.17011719 1.44207031 -0.08632812 0.73179687 0 0 Z " fill="#353636" transform="translate(124,551)"/>
<path d="M0 0 C-3.64823039 2.33486745 -6.74410043 2.30399283 -11 2 C-13.4375 1 -13.4375 1 -15 0 C-9.65370398 -1.0024305 -5.37625234 -0.84888195 0 0 Z " fill="#515153" transform="translate(352,523)"/>
<path d="M0 0 C3.7602985 0.58107632 6.53035032 1.65199496 9.8125 3.5625 C10.60269531 4.01753906 11.39289063 4.47257812 12.20703125 4.94140625 C12.79871094 5.29074219 13.39039063 5.64007813 14 6 C13.34 6.66 12.68 7.32 12 8 C9.99743426 6.85865673 7.99800203 5.71181367 6 4.5625 C4.88625 3.92441406 3.7725 3.28632812 2.625 2.62890625 C1.75875 2.09136719 0.8925 1.55382812 0 1 C0 0.67 0 0.34 0 0 Z " fill="#252525" transform="translate(362,95)"/>
<path d="M0 0 C0.33 0 0.66 0 1 0 C1.1953125 2.01822917 1.390625 4.03645833 1.5859375 6.0546875 C1.86374749 8.22668245 1.86374749 8.22668245 4 10 C3.01 10.495 3.01 10.495 2 11 C1.34 10.67 0.68 10.34 0 10 C0 11.65 0 13.3 0 15 C-0.33 15 -0.66 15 -1 15 C-1.02715383 13.25008666 -1.04646551 11.50005055 -1.0625 9.75 C-1.07410156 8.77546875 -1.08570313 7.8009375 -1.09765625 6.796875 C-1.01195577 4.34241322 -0.70706066 2.33831086 0 0 Z " fill="#151617" transform="translate(367,543)"/>
<path d="M0 0 C0.33 0 0.66 0 1 0 C1.66 3.96 2.32 7.92 3 12 C2.01 12.495 2.01 12.495 1 13 C-0.97387813 8.23947038 -1.0070238 5.03511899 0 0 Z " fill="#484848" transform="translate(45,501)"/>
<path d="M0 0 C0.33 0 0.66 0 1 0 C2.33257403 11.52164009 2.33257403 11.52164009 1 17 C0.67 17 0.34 17 0 17 C-0.19493195 14.72979256 -0.38070418 12.45879711 -0.5625 10.1875 C-0.66691406 8.92292969 -0.77132813 7.65835938 -0.87890625 6.35546875 C-1 3 -1 3 0 0 Z " fill="#4E4E4E" transform="translate(446,241)"/>
<path d="M0 0 C1.32 0.33 2.64 0.66 4 1 C4 3.31 4 5.62 4 8 C3.67 7.34 3.34 6.68 3 6 C2.01 6 1.02 6 0 6 C0 4.02 0 2.04 0 0 Z " fill="#EDEEF4" transform="translate(372,518)"/>
<path d="M0 0 C4.2742558 1.5830577 6.26531794 4.50568404 9 8 C6 8 6 8 4.39453125 6.7578125 C3.87246094 6.21898437 3.35039062 5.68015625 2.8125 5.125 C2.28269531 4.59132813 1.75289063 4.05765625 1.20703125 3.5078125 C0 2 0 2 0 0 Z " fill="#313131" transform="translate(406,123)"/>
<path d="M0 0 C0.66 0 1.32 0 2 0 C0.43358249 4.30764815 -1.68336156 8.06171464 -4 12 C-5 9 -5 9 -4.00390625 6.73828125 C-3.52824219 5.93777344 -3.05257813 5.13726562 -2.5625 4.3125 C-2.08941406 3.50425781 -1.61632812 2.69601563 -1.12890625 1.86328125 C-0.75636719 1.24839844 -0.38382812 0.63351563 0 0 Z " fill="#232323" transform="translate(320,78)"/>
<path d="M0 0 C4.59306496 1.4859916 7.43569245 3.85014682 11 7 C10.34 7.66 9.68 8.32 9 9 C7.49704815 7.69088122 5.99770689 6.37761608 4.5 5.0625 C3.6646875 4.33160156 2.829375 3.60070312 1.96875 2.84765625 C1.3190625 2.23792969 0.669375 1.62820312 0 1 C0 0.67 0 0.34 0 0 Z " fill="#202021" transform="translate(188,131)"/>
<path d="M0 0 C0.66 0.33 1.32 0.66 2 1 C0.515 2.485 0.515 2.485 -1 4 C-0.67 4.66 -0.34 5.32 0 6 C-3.465 7.485 -3.465 7.485 -7 9 C-5.44499019 5.18315774 -2.96404505 2.80804268 0 0 Z " fill="#C7C8CF" transform="translate(158,27)"/>
<path d="M0 0 C2.95183101 2.95183101 3.08663988 5.95511947 4 10 C3.01 10.495 3.01 10.495 2 11 C1.01 7.7 0.02 4.4 -1 1 C-0.67 0.67 -0.34 0.34 0 0 Z " fill="#373737" transform="translate(92,180)"/>
<path d="M0 0 C-2.3129482 2.3129482 -3.47904875 2.49580975 -6.625 3.125 C-7.44226563 3.29257813 -8.25953125 3.46015625 -9.1015625 3.6328125 C-10.04128906 3.81457031 -10.04128906 3.81457031 -11 4 C-11 3.34 -11 2.68 -11 2 C-9.73392393 1.46770674 -8.46189588 0.94955456 -7.1875 0.4375 C-6.47980469 0.14746094 -5.77210938 -0.14257812 -5.04296875 -0.44140625 C-3 -1 -3 -1 0 0 Z " fill="#303031" transform="translate(276,149)"/>
<path d="M0 0 C0.6875 1.6875 0.6875 1.6875 1 4 C-0.67292823 7.69805188 -2.18712958 9.55373881 -6 11 C-4.54955729 6.89041233 -2.48889248 3.56741255 0 0 Z " fill="#CACBD2" transform="translate(334,93)"/>
<path d="M0 0 C3.3 0.99 6.6 1.98 10 3 C10 3.33 10 3.66 10 4 C8.54077307 3.88590407 7.08259402 3.75834456 5.625 3.625 C4.40683594 3.52058594 4.40683594 3.52058594 3.1640625 3.4140625 C1 3 1 3 -1 1 C-0.67 0.67 -0.34 0.34 0 0 Z " fill="#2C2C2E" transform="translate(377,531)"/>
<path d="M0 0 C0.66 0.99 1.32 1.98 2 3 C1.125 6.6875 1.125 6.6875 0 10 C-0.66 9.67 -1.32 9.34 -2 9 C-1.34 6.03 -0.68 3.06 0 0 Z " fill="#424242" transform="translate(391,197)"/>
<path d="M0 0 C2.97 0.99 5.94 1.98 9 3 C8.67 3.66 8.34 4.32 8 5 C5.03 4.01 2.06 3.02 -1 2 C-0.67 1.34 -0.34 0.68 0 0 Z " fill="#2F2F30" transform="translate(213,147)"/>
<path d="M0 0 C3.99455527 0.61454696 6.74466336 2.70646737 10 5 C9.01 5.33 8.02 5.66 7 6 C5.17578125 5.0390625 5.17578125 5.0390625 3.3125 3.625 C2.68988281 3.16351563 2.06726563 2.70203125 1.42578125 2.2265625 C0.95527344 1.82179688 0.48476563 1.41703125 0 1 C0 0.67 0 0.34 0 0 Z " fill="#222222" transform="translate(386,109)"/>
<path d="M0 0 C0.99 0.33 1.98 0.66 3 1 C1.71475739 1.86380259 0.42157581 2.71580369 -0.875 3.5625 C-1.59429687 4.03816406 -2.31359375 4.51382813 -3.0546875 5.00390625 C-3.69664063 5.33261719 -4.33859375 5.66132812 -5 6 C-5.66 5.67 -6.32 5.34 -7 5 C-5.90554162 4.13342884 -4.79902219 3.28207276 -3.6875 2.4375 C-3.07261719 1.96183594 -2.45773438 1.48617187 -1.82421875 0.99609375 C-1.22222656 0.66738281 -0.62023437 0.33867188 0 0 Z " fill="#212121" transform="translate(108,105)"/>
<path d="M0 0 C-2.59482129 2.59482129 -4.39883625 2.69990302 -8 3 C-8.66 2.34 -9.32 1.68 -10 1 C-3.71428571 -1.42857143 -3.71428571 -1.42857143 0 0 Z " fill="#414142" transform="translate(185,16)"/>
<path d="M0 0 C0.66 0.33 1.32 0.66 2 1 C1.67 1.33 1.34 1.66 1 2 C1.66 2.66 2.32 3.32 3 4 C1.02 4.99 -0.96 5.98 -3 7 C-1.125 1.125 -1.125 1.125 0 0 Z " fill="#BCBCBC" transform="translate(148,39)"/>
<path d="M0 0 C0 0.33 0 0.66 0 1 C-7.625 2.25 -7.625 2.25 -11 0 C-7.18243176 -1.37432457 -3.92744671 -0.67975039 0 0 Z " fill="#4F4F50" transform="translate(203,12)"/>
<path d="M0 0 C1.9451 2.91765 2.45276317 4.62537285 3 8 C2.01 8.495 2.01 8.495 1 9 C-0.61949011 6.42786866 -1.04408751 5.32330841 -0.625 2.25 C-0.41875 1.5075 -0.2125 0.765 0 0 Z " fill="#424243" transform="translate(67,543)"/>
<path d="M0 0 C2.475 0.495 2.475 0.495 5 1 C4.34 2.98 3.68 4.96 3 7 C2.01 6.34 1.02 5.68 0 5 C-0.1875 2.375 -0.1875 2.375 0 0 Z " fill="#464647" transform="translate(118,517)"/>
<path d="M0 0 C3.63 0.33 7.26 0.66 11 1 C11 1.33 11 1.66 11 2 C5.06 2.495 5.06 2.495 -1 3 C-0.67 2.01 -0.34 1.02 0 0 Z " fill="#0B0B0B" transform="translate(142,86)"/>
<path d="M0 0 C0.66 0 1.32 0 2 0 C1.34 2.97 0.68 5.94 0 9 C-2 5 -2 5 -1.125 2.25 C-0.75375 1.5075 -0.3825 0.765 0 0 Z " fill="#363636" transform="translate(144,41)"/>
</svg>
