<svg width="504" height="504" viewBox="0 0 504 504" fill="none" xmlns="http://www.w3.org/2000/svg">
<rect width="504" height="504" fill="white"/>
<path d="M338.308 92C366.808 92 382.308 107.5 389.308 117.5C423.808 182 432.808 407.5 426.808 440L422.308 449L421.308 478C412.308 481 390.308 480.5 382.308 476.5L382.808 448.5C374.808 443.5 357.308 327 356.308 318C355.308 309 352.808 225 352.808 225C354.974 311.951 356.771 362.524 350.808 424V453C316.808 458.5 183.808 458 151.308 454.5V424C151.308 424 143.308 412 143.308 401.5C143.308 391 151.308 215 151.308 215C151.308 215 145.308 277 143.308 303.5C141.308 330 129.308 436 118.808 443.5C118.808 453 118.808 474 118.808 474C103.648 475.707 90.8082 476.5 79.8082 474V447C79.8082 447 73.3082 442 72.8082 420.5C72.3082 399 77.8082 279.5 79.8082 253C81.8082 226.5 99.3082 140 104.308 126.5C109.308 113 123.308 104.5 130.808 102C138.308 99.5 167.808 88.5 167.808 88.5" stroke="black"/>
<path d="M338.417 92.2038C338.417 91.6075 338.452 91.0178 338.786 90.4984C339.111 89.9928 339.621 89.6781 339.886 89.1321C340.232 88.4168 340.361 87.6239 340.636 86.8823C341.254 85.2084 339.355 83.5252 338.149 82.6498C336.925 81.7607 335.849 80.683 334.636 79.7733C334.106 79.3759 332.25 78.2285 332.129 77.5954C331.924 76.5172 332.444 75.4959 332.499 74.4519C332.628 72.0151 333.486 70.4337 332.397 68.062C331.889 66.9568 332.3 64.7685 332.314 63.5829C332.343 61.2621 333.054 59.0397 333.054 56.7C333.054 54.6721 332.886 52.7355 332.499 50.7416C332.244 49.4256 331.685 48.2691 331.215 47.0227C330.818 45.9694 330.109 45.1589 329.417 44.2695C327.222 41.4445 325.044 38.6044 322.843 35.7839C320.771 33.13 317.519 31.7006 314.747 29.8872C312.174 28.2034 309.28 27.1557 306.262 26.5998C302.39 25.8865 298.771 24.3958 294.879 23.785C288.191 22.7352 281.651 20.8263 274.847 20.8263C272.457 20.8263 270.149 21.2353 267.779 21.453C264.688 21.7368 261.53 21.566 258.43 21.566C250.237 21.566 242.048 21.4107 233.857 21.3811C228.229 21.3607 222.629 21.2699 217.03 21.8947C211.974 22.4589 207.171 23.7061 202.216 24.8534C198.023 25.8241 194.679 27.2242 190.998 29.4146C187.697 31.3785 184.273 33.3285 181.135 35.5374C179.792 36.483 178.21 37.2163 177.078 38.4241C175.991 39.5835 175.177 40.9189 174.335 42.256C173.07 44.2635 171.929 46.5233 171.438 48.8513C170.907 51.3642 170.633 53.607 170.698 56.1863C170.767 58.9404 171.766 61.6208 171.766 64.3637C171.766 65.2975 171.174 66.1623 170.78 66.9731C170.025 68.5274 169.065 70.2936 169.034 72.048C169.007 73.5778 169.647 75.2921 169.363 76.7736C169.161 77.823 167.239 78.6723 166.63 79.6295C165.841 80.8695 165.685 82.7299 165.705 84.1702C165.724 85.5187 166.472 87.1296 167.596 87.9507C167.867 88.1493 168.189 88.3135 168.376 88.6082C168.546 88.875 168.384 89.1049 168.664 89.2451" stroke="black" stroke-linecap="round"/>
<path d="M420.869 448.173C413.409 448.173 406.018 449.143 398.547 449.143C395.614 449.143 392.807 448.873 389.903 448.631C388.634 448.525 387.833 447.689 386.456 447.689" stroke="black" stroke-linecap="round"/>
<path d="M114.543 443.326C110.181 444.178 105.61 443.927 101.187 444.511C97.7552 444.964 94.2469 444.781 90.7929 444.781C86.0359 444.781 82.2826 443.338 77.7062 442.357" stroke="black" stroke-linecap="round"/>
<path d="M170.324 90.4975C171.099 90.575 171.791 90.924 172.518 91.1868C175.102 92.1215 177.76 92.8859 180.413 93.5993C196.53 97.9332 213.577 99.3088 230.167 100.335C241.288 101.024 252.49 100.783 263.628 101.072C270.766 101.257 277.827 101.358 284.964 101.228C297.433 101.002 309.944 101.239 322.374 100.116C326.092 99.7803 328.659 99.4183 331.773 97.2024C333.572 95.9221 335.929 94.805 337.256 93.0353" stroke="black" stroke-linecap="round"/>
<path d="M173.426 80.0643C177.474 82.2329 181.333 84.5679 185.771 85.9389C191.122 87.5922 196.897 88.6232 202.47 89.0877" stroke="black" stroke-linecap="round"/>
<path d="M328.514 78.9364C326.972 79.3221 325.546 80.33 324.081 80.9259C320.288 82.4691 316.21 83.3468 312.222 84.2313C308.908 84.9666 305.554 85.4649 302.196 85.9545C301.341 86.0794 300.173 86.454 299.471 85.9859" stroke="black" stroke-linecap="round"/>
<path d="M197.112 73.0149C200.163 74.5926 203.53 75.5291 206.794 76.5553C213.207 78.5718 219.626 80.1927 226.282 81.1766C232.263 82.0608 238.295 82.7061 244.328 83.1034C247.722 83.3269 251.302 83.679 254.636 83.1661" stroke="black" stroke-linecap="round"/>
<path d="M347.276 422.773C345.73 423.506 344.06 423.984 342.341 423.871C334.254 423.339 326.156 423.285 318.056 422.977C305.042 422.482 292.047 422.035 279.024 422.366C273.239 422.513 267.471 422.583 261.686 422.332C255.566 422.067 249.47 421.501 243.342 421.393C232.124 421.195 220.833 421.12 209.618 421.483C198.182 421.853 186.788 422.972 175.351 423.385C170.88 423.546 166.41 423.721 161.94 423.894C161.209 423.922 156.803 424.585 156.406 423.792" stroke="black" stroke-linecap="round"/>
<path d="M237.526 488V479.273H240.577C241.185 479.273 241.686 479.378 242.081 479.588C242.476 479.795 242.77 480.075 242.963 480.428C243.156 480.777 243.253 481.165 243.253 481.591C243.253 481.966 243.186 482.276 243.053 482.52C242.922 482.764 242.749 482.957 242.533 483.099C242.32 483.241 242.088 483.347 241.838 483.415V483.5C242.105 483.517 242.374 483.611 242.643 483.781C242.913 483.952 243.139 484.196 243.321 484.514C243.503 484.832 243.594 485.222 243.594 485.682C243.594 486.119 243.494 486.513 243.295 486.862C243.097 487.212 242.783 487.489 242.354 487.693C241.925 487.898 241.366 488 240.679 488H237.526ZM238.582 487.062H240.679C241.369 487.062 241.859 486.929 242.149 486.662C242.442 486.392 242.588 486.065 242.588 485.682C242.588 485.386 242.513 485.114 242.362 484.864C242.212 484.611 241.997 484.409 241.719 484.259C241.44 484.105 241.111 484.028 240.73 484.028H238.582V487.062ZM238.582 483.108H240.543C240.861 483.108 241.148 483.045 241.403 482.92C241.662 482.795 241.866 482.619 242.017 482.392C242.17 482.165 242.247 481.898 242.247 481.591C242.247 481.207 242.114 480.882 241.847 480.615C241.58 480.345 241.156 480.21 240.577 480.21H238.582V483.108ZM245.688 488H244.58L247.785 479.273H248.876L252.08 488H250.972L248.364 480.653H248.296L245.688 488ZM246.097 484.591H250.563V485.528H246.097V484.591ZM260.052 482H258.995C258.933 481.696 258.824 481.429 258.667 481.199C258.514 480.969 258.326 480.776 258.105 480.619C257.886 480.46 257.643 480.341 257.376 480.261C257.109 480.182 256.831 480.142 256.541 480.142C256.012 480.142 255.534 480.276 255.105 480.543C254.679 480.81 254.339 481.203 254.086 481.723C253.836 482.243 253.711 482.881 253.711 483.636C253.711 484.392 253.836 485.03 254.086 485.55C254.339 486.07 254.679 486.463 255.105 486.73C255.534 486.997 256.012 487.131 256.541 487.131C256.831 487.131 257.109 487.091 257.376 487.011C257.643 486.932 257.886 486.814 258.105 486.658C258.326 486.499 258.514 486.304 258.667 486.074C258.824 485.841 258.933 485.574 258.995 485.273H260.052C259.973 485.719 259.828 486.118 259.618 486.47C259.407 486.822 259.146 487.122 258.833 487.369C258.521 487.614 258.17 487.8 257.781 487.928C257.395 488.055 256.981 488.119 256.541 488.119C255.797 488.119 255.135 487.938 254.555 487.574C253.975 487.21 253.52 486.693 253.187 486.023C252.855 485.352 252.689 484.557 252.689 483.636C252.689 482.716 252.855 481.92 253.187 481.25C253.52 480.58 253.975 480.062 254.555 479.699C255.135 479.335 255.797 479.153 256.541 479.153C256.981 479.153 257.395 479.217 257.781 479.345C258.17 479.473 258.521 479.661 258.833 479.908C259.146 480.152 259.407 480.45 259.618 480.803C259.828 481.152 259.973 481.551 260.052 482ZM261.76 488V479.273H262.817V483.602H262.919L266.839 479.273H268.22L264.555 483.21L268.22 488H266.942L263.908 483.943L262.817 485.17V488H261.76Z" fill="black"/>
</svg>
