<?xml version="1.0" encoding="UTF-8"?>
<svg version="1.1" xmlns="http://www.w3.org/2000/svg" width="690" height="620">
<path d="M0 0 C227.7 0 455.4 0 690 0 C690 204.6 690 409.2 690 620 C462.3 620 234.6 620 0 620 C0 415.4 0 210.8 0 0 Z " fill="#FEFEFE" transform="translate(0,0)"/>
<path d="M0 0 C227.7 0 455.4 0 690 0 C690 204.6 690 409.2 690 620 C462.3 620 234.6 620 0 620 C0 415.4 0 210.8 0 0 Z M414.375 68.75 C406.50842806 72.47257422 398.5036356 74.3185951 390 76 C388.78352783 76.26707764 388.78352783 76.26707764 387.54248047 76.53955078 C379.81185505 78.13236423 372.25361267 78.38583783 364.375 78.375 C363.70346893 78.37445618 363.03193787 78.37391235 362.34005737 78.37335205 C344.37317067 78.30703106 326.83542553 76.38569132 310.20703125 69.26953125 C304.56067632 66.95424151 304.56067632 66.95424151 298.7890625 67.93359375 C298.07492187 68.42988281 297.36078125 68.92617187 296.625 69.4375 C278.05676356 81.42948603 256.59475784 89.59817215 236.0625 97.5625 C235.20791199 97.897052 234.35332397 98.231604 233.47283936 98.57629395 C223.0533272 102.65315168 212.5880879 106.53890011 202.00390625 110.16796875 C200.51139091 110.68327904 200.51139091 110.68327904 198.98872375 111.20899963 C194.19906205 112.86099842 189.40379458 114.48803554 184.59008789 116.06860352 C172.58049605 120.11403513 162.45311473 125.52602425 151.98730469 132.65283203 C149.39687192 134.40885267 146.75600801 136.0786531 144.10546875 137.7421875 C142.4659226 138.78610781 140.82659623 139.83037339 139.1875 140.875 C137.32293005 142.06252102 135.45834632 143.25002039 133.59375 144.4375 C132.20349609 145.32308594 132.20349609 145.32308594 130.78515625 146.2265625 C128.05542684 147.96470718 125.32476815 149.70138106 122.59375 151.4375 C112.82253926 157.64991805 103.06194553 163.8784736 93.3125 170.125 C77.60543547 180.1856083 61.82851735 190.13173815 46 200 C46.70727629 203.76323294 48.34336468 206.7820034 50.140625 210.14453125 C50.4588472 210.74195633 50.7770694 211.33938141 51.10493469 211.95491028 C52.14851502 213.91003778 53.19895466 215.86137674 54.25 217.8125 C54.98175889 219.17818545 55.71344764 220.54390849 56.44506836 221.90966797 C61.21968169 230.80047673 66.12619877 239.60893318 71.1315918 248.37207031 C75.39968033 255.86962008 79.50315841 263.45057618 83.5625 271.0625 C83.88034454 271.65837921 84.19818909 272.25425842 84.52566528 272.86819458 C85.47683546 274.65166515 86.42789201 276.43519627 87.37890625 278.21875 C98.61905628 299.2973581 110.08341149 320.29492746 122 341 C124.39845816 340.13175199 126.79353348 339.25548906 129.1875 338.375 C130.16879883 338.02115234 130.16879883 338.02115234 131.16992188 337.66015625 C135.81689527 335.94231774 140.30453129 333.96901632 144.7980957 331.88134766 C146.5433831 331.0717308 146.5433831 331.0717308 148.32392883 330.24575806 C149.20703232 329.8346579 150.0901358 329.42355774 151 329 C150.9845388 329.83239165 150.96907761 330.66478331 150.95314789 331.52239895 C150.56904119 352.23007013 150.19356223 372.9378841 149.82654572 393.64586544 C149.64883786 403.66201607 149.46869201 413.67810912 149.28173828 423.6940918 C149.11789548 432.47230932 148.95970945 441.25061165 148.80709887 450.02903181 C148.72689044 454.63322548 148.64469217 459.23735217 148.55558777 463.84138298 C147.77874692 504.5671739 148 545.25404025 148 586 C289.9 586 431.8 586 578 586 C578.06943759 561.63750658 578.06943759 561.63750658 577.54711914 537.3112793 C577.45033863 534.35798704 577.35924253 531.40453497 577.26956177 528.45101929 C577.23481452 527.31322945 577.23481452 527.31322945 577.19936532 526.15245396 C576.91739309 516.63171888 576.76318536 507.10875258 576.61108398 497.58520508 C576.58861782 496.18257937 576.58861782 496.18257937 576.56569779 494.75161779 C576.47211314 488.86267933 576.38202981 482.97369073 576.29281878 477.08468461 C576.21306905 471.85311734 576.13067589 466.62159161 576.04859924 461.39006042 C575.89453464 451.54561459 575.74274373 441.70113515 575.59183317 431.85664052 C575.41950679 420.62264054 575.24454903 409.38868199 575.06940353 398.15472567 C574.71007073 375.10319442 574.35393423 352.05161473 574 329 C574.80219971 329.36351562 575.60439941 329.72703125 576.4309082 330.1015625 C579.40890672 331.44784307 582.38907112 332.7890777 585.37084961 334.12695312 C586.66081696 334.70697617 587.94988891 335.28899489 589.23803711 335.87304688 C591.08996398 336.71230159 592.94499439 337.54432208 594.80078125 338.375 C595.91622314 338.87773437 597.03166504 339.38046875 598.1809082 339.8984375 C600.96126416 341.18197611 600.96126416 341.18197611 604 341 C604.41660889 340.21165771 604.83321777 339.42331543 605.26245117 338.61108398 C612.85666845 324.25881513 620.5046294 309.95642934 628.55541992 295.85327148 C632.01184523 289.78714537 635.32811969 283.66637197 638.55517578 277.47583008 C641.67353509 271.53123767 644.98475376 265.70440091 648.3125 259.875 C653.23522115 251.2430657 657.90527206 242.51114382 662.45336914 233.67700195 C668.00485982 222.95150351 673.98622966 212.47139708 680 202 C677.56055204 199.45252223 675.22562103 197.33109324 672.2265625 195.4765625 C671.49614746 195.02055664 670.76573242 194.56455078 670.01318359 194.09472656 C669.22508301 193.6097168 668.43698242 193.12470703 667.625 192.625 C665.90074339 191.54995742 664.17679706 190.47441706 662.453125 189.3984375 C661.55529297 188.83995117 660.65746094 188.28146484 659.73242188 187.70605469 C655.26232897 184.91504243 650.81883191 182.08257098 646.375 179.25 C645.46508301 178.67072754 644.55516602 178.09145508 643.61767578 177.49462891 C635.51356308 172.333374 627.42230172 167.15209337 619.33105469 161.97070312 C604.87295569 152.71429391 590.39650253 143.48671802 575.86572266 134.34472656 C575.16753418 133.90483398 574.4693457 133.46494141 573.75 133.01171875 C573.01362305 132.5525708 572.27724609 132.09342285 571.51855469 131.62036133 C569.61893113 130.39820142 567.7492962 129.12924813 565.89550781 127.83862305 C557.92137795 122.34723121 550.20785481 118.90282272 540.95993042 116.1081543 C537.02576395 114.91424085 533.11743009 113.64030441 529.20703125 112.37109375 C528.3834462 112.10485199 527.55986115 111.83861023 526.71131897 111.56430054 C448.55671611 86.06374202 448.55671611 86.06374202 424.90795898 67.34399414 C420.99722412 64.58921545 418.18669089 66.80073023 414.375 68.75 Z " fill="#FEFEFE" transform="translate(0,0)"/>
<path d="M0 0 C3.03243753 1.37416385 5.86832397 3.04744324 8.73046875 4.73828125 C38.20884282 21.58793712 70.24682757 33.15856635 102.10546875 44.61328125 C103.32378387 45.05169342 103.32378387 45.05169342 104.56671143 45.4989624 C106.90233135 46.33698286 109.23960066 47.17012121 111.578125 48 C112.31395309 48.26168472 113.04978119 48.52336945 113.8079071 48.79298401 C118.1568029 50.32069736 122.52223768 51.64257467 126.96484375 52.87890625 C133.50461762 54.85123526 138.65686175 58.10846027 144.23046875 61.98828125 C146.24597855 63.34715659 148.26291995 64.70391085 150.28125 66.05859375 C151.26174316 66.72149414 152.24223633 67.38439453 153.25244141 68.06738281 C157.07495885 70.61305235 160.97984824 73.0019517 164.91796875 75.36328125 C175.38726638 81.6808581 185.64793844 88.32121023 195.93408203 94.93115234 C200.69160349 97.9835279 205.46038886 101.01808237 210.23046875 104.05078125 C211.12096924 104.61740479 212.01146973 105.18402832 212.92895508 105.76782227 C217.54221761 108.702622 222.15825947 111.63296522 226.77734375 114.55859375 C237.28751345 121.22144229 247.72435762 127.97000001 258.04296875 134.92578125 C257.56915771 135.81209229 257.09534668 136.69840332 256.60717773 137.61157227 C252.93437589 144.48719879 249.27536784 151.36979696 245.640625 158.265625 C244.88739332 159.69337179 244.13413791 161.12110606 243.38085938 162.54882812 C242.24379235 164.70410584 241.10735171 166.85970163 239.97290039 169.01635742 C235.14017665 178.20093167 230.18697001 187.30200027 225.07250977 196.33276367 C222.48814402 200.89724047 219.97888388 205.50132071 217.48046875 210.11328125 C213.0621075 218.24271811 208.60652513 226.35098921 204.12966919 234.44830322 C196.69216007 247.90057458 189.33637285 261.39469709 182.04296875 274.92578125 C178.07823112 274.28569108 174.74852735 273.05595355 171.0859375 271.421875 C169.97412109 270.92880859 168.86230469 270.43574219 167.71679688 269.92773438 C166.56630859 269.41146484 165.41582031 268.89519531 164.23046875 268.36328125 C163.06064453 267.84314453 161.89082031 267.32300781 160.68554688 266.78710938 C157.80264032 265.50451013 154.92190644 264.21725842 152.04296875 262.92578125 C152.4140515 287.09427338 152.78780797 311.26272294 153.16461086 335.43112659 C153.33956945 346.65694659 153.51370484 357.88277815 153.68579102 369.10864258 C153.83606188 378.91126313 153.98799051 388.71385647 154.14178139 398.51642245 C154.22289848 403.69026593 154.30327307 408.86411816 154.38165092 414.03800392 C154.47000921 419.86237106 154.56076379 425.68669606 154.65405273 431.51098633 C154.6688637 432.4383474 154.68367466 433.36570848 154.69893444 434.3211714 C154.85090864 443.67475964 155.02697145 453.0262397 155.31253052 462.37680054 C155.33554255 463.13467108 155.35855459 463.89254162 155.38226396 464.67337793 C155.48805923 468.10273821 155.60081568 471.53150649 155.72573757 474.96024036 C156.22369805 489.96305859 156.04296875 504.88334556 156.04296875 519.92578125 C14.14296875 519.92578125 -127.75703125 519.92578125 -273.95703125 519.92578125 C-273.95703125 426.47442423 -273.95703125 426.47442423 -273.35124397 395.173352 C-273.26170033 390.45734491 -273.18098797 385.74118306 -273.09899902 381.02503967 C-272.94530325 372.25155131 -272.78464195 363.47820793 -272.62088346 354.70490223 C-272.43358975 344.65011546 -272.25496664 334.59517902 -272.07675838 324.54022777 C-271.71257073 304.00191041 -271.33851286 283.46378426 -270.95703125 262.92578125 C-271.84897186 263.33982712 -272.74091248 263.75387299 -273.65988159 264.1804657 C-274.83027985 264.72250137 -276.0006781 265.26453705 -277.20654297 265.82299805 C-278.36660858 266.36079391 -279.52667419 266.89858978 -280.72189331 267.4526825 C-284.14387719 269.01086032 -287.56225456 270.41946768 -291.08203125 271.73828125 C-292.13648438 272.13660156 -293.1909375 272.53492188 -294.27734375 272.9453125 C-296.16028641 273.63426091 -298.05489806 274.29173685 -299.95703125 274.92578125 C-307.50563729 261.28544576 -315.05303409 247.64533274 -322.45703125 233.92578125 C-327.57579991 224.44130969 -332.76757536 214.99857388 -337.98477173 205.5680542 C-342.58387962 197.25340209 -347.13765224 188.91588437 -351.64453125 180.55078125 C-356.99616005 170.62450702 -362.50613225 160.79398402 -368.08203125 150.9921875 C-368.5615625 150.14543457 -369.04109375 149.29868164 -369.53515625 148.42626953 C-370.49544896 146.73751301 -371.46443782 145.0536762 -372.44140625 143.37451172 C-372.9003125 142.5754541 -373.35921875 141.77639648 -373.83203125 140.953125 C-374.24195313 140.24792725 -374.651875 139.54272949 -375.07421875 138.81616211 C-375.95703125 136.92578125 -375.95703125 136.92578125 -375.95703125 133.92578125 C-374.57446289 132.75 -374.57446289 132.75 -372.6171875 131.61328125 C-371.89305664 131.18362061 -371.16892578 130.75395996 -370.42285156 130.3112793 C-369.62975586 129.85406494 -368.83666016 129.39685059 -368.01953125 128.92578125 C-366.34780044 127.93424127 -364.67725276 126.9407042 -363.0078125 125.9453125 C-362.15783691 125.44080566 -361.30786133 124.93629883 -360.43212891 124.41650391 C-356.80281225 122.23060851 -353.25219923 119.93237811 -349.70703125 117.61328125 C-343.31565526 113.44778734 -336.89700435 109.32827128 -330.45703125 105.23828125 C-322.44709313 100.14954031 -314.44788468 95.0444401 -306.45703125 89.92578125 C-298.50461868 84.83312438 -290.54828112 79.74677042 -282.58203125 74.67578125 C-281.78861328 74.17046875 -280.99519531 73.66515625 -280.17773438 73.14453125 C-278.48403423 72.06709308 -276.78548085 70.99726218 -275.08325195 69.93334961 C-272.67557724 68.38721066 -270.32627351 66.8012872 -267.97729492 65.17016602 C-256.12974233 57.1071951 -244.01305461 52.10089846 -230.47155762 47.52905273 C-225.75365402 45.93578637 -221.05504051 44.28877676 -216.35440063 42.64541626 C-214.03777565 41.83621922 -211.72022175 41.0296762 -209.40170288 40.22592163 C-164.47604507 24.82887579 -164.47604507 24.82887579 -123.16796875 1.859375 C-119.08027256 0.13329834 -115.71243731 1.62674718 -111.75 3.1953125 C-109.96529297 3.95908203 -109.96529297 3.95908203 -108.14453125 4.73828125 C-77.5542122 16.70573696 -38.10793377 15.83603347 -7.95703125 2.92578125 C-6.40822266 2.07693359 -6.40822266 2.07693359 -4.828125 1.2109375 C-1.95703125 -0.07421875 -1.95703125 -0.07421875 0 0 Z M-134.95703125 11.92578125 C-137.37029945 12.93089147 -137.37029945 12.93089147 -140.1171875 14.453125 C-146.74684156 17.87721031 -153.50627804 20.8021107 -160.39282227 23.65795898 C-162.39080402 24.48673517 -164.38600348 25.32193486 -166.38085938 26.15820312 C-173.55284839 29.15532853 -180.75659701 32.04067337 -188.02392578 34.80078125 C-190.53770559 35.76494784 -193.02697465 36.77031353 -195.515625 37.796875 C-203.01250485 40.81167762 -210.67734261 43.38890118 -218.30688477 46.04418945 C-221.01723443 46.98748188 -223.72648467 47.93387654 -226.43554688 48.88085938 C-228.1835309 49.49106547 -229.93157574 50.10109741 -231.6796875 50.7109375 C-232.87538109 51.12823875 -232.87538109 51.12823875 -234.0952301 51.55397034 C-239.36817693 53.38849733 -244.65642891 55.17279939 -249.95703125 56.92578125 C-248.63020539 61.11905164 -247.03408211 65.05287964 -245.20703125 69.05078125 C-242.58463526 74.98382971 -240.5613882 81.0251463 -238.70703125 87.23828125 C-238.46114258 88.06150879 -238.21525391 88.88473633 -237.96191406 89.73291016 C-237.26562303 92.1238295 -236.60143243 94.5203872 -235.95703125 96.92578125 C-235.77720703 97.58884277 -235.59738281 98.2519043 -235.41210938 98.93505859 C-232.11264231 112.30303557 -231.60481509 126.12512659 -231.64135742 139.82714844 C-231.64452097 142.29276726 -231.62091596 144.75718379 -231.59570312 147.22265625 C-231.5330901 162.77200674 -233.82170013 177.79667184 -237.64453125 192.86328125 C-237.89799316 193.86488281 -238.15145508 194.86648438 -238.41259766 195.8984375 C-244.32788424 218.32471895 -255.0898227 240.62496842 -267.95703125 259.92578125 C-268.31729917 262.47287164 -268.31729917 262.47287164 -268.35227966 265.36761475 C-268.38823022 266.47770023 -268.42418077 267.58778572 -268.46122074 268.73151016 C-268.49005061 269.93482861 -268.51888048 271.13814705 -268.54858398 272.37792969 C-268.58553344 273.63153164 -268.62248289 274.88513359 -268.66055202 276.17672348 C-268.77157587 280.0928714 -268.86705804 284.00909689 -268.95703125 287.92578125 C-268.98428913 289.08560013 -269.01154701 290.24541901 -269.03963089 291.44038391 C-269.22321135 299.52355517 -269.36187794 307.6072261 -269.4921875 315.69140625 C-269.53555286 318.28320975 -269.57901239 320.87501167 -269.62255859 323.46681213 C-269.73653752 330.30089598 -269.84539764 337.13505563 -269.953022 343.9692421 C-270.00850583 347.48896116 -270.0651258 351.0086609 -270.12209159 354.52835625 C-270.71491081 391.1794865 -271.19565699 427.82511162 -270.98333931 464.48212528 C-270.9713777 466.55716615 -270.96090953 468.63221009 -270.95068359 470.70726013 C-270.93715785 473.15558675 -270.91889094 475.60389407 -270.89477539 478.05213928 C-270.88833008 479.09172287 -270.88188477 480.13130646 -270.87524414 481.20239258 C-270.86699112 482.09920242 -270.8587381 482.99601227 -270.85023499 483.91999817 C-270.95703125 485.92578125 -270.95703125 485.92578125 -271.95703125 486.92578125 C-271.95703125 489.23578125 -271.95703125 491.54578125 -271.95703125 493.92578125 C-131.70703125 493.92578125 8.54296875 493.92578125 153.04296875 493.92578125 C153.04983094 474.82515409 153.04983094 474.82515409 152.87524414 455.72851562 C152.85703221 454.36923392 152.83895554 453.00995039 152.82099915 451.65066528 C152.77275507 448.02805789 152.72261544 444.4054792 152.67204213 440.78290367 C152.61806238 436.8940612 152.56580212 433.00519552 152.51329041 429.11633301 C152.42438781 422.55052231 152.33430119 415.98472874 152.2434082 409.41894531 C152.15217965 402.82846462 152.06196049 396.23797129 151.97290039 389.64746094 C151.96204867 388.8457547 151.95119695 388.04404846 151.94001639 387.2180481 C151.88538286 383.18048458 151.8309891 379.14291803 151.77693748 375.10534668 C151.66921061 367.09581475 151.55563427 359.08642945 151.43057251 351.07714844 C151.3817803 347.91472078 151.33352567 344.75228533 151.28564453 341.58984375 C151.26791799 340.42574478 151.26791799 340.42574478 151.24983335 339.23812866 C151.09891368 329.15442879 151.01666718 319.07296662 151.00630665 308.98815155 C151.00083473 303.83301432 150.97359203 298.67805985 150.94090813 293.5230298 C150.92086559 290.08967106 150.9135661 286.65733807 150.93760872 283.22398376 C150.95878472 279.47987622 150.93788529 275.73813705 150.90795898 271.99414062 C150.92558981 270.91081451 150.94322063 269.8274884 150.96138573 268.71133423 C150.83210767 260.54966342 148.0869568 256.16941019 143.04296875 249.92578125 C141.48501449 247.46305351 140.08750794 244.94149082 138.73046875 242.36328125 C138.36219971 241.66638184 137.99393066 240.96948242 137.61450195 240.25146484 C132.28211353 229.84140925 128.19167302 218.84726576 124.04296875 207.92578125 C123.69016846 207.0322998 123.33736816 206.13881836 122.97387695 205.21826172 C120.15953043 197.891707 118.43939681 190.47768969 116.85546875 182.80078125 C116.59572266 181.59035156 116.33597656 180.37992188 116.06835938 179.1328125 C110.68334389 153.55746762 110.90259418 125.33251327 117.04296875 99.92578125 C117.23552246 99.0843457 117.42807617 98.24291016 117.62646484 97.37597656 C120.39710451 85.35366875 124.01116706 73.6799673 129.72265625 62.6953125 C131.2581332 59.98580307 131.2581332 59.98580307 131.04296875 56.92578125 C130.12225586 56.62099854 129.20154297 56.31621582 128.25292969 56.00219727 C108.79471479 49.53965393 89.48441208 42.7478264 70.35546875 35.36328125 C68.96309998 34.82590836 68.96309998 34.82590836 67.54260254 34.27767944 C54.76311783 29.32618094 42.13903227 24.11882789 29.75512695 18.23999023 C28.77761475 17.78309814 27.80010254 17.32620605 26.79296875 16.85546875 C25.9628125 16.45569824 25.13265625 16.05592773 24.27734375 15.64404297 C21.74470182 14.82990043 20.50965297 15.02694076 18.04296875 15.92578125 C17.71296875 14.60578125 17.38296875 13.28578125 17.04296875 11.92578125 C16.05296875 11.92578125 15.06296875 11.92578125 14.04296875 11.92578125 C13.77484375 12.99054688 13.50671875 14.0553125 13.23046875 15.15234375 C8.17804505 34.25723601 -1.85782964 51.16901347 -18.95703125 61.92578125 C-27.88913887 67.09517019 -36.73043245 71.10068028 -46.95703125 72.92578125 C-47.91351563 73.10753906 -48.87 73.28929687 -49.85546875 73.4765625 C-69.71808399 76.35338964 -88.88663601 70.66046868 -104.95703125 58.92578125 C-119.01738201 47.6692541 -128.97653014 32.92938916 -132.38671875 15.0859375 C-132.57492187 14.37308594 -132.763125 13.66023438 -132.95703125 12.92578125 C-133.94703125 12.43078125 -133.94703125 12.43078125 -134.95703125 11.92578125 Z " fill="#424242" transform="translate(421.95703125,66.07421875)"/>
<path d="M0 0 C4.15752476 2.03011293 8.05660348 4.39870455 12 6.8125 C12.78963135 7.29533447 13.5792627 7.77816895 14.39282227 8.27563477 C21.15637676 12.43552299 27.81749169 16.74314283 34.46264648 21.08886719 C42.47108449 26.32322123 50.55462972 31.4332516 58.65429688 36.52490234 C62.54320022 38.97044293 66.42801366 41.42245151 70.3125 43.875 C71.07626953 44.35694824 71.84003906 44.83889648 72.62695312 45.33544922 C77.09612639 48.15784136 81.55846667 50.99069907 86.015625 53.83203125 C87.02197998 54.47350098 88.02833496 55.1149707 89.06518555 55.77587891 C91.03337954 57.03114966 93.00100873 58.28730652 94.96801758 59.54443359 C95.85642334 60.1111377 96.7448291 60.6778418 97.66015625 61.26171875 C98.45043213 61.76662842 99.24070801 62.27153809 100.05493164 62.79174805 C101.975229 64.02597899 101.975229 64.02597899 104 65 C104 65.66 104 66.32 104 67 C105.98 67.495 105.98 67.495 108 68 C107.42580512 71.54430247 106.51975863 74.25813119 104.76953125 77.38671875 C104.30353516 78.22912109 103.83753906 79.07152344 103.35742188 79.93945312 C102.84759766 80.84630859 102.33777344 81.75316406 101.8125 82.6875 C100.71400865 84.67011045 99.61638833 86.65320369 98.51953125 88.63671875 C97.94283691 89.67618652 97.36614258 90.7156543 96.77197266 91.78662109 C93.80462539 97.16774877 90.90475479 102.58490858 88 108 C83.18709161 116.95453925 78.34402668 125.89178098 73.46875 134.8125 C69.79672881 141.53317538 66.14460785 148.264423 62.5 155 C51.58423843 175.16345273 51.58423843 175.16345273 46.79296875 183.88671875 C44.97070333 187.2061359 43.18404781 190.54081321 41.42578125 193.89453125 C40.63817088 195.36726775 39.85041945 196.83992883 39.0625 198.3125 C38.55058105 199.31796875 38.55058105 199.31796875 38.02832031 200.34375 C36.52657718 203.1139271 35.54279685 204.76357788 32.60546875 206.04296875 C26.90760048 205.94900091 22.47394514 203.36687198 18 200 C14.15562984 195.55819393 11.6280527 190.21141484 9 185 C8.31815032 183.71001412 7.63457937 182.42093647 6.94921875 181.1328125 C-1.85798848 164.30263054 -9.74806765 146.31973081 -13.625 127.6875 C-13.82867188 126.75744141 -14.03234375 125.82738281 -14.2421875 124.86914062 C-17.11791016 111.38458213 -18.32761494 98.37825741 -18.26074219 84.62304688 C-18.25001503 82.00367088 -18.26070316 79.38498043 -18.2734375 76.765625 C-18.28232568 66.98452384 -17.79630465 57.63965211 -16 48 C-15.83371094 47.10651855 -15.66742187 46.21303711 -15.49609375 45.29248047 C-15.00220031 42.82732049 -14.45643693 40.38341791 -13.875 37.9375 C-13.66762207 37.06407959 -13.46024414 36.19065918 -13.24658203 35.29077148 C-10.21189289 23.15309796 -5.80869197 11.09424088 0 0 Z " fill="#FCFCFC" transform="translate(555,125)"/>
<path d="M0 0 C3.31787327 3.05056471 4.72906367 6.56715438 6.375 10.6875 C6.67954102 11.44208496 6.98408203 12.19666992 7.29785156 12.97412109 C12.21566946 25.37726119 15.78760069 37.8223966 18 51 C18.309375 52.70349609 18.309375 52.70349609 18.625 54.44140625 C21.91686195 75.63276753 21.03411212 97.98271919 17 119 C16.87141602 119.67498535 16.74283203 120.3499707 16.61035156 121.04541016 C11.35559896 147.21889161 0.76026082 180.91506427 -18 201 C-20.65625 202.58203125 -20.65625 202.58203125 -23.5 203.8125 C-24.4384375 204.23144531 -25.376875 204.65039062 -26.34375 205.08203125 C-29 206 -29 206 -33 206 C-33.4626123 205.1248877 -33.92522461 204.24977539 -34.40185547 203.34814453 C-45.22894079 182.80841786 -45.22894079 182.80841786 -56.39868164 162.4543457 C-59.77090775 156.44310955 -63.04353653 150.38040508 -66.3125 144.3125 C-71.13733038 135.36628307 -76.08556061 126.49903773 -81.11328125 117.66552734 C-85.67140065 109.63514488 -90.07743652 101.52751886 -94.44799805 93.39379883 C-98.06268588 86.68001087 -101.80070333 80.05985195 -105.70703125 73.51171875 C-107 71 -107 71 -107 68 C-104.44929899 66.23176041 -101.93364478 64.66851074 -99.25 63.125 C-97.58178784 62.13671872 -95.91517578 61.14573256 -94.25 60.15234375 C-93.38117188 59.63526855 -92.51234375 59.11819336 -91.6171875 58.58544922 C-87.43122544 56.04966213 -83.34116511 53.37265851 -79.25 50.6875 C-72.23720261 46.09947803 -65.19874264 41.55605318 -58.125 37.0625 C-57.21371338 36.4835498 -56.30242676 35.90459961 -55.36352539 35.30810547 C-52.57606932 33.53812852 -49.78804602 31.76904748 -47 30 C-43.22839866 27.60537366 -39.45756655 25.20954196 -35.6875 22.8125 C-34.77742188 22.23387207 -33.86734375 21.65524414 -32.9296875 21.05908203 C-26.47502058 16.95040246 -20.04104119 12.81081466 -13.62768555 8.63793945 C-9.11712044 5.70639072 -4.57016369 2.83771779 0 0 Z " fill="#FBFBFB" transform="translate(169,125)"/>
<path d="M0 0 C140.25 0 280.5 0 425 0 C425 6.6 425 13.2 425 20 C284.75 20 144.5 20 0 20 C0 13.4 0 6.8 0 0 Z " fill="#F8F8F8" transform="translate(150,563)"/>
<path d="M0 0 C0.54269531 0.38542969 1.08539063 0.77085938 1.64453125 1.16796875 C0.98453125 1.49796875 0.32453125 1.82796875 -0.35546875 2.16796875 C2.55804619 19.89185128 11.33897043 36.29065459 25.58203125 47.54296875 C26.91976161 48.44289644 28.27550342 49.31640832 29.64453125 50.16796875 C30.50175781 50.73902344 31.35898437 51.31007812 32.2421875 51.8984375 C46.17329483 60.69209744 60.51167622 62.99307605 76.64453125 64.16796875 C76.64453125 64.49796875 76.64453125 64.82796875 76.64453125 65.16796875 C54.13995004 65.98302401 36.96413968 61.54992735 19.64453125 46.16796875 C18.94714844 45.5646875 18.24976563 44.96140625 17.53125 44.33984375 C6.16705361 33.83623699 -0.63474086 19.17225208 -3.35546875 4.16796875 C-4.40476562 4.65523438 -5.4540625 5.1425 -6.53515625 5.64453125 C-17.7844599 10.81188418 -29.16150966 15.63954981 -40.60546875 20.35546875 C-41.31491638 20.64875061 -42.02436401 20.94203247 -42.75531006 21.24420166 C-59.16281251 28.01939188 -75.78329683 34.07557688 -92.54296875 39.91796875 C-95.0235016 40.78355751 -97.5038394 41.6496919 -99.98371887 42.51715088 C-101.50813048 43.05031669 -103.03291863 43.58240763 -104.55815125 44.11322021 C-107.44346004 45.12178415 -110.29562175 46.14237087 -113.10668945 47.34472656 C-115.35546875 48.16796875 -115.35546875 48.16796875 -119.35546875 48.16796875 C-118.61103516 49.60849609 -118.61103516 49.60849609 -117.8515625 51.078125 C-111.87068806 63.01025093 -107.80167845 75.28769854 -104.35546875 88.16796875 C-104.16823242 88.85761719 -103.98099609 89.54726562 -103.78808594 90.2578125 C-100.49305597 103.59148716 -100.00334649 117.40252267 -100.03979492 131.06933594 C-100.04295847 133.53495476 -100.01935346 135.99937129 -99.99414062 138.46484375 C-99.9315276 154.01419424 -102.22013763 169.03885934 -106.04296875 184.10546875 C-106.29643066 185.10707031 -106.54989258 186.10867188 -106.81103516 187.140625 C-112.72632174 209.56690645 -123.4882602 231.86715592 -136.35546875 251.16796875 C-136.71192554 253.41380293 -136.71192554 253.41380293 -136.74302673 255.96710205 C-136.7778267 256.98113476 -136.81262667 257.99516747 -136.84848118 259.03992844 C-136.89049105 260.7415457 -136.89049105 260.7415457 -136.93334961 262.47753906 C-136.96993903 263.70012043 -137.00652845 264.9227018 -137.04422665 266.18233109 C-137.57936289 284.7794132 -137.7953469 303.38662213 -138.06264997 321.98895931 C-138.14194511 327.46347595 -138.22460209 332.93794192 -138.30686951 338.41241455 C-138.4614475 348.73166147 -138.61309664 359.05094916 -138.76363558 369.37025571 C-138.93545947 381.13855137 -139.11063669 392.90679642 -139.28606522 404.67503881 C-139.64620687 428.83929511 -140.0022361 453.00361054 -140.35546875 477.16796875 C-139.69546875 477.49796875 -139.03546875 477.82796875 -138.35546875 478.16796875 C-139.34546875 478.16796875 -140.33546875 478.16796875 -141.35546875 478.16796875 C-141.35546875 480.47796875 -141.35546875 482.78796875 -141.35546875 485.16796875 C-1.10546875 485.16796875 139.14453125 485.16796875 283.64453125 485.16796875 C283.31453125 482.52796875 282.98453125 479.88796875 282.64453125 477.16796875 C282.55904726 474.78605528 282.51672807 472.40224523 282.51513672 470.01879883 C282.5133844 469.35220245 282.51163208 468.68560608 282.50982666 467.99880981 C282.50545733 465.81167932 282.50833583 463.62463123 282.51171875 461.4375 C282.51104265 459.88172897 282.5100701 458.32595805 282.50881958 456.77018738 C282.50734781 453.50295001 282.50947429 450.23574003 282.51416016 446.96850586 C282.51975861 442.8744385 282.5165511 438.78043762 282.51070786 434.68637276 C282.48685466 414.82365189 282.78012821 395.01413976 283.64453125 375.16796875 C283.97453125 375.16796875 284.30453125 375.16796875 284.64453125 375.16796875 C284.65483871 375.9546846 284.66514618 376.74140045 284.67576599 377.55195618 C284.80711299 387.52818426 284.94311494 397.50434341 285.08203125 407.48046875 C285.09305248 408.27475155 285.10407372 409.06903435 285.11542892 409.88738632 C285.36639453 427.92215269 285.62568006 445.952749 286.20703125 463.98046875 C286.6599664 479.70378905 286.64453125 495.43812605 286.64453125 511.16796875 C144.74453125 511.16796875 2.84453125 511.16796875 -143.35546875 511.16796875 C-143.35546875 417.71661173 -143.35546875 417.71661173 -142.74968147 386.4155395 C-142.66013783 381.69953241 -142.57942547 376.98337056 -142.49743652 372.26722717 C-142.34374075 363.49373881 -142.18307945 354.72039543 -142.01932096 345.94708973 C-141.83202725 335.89230296 -141.65340414 325.83736652 -141.47519588 315.78241527 C-141.11100823 295.24409791 -140.73695036 274.70597176 -140.35546875 254.16796875 C-141.24740936 254.58201462 -142.13934998 254.99606049 -143.05831909 255.4226532 C-144.22871735 255.96468887 -145.3991156 256.50672455 -146.60498047 257.06518555 C-147.76504608 257.60298141 -148.92511169 258.14077728 -150.12033081 258.69487 C-153.54231469 260.25304782 -156.96069206 261.66165518 -160.48046875 262.98046875 C-161.53492188 263.37878906 -162.589375 263.77710938 -163.67578125 264.1875 C-165.55872391 264.87644841 -167.45333556 265.53392435 -169.35546875 266.16796875 C-176.90407479 252.52763326 -184.45147159 238.88752024 -191.85546875 225.16796875 C-196.97423741 215.68349719 -202.16601286 206.24076138 -207.38320923 196.8102417 C-211.98231712 188.49558959 -216.53608974 180.15807187 -221.04296875 171.79296875 C-226.39459755 161.86669452 -231.90456975 152.03617152 -237.48046875 142.234375 C-237.96 141.38762207 -238.43953125 140.54086914 -238.93359375 139.66845703 C-239.89388646 137.97970051 -240.86287532 136.2958637 -241.83984375 134.61669922 C-242.29875 133.8176416 -242.75765625 133.01858398 -243.23046875 132.1953125 C-243.64039063 131.49011475 -244.0503125 130.78491699 -244.47265625 130.05834961 C-245.35546875 128.16796875 -245.35546875 128.16796875 -245.35546875 125.16796875 C-243.97290039 123.9921875 -243.97290039 123.9921875 -242.015625 122.85546875 C-241.29149414 122.42580811 -240.56736328 121.99614746 -239.82128906 121.5534668 C-239.02819336 121.09625244 -238.23509766 120.63903809 -237.41796875 120.16796875 C-235.74623794 119.17642877 -234.07569026 118.1828917 -232.40625 117.1875 C-231.55627441 116.68299316 -230.70629883 116.17848633 -229.83056641 115.65869141 C-226.20124975 113.47279601 -222.65063673 111.17456561 -219.10546875 108.85546875 C-212.71409276 104.68997484 -206.29544185 100.57045878 -199.85546875 96.48046875 C-191.84553063 91.39172781 -183.84632218 86.2866276 -175.85546875 81.16796875 C-167.90305618 76.07531188 -159.94671862 70.98895792 -151.98046875 65.91796875 C-151.18705078 65.41265625 -150.39363281 64.90734375 -149.57617188 64.38671875 C-147.88247173 63.30928058 -146.18391835 62.23944968 -144.48168945 61.17553711 C-142.07401474 59.62939816 -139.72471101 58.0434747 -137.37573242 56.41235352 C-125.52817983 48.3493826 -113.41149211 43.34308596 -99.86999512 38.77124023 C-95.15209152 37.17797387 -90.45347801 35.53096426 -85.75283813 33.88760376 C-83.43621315 33.07840672 -81.11865925 32.2718637 -78.80014038 31.46810913 C-53.65514521 22.74583892 -28.20719756 13.11404067 -4.9296875 0.1171875 C-2.35546875 -0.83203125 -2.35546875 -0.83203125 0 0 Z M-126.01171875 52.40625 C-126.77782471 52.89077637 -127.54393066 53.37530273 -128.33325195 53.87451172 C-129.1655835 54.40447754 -129.99791504 54.93444336 -130.85546875 55.48046875 C-131.71551514 56.02590332 -132.57556152 56.57133789 -133.46166992 57.13330078 C-139.57561394 61.01740055 -145.66244805 64.94223902 -151.73754883 68.88671875 C-160.29210029 74.43582942 -168.90441362 79.89407788 -177.51171875 85.36083984 C-180.33577004 87.15545074 -183.15838483 88.95229717 -185.98046875 90.75 C-194.88828111 96.42420247 -203.80102372 102.090355 -212.73046875 107.73046875 C-213.86198364 108.44517334 -213.86198364 108.44517334 -215.01635742 109.17431641 C-219.78786878 112.18536555 -224.5684966 115.18156375 -229.35546875 118.16796875 C-228.782777 123.14747496 -226.50115971 126.84594847 -224.04296875 131.10546875 C-223.12529375 132.72468937 -222.20867261 134.34450759 -221.29296875 135.96484375 C-220.81085938 136.81498047 -220.32875 137.66511719 -219.83203125 138.54101562 C-217.35263296 142.95211444 -214.95266321 147.40603787 -212.54296875 151.85546875 C-208.45594517 159.38139698 -204.28227934 166.85188686 -200.04296875 174.29296875 C-194.43736297 184.14221316 -189.06421832 194.10653769 -183.7355957 204.10693359 C-179.91966953 211.26585131 -176.04764255 218.38760115 -172.08374023 225.46557617 C-166.39637968 235.63850737 -160.88992621 245.91133144 -155.35546875 256.16796875 C-147.73628103 254.67154064 -141.37462032 253.28702953 -136.66796875 246.66796875 C-135.53794995 244.85045599 -134.4341547 243.01640911 -133.35546875 241.16796875 C-132.52982422 239.87246094 -132.52982422 239.87246094 -131.6875 238.55078125 C-117.92914556 216.32332534 -108.51286097 189.9070304 -104.35546875 164.16796875 C-104.02095703 162.24210937 -104.02095703 162.24210937 -103.6796875 160.27734375 C-98.46813216 124.6827753 -102.33896063 81.6263498 -121.35546875 50.16796875 C-123.14816967 50.16796875 -124.53463449 51.46982182 -126.01171875 52.40625 Z M-141.35546875 488.16796875 C-141.35546875 494.76796875 -141.35546875 501.36796875 -141.35546875 508.16796875 C-1.10546875 508.16796875 139.14453125 508.16796875 283.64453125 508.16796875 C283.64453125 501.56796875 283.64453125 494.96796875 283.64453125 488.16796875 C143.39453125 488.16796875 3.14453125 488.16796875 -141.35546875 488.16796875 Z " fill="#383838" transform="translate(291.35546875,74.83203125)"/>
<path d="M0 0 C0.13535156 1.00417969 0.27070313 2.00835937 0.41015625 3.04296875 C2.62289308 17.72355714 8.35762896 28.49185706 19 39 C19.54011719 39.56203125 20.08023438 40.1240625 20.63671875 40.703125 C31.05281907 50.67319583 46.18571642 55.04087221 60.25 55.3125 C77.1207223 54.86608618 93.4310628 48.07731333 105.25 35.9375 C110.52092126 29.86922601 113.81333058 23.33296089 117 16 C117.36867188 15.15824219 117.73734375 14.31648438 118.1171875 13.44921875 C119.10530143 10.70785844 119.64059655 8.05932047 120.125 5.1875 C120.37636719 3.72376953 120.37636719 3.72376953 120.6328125 2.23046875 C120.75398437 1.49441406 120.87515625 0.75835937 121 0 C125.06776462 1.2297893 128.39925838 2.761038 132 5 C130.5635373 23.63810359 120.33172893 38.40578695 107.0625 50.875 C97.37474988 58.7817698 86.87811623 62.7629458 75 66 C74.37319336 66.17885742 73.74638672 66.35771484 73.10058594 66.54199219 C54.746537 70.54387455 35.87403401 66.01502585 20.25390625 56.2265625 C3.66607366 44.87594476 -7.65586525 28.09212529 -11.58984375 8.3515625 C-11.72519531 7.57554688 -11.86054688 6.79953125 -12 6 C-10.56839732 4.99157547 -9.12948547 3.99352109 -7.6875 3 C-6.88699219 2.443125 -6.08648437 1.88625 -5.26171875 1.3125 C-3 0 -3 0 0 0 Z " fill="#F8F8F8" transform="translate(302,71)"/>
<path d="M0 0 C3.17914484 1.05321363 6.35126281 2.12177111 9.515625 3.21875 C39.13796456 13.38206315 72.06403913 12.96950683 101.47265625 2.20703125 C105 1 105 1 108 1 C103.08783671 14.03087761 92.63908401 25.17322666 80 31 C66.38966852 36.81097958 50.73761776 38.79570183 36.375 34.375 C34.56169182 33.63424432 32.76801467 32.84316646 31 32 C30.08347656 31.5875 29.16695313 31.175 28.22265625 30.75 C14.89531467 24.17044287 5.34342928 13.74024672 0 0 Z " fill="#F2F2F2" transform="translate(308,88)"/>
<path d="M0 0 C0.33 0 0.66 0 1 0 C1.01030746 0.78671585 1.02061493 1.5734317 1.03123474 2.38398743 C1.16258174 12.36021551 1.29858369 22.33637466 1.4375 32.3125 C1.44852123 33.1067828 1.45954247 33.9010656 1.47089767 34.71941757 C1.72186328 52.75418394 1.98114881 70.78478025 2.5625 88.8125 C3.01543515 104.5358203 3 120.2701573 3 136 C-138.9 136 -280.8 136 -427 136 C-426.34 135.01 -425.68 134.02 -425 133 C-422.02649057 132.62740451 -422.02649057 132.62740451 -418.11652184 132.63085651 C-417.39665533 132.62739498 -416.67678883 132.62393345 -415.93510818 132.62036702 C-413.49815056 132.6123615 -411.06177542 132.62593795 -408.62484741 132.63923645 C-406.87007972 132.63792947 -405.1153126 132.63530505 -403.36054862 132.63146895 C-398.51932424 132.62473079 -393.67829732 132.6368022 -388.83709812 132.65180314 C-383.62372384 132.66471146 -378.41036146 132.66037774 -373.19697571 132.65809631 C-364.15804768 132.65652027 -355.11918441 132.66596396 -346.08027267 132.68280983 C-333.01139774 132.70715056 -319.94255424 132.71500004 -306.87365909 132.7187738 C-285.67226537 132.72534604 -264.4709062 132.74532812 -243.26953125 132.77368164 C-222.66959812 132.80120225 -202.06967436 132.8224456 -181.46972656 132.83520508 C-179.56630505 132.83638733 -179.56630505 132.83638733 -177.62443058 132.83759347 C-171.25874163 132.84150847 -164.89305261 132.84529963 -158.52736354 132.84902918 C-105.68488514 132.88014913 -52.84244425 132.9330059 0 133 C-0.12568359 131.71416016 -0.12568359 131.71416016 -0.25390625 130.40234375 C-0.35574219 129.25894531 -0.45757813 128.11554688 -0.5625 126.9375 C-0.66691406 125.81214844 -0.77132813 124.68679688 -0.87890625 123.52734375 C-1 120 -1 120 0 113 C-140.25 113 -280.5 113 -425 113 C-425 112.01 -425 111.02 -425 110 C-284.75 110 -144.5 110 0 110 C-0.33 107.36 -0.66 104.72 -1 102 C-1.08548399 99.61808653 -1.12780318 97.23427648 -1.12939453 94.85083008 C-1.13202301 93.85093552 -1.13202301 93.85093552 -1.13470459 92.83084106 C-1.13907392 90.64371057 -1.13619542 88.45666248 -1.1328125 86.26953125 C-1.1334886 84.71376022 -1.13446115 83.1579893 -1.13571167 81.60221863 C-1.13718344 78.33498126 -1.13505696 75.06777128 -1.13037109 71.80053711 C-1.12477264 67.70646975 -1.12798015 63.61246887 -1.13382339 59.51840401 C-1.15767659 39.65568314 -0.86440304 19.84617101 0 0 Z " fill="#6E6E6E" transform="translate(575,450)"/>
<path d="M0 0 C4.08105062 1.54342971 7.41572782 3.49934499 11 6 C10.33026913 9.23757479 9.16077215 11.86528947 7.62890625 14.7890625 C7.14236572 15.72097412 6.6558252 16.65288574 6.15454102 17.61303711 C5.62916748 18.60698486 5.10379395 19.60093262 4.5625 20.625 C4.01972412 21.65826416 3.47694824 22.69152832 2.91772461 23.75610352 C-0.68284732 30.5824843 -4.3687434 37.35567488 -8.14282227 44.08740234 C-11.61178564 50.27713474 -15.00162213 56.50771173 -18.375 62.75 C-19.49086492 64.81381316 -20.60675033 66.87761525 -21.72265625 68.94140625 C-22.54660889 70.46531982 -22.54660889 70.46531982 -23.38720703 72.02001953 C-29.21066089 82.78009792 -35.07081843 93.5200473 -40.9921875 104.2265625 C-41.336483 104.84912933 -41.6807785 105.47169617 -42.0355072 106.11312866 C-42.38174637 106.73917999 -42.72798553 107.36523132 -43.0847168 108.01025391 C-43.78565701 109.27766237 -44.48658479 110.54507771 -45.1875 111.8125 C-45.53027985 112.43227722 -45.87305969 113.05205444 -46.22622681 113.69061279 C-51.59502143 123.40265714 -56.87251914 133.15808535 -62 143 C-66.7990969 142.21258341 -69.87914943 140.50483074 -74 138 C-72.57289042 134.24047028 -70.87676113 130.74012039 -68.98046875 127.1953125 C-68.3769458 126.06633545 -67.77342285 124.9373584 -67.15161133 123.77416992 C-66.49711184 122.55767002 -65.84240294 121.34128276 -65.1875 120.125 C-64.85430756 119.50396393 -64.52111511 118.88292786 -64.17782593 118.24307251 C-59.15218225 108.87811579 -53.9784506 99.60737606 -48.70800781 90.37768555 C-44.43587333 82.8594894 -40.41280582 75.22867557 -36.4440918 67.546875 C-32.61430581 60.14258018 -28.66184159 52.81333194 -24.65356445 45.50439453 C-20.02250487 37.05778887 -15.45407198 28.57818308 -10.89501953 20.0925293 C-7.28797262 13.38143747 -3.65672892 6.68415646 0 0 Z " fill="#F9F9F9" transform="translate(665,195)"/>
<path d="M0 0 C1.32763672 1.95166016 1.32763672 1.95166016 2.6796875 4.5390625 C3.18935059 5.49973633 3.69901367 6.46041016 4.22412109 7.45019531 C4.76891113 8.49788086 5.31370117 9.54556641 5.875 10.625 C7.05016833 12.84216191 8.22729979 15.05828425 9.40625 17.2734375 C10.00566406 18.40233398 10.60507813 19.53123047 11.22265625 20.69433594 C13.85710845 25.59412753 16.61204906 30.42188203 19.375 35.25 C24.56072665 44.34668793 29.53674118 53.54677742 34.4524231 62.79110718 C39.30426763 71.90995692 44.31229528 80.92750549 49.4309082 89.89916992 C53.22238421 96.56580454 56.843602 103.30489325 60.3815918 110.10888672 C64.75328941 118.49915904 69.36810738 126.7512891 74 135 C67.27947846 140.18277508 67.27947846 140.18277508 63.02392578 139.84155273 C60.13669597 138.64103631 59.54599578 137.03592498 58.1171875 134.28515625 C57.59511719 133.29837891 57.07304688 132.31160156 56.53515625 131.29492188 C55.98730469 130.22822266 55.43945312 129.16152344 54.875 128.0625 C53.70658433 125.84460136 52.53730698 123.62715646 51.3671875 121.41015625 C50.79323242 120.3133252 50.21927734 119.21649414 49.62792969 118.08642578 C47.48329235 114.02036322 45.25280684 110.00680454 43 106 C38.00762516 97.06536351 33.14500199 88.06159509 28.27734375 79.05859375 C20.52035716 64.71192304 12.6865985 50.40766284 4.8125 36.125 C4.29833023 35.19192017 4.29833023 35.19192017 3.77377319 34.23999023 C0.53657192 28.36721785 -2.70497363 22.49756428 -6.01953125 16.66796875 C-6.66208862 15.5375415 -6.66208862 15.5375415 -7.31762695 14.38427734 C-8.07898063 13.05021844 -8.8441501 11.71832631 -9.61401367 10.38916016 C-12 6.21650826 -12 6.21650826 -12 4 C-10.56988027 3.13353333 -9.13059381 2.28218171 -7.6875 1.4375 C-6.48673828 0.72400391 -6.48673828 0.72400391 -5.26171875 -0.00390625 C-3 -1 -3 -1 0 0 Z " fill="#F9F9F9" transform="translate(61,197)"/>
<path d="M0 0 C0.54269531 0.38542969 1.08539063 0.77085938 1.64453125 1.16796875 C0.98453125 1.49796875 0.32453125 1.82796875 -0.35546875 2.16796875 C2.55804619 19.89185128 11.33897043 36.29065459 25.58203125 47.54296875 C26.91976161 48.44289644 28.27550342 49.31640832 29.64453125 50.16796875 C30.50175781 50.73902344 31.35898437 51.31007812 32.2421875 51.8984375 C46.17329483 60.69209744 60.51167622 62.99307605 76.64453125 64.16796875 C76.64453125 64.49796875 76.64453125 64.82796875 76.64453125 65.16796875 C54.13995004 65.98302401 36.96413968 61.54992735 19.64453125 46.16796875 C18.94714844 45.5646875 18.24976563 44.96140625 17.53125 44.33984375 C6.16705361 33.83623699 -0.63474086 19.17225208 -3.35546875 4.16796875 C-4.40476562 4.65523438 -5.4540625 5.1425 -6.53515625 5.64453125 C-17.7844599 10.81188418 -29.16150966 15.63954981 -40.60546875 20.35546875 C-41.31491638 20.64875061 -42.02436401 20.94203247 -42.75531006 21.24420166 C-59.16281251 28.01939188 -75.78329683 34.07557688 -92.54296875 39.91796875 C-95.0235016 40.78355751 -97.5038394 41.6496919 -99.98371887 42.51715088 C-101.50813048 43.05031669 -103.03291863 43.58240763 -104.55815125 44.11322021 C-107.44346004 45.12178415 -110.29562175 46.14237087 -113.10668945 47.34472656 C-115.35546875 48.16796875 -115.35546875 48.16796875 -119.35546875 48.16796875 C-118.61103516 49.60849609 -118.61103516 49.60849609 -117.8515625 51.078125 C-111.87068806 63.01025093 -107.80167845 75.28769854 -104.35546875 88.16796875 C-104.16823242 88.85761719 -103.98099609 89.54726562 -103.78808594 90.2578125 C-100.49305597 103.59148716 -100.00334649 117.40252267 -100.03979492 131.06933594 C-100.04295847 133.53495476 -100.01935346 135.99937129 -99.99414062 138.46484375 C-99.9315276 154.01419424 -102.22013763 169.03885934 -106.04296875 184.10546875 C-106.29643066 185.10707031 -106.54989258 186.10867188 -106.81103516 187.140625 C-110.98799432 202.97648696 -117.68253461 217.74735571 -125.35546875 232.16796875 C-125.73912598 232.90192871 -126.1227832 233.63588867 -126.51806641 234.39208984 C-127.69745276 236.63911103 -128.89747633 238.87371586 -130.10546875 241.10546875 C-130.47019287 241.79866211 -130.83491699 242.49185547 -131.21069336 243.20605469 C-133.83873864 247.95325848 -133.83873864 247.95325848 -136.62109375 249.109375 C-137.1934375 249.12871094 -137.76578125 249.14804687 -138.35546875 249.16796875 C-137.09316583 245.63219879 -135.44670931 242.58122447 -133.4375 239.41479492 C-119.22530665 216.94752425 -109.58672355 190.36432517 -105.35546875 164.16796875 C-105.13246094 162.8840625 -104.90945312 161.60015625 -104.6796875 160.27734375 C-99.37890211 124.07334011 -104.20535857 83.85711814 -121.35546875 51.16796875 C-128.21386142 54.67558746 -134.67445392 58.62597132 -141.046875 62.93994141 C-146.60996159 66.69667074 -152.24950474 70.32248328 -157.91796875 73.91796875 C-158.85165283 74.51029297 -159.78533691 75.10261719 -160.74731445 75.71289062 C-162.66217162 76.92684767 -164.57729402 78.14038645 -166.49267578 79.35351562 C-171.1178615 82.28498247 -175.73640189 85.2268739 -180.35546875 88.16796875 C-182.1744456 89.32557357 -183.99345613 90.48312549 -185.8125 91.640625 C-186.71822754 92.21699707 -187.62395508 92.79336914 -188.55712891 93.38720703 C-208.2421875 105.9140625 -208.2421875 105.9140625 -210.75927734 107.51123047 C-212.60105802 108.68654772 -214.43672734 109.87146659 -216.26806641 111.06298828 C-217.71318604 111.99860596 -217.71318604 111.99860596 -219.1875 112.953125 C-220.05737549 113.52039307 -220.92725098 114.08766113 -221.82348633 114.67211914 C-224.27772484 116.12203905 -226.68360612 117.18725703 -229.35546875 118.16796875 C-220.81898878 135.7819732 -211.14629266 152.79862492 -201.5637207 169.85766602 C-197.33758319 177.3892986 -193.1764043 184.95364284 -189.05493164 192.54296875 C-186.10819077 197.96532456 -183.14184755 203.37631542 -180.15625 208.77734375 C-179.79497009 209.43103943 -179.43369019 210.08473511 -179.0614624 210.75823975 C-177.27530509 213.98921048 -175.48745975 217.21923584 -173.69775391 220.44824219 C-173.04065667 221.63604921 -172.38359138 222.82387391 -171.7265625 224.01171875 C-171.1483374 225.05521484 -170.5701123 226.09871094 -169.97436523 227.17382812 C-165.35546875 235.71645314 -165.35546875 235.71645314 -165.35546875 239.16796875 C-166.01546875 239.16796875 -166.67546875 239.16796875 -167.35546875 239.16796875 C-167.77207764 238.37962646 -168.18868652 237.59128418 -168.61791992 236.77905273 C-176.07477056 222.68639234 -183.57559429 208.63793523 -191.48901367 194.79467773 C-195.74389831 187.32231849 -199.81828554 179.75933596 -203.85546875 172.16796875 C-209.08954109 162.32632591 -214.45829353 152.57269846 -219.9753418 142.88647461 C-223.87676501 136.03544994 -227.67520431 129.14039701 -231.35546875 122.16796875 C-235.08094586 123.38091479 -238.72524859 124.69609073 -242.35546875 126.16796875 C-240.31408128 129.93895329 -238.27230611 133.70972779 -236.23046875 137.48046875 C-235.66070312 138.53298828 -235.0909375 139.58550781 -234.50390625 140.66992188 C-233.93671875 141.71728516 -233.36953125 142.76464844 -232.78515625 143.84375 C-232.21893555 144.89256348 -231.65271484 145.94137695 -231.06933594 147.02197266 C-229.92310527 149.12600804 -228.76214929 151.22208546 -227.58691406 153.31005859 C-227.03874023 154.28797363 -226.49056641 155.26588867 -225.92578125 156.2734375 C-225.18352295 157.58090942 -225.18352295 157.58090942 -224.42626953 158.91479492 C-223.35546875 161.16796875 -223.35546875 161.16796875 -223.35546875 164.16796875 C-224.01546875 164.16796875 -224.67546875 164.16796875 -225.35546875 164.16796875 C-225.74814941 163.43271973 -226.14083008 162.6974707 -226.54541016 161.93994141 C-228.03070148 159.16183995 -229.51828148 156.384979 -231.00732422 153.60888672 C-231.95712314 151.83653238 -232.90437527 150.06281396 -233.8515625 148.2890625 C-237.15975689 142.12537401 -240.54524466 136.07223473 -244.30224609 130.16943359 C-245.35546875 128.16796875 -245.35546875 128.16796875 -245.35546875 125.16796875 C-243.97290039 123.9921875 -243.97290039 123.9921875 -242.015625 122.85546875 C-241.29149414 122.42580811 -240.56736328 121.99614746 -239.82128906 121.5534668 C-239.02819336 121.09625244 -238.23509766 120.63903809 -237.41796875 120.16796875 C-235.74623794 119.17642877 -234.07569026 118.1828917 -232.40625 117.1875 C-231.55627441 116.68299316 -230.70629883 116.17848633 -229.83056641 115.65869141 C-226.20124975 113.47279601 -222.65063673 111.17456561 -219.10546875 108.85546875 C-212.71409276 104.68997484 -206.29544185 100.57045878 -199.85546875 96.48046875 C-191.84553063 91.39172781 -183.84632218 86.2866276 -175.85546875 81.16796875 C-167.90305618 76.07531188 -159.94671862 70.98895792 -151.98046875 65.91796875 C-151.18705078 65.41265625 -150.39363281 64.90734375 -149.57617188 64.38671875 C-147.88247173 63.30928058 -146.18391835 62.23944968 -144.48168945 61.17553711 C-142.07401474 59.62939816 -139.72471101 58.0434747 -137.37573242 56.41235352 C-125.52817983 48.3493826 -113.41149211 43.34308596 -99.86999512 38.77124023 C-95.15209152 37.17797387 -90.45347801 35.53096426 -85.75283813 33.88760376 C-83.43621315 33.07840672 -81.11865925 32.2718637 -78.80014038 31.46810913 C-53.65514521 22.74583892 -28.20719756 13.11404067 -4.9296875 0.1171875 C-2.35546875 -0.83203125 -2.35546875 -0.83203125 0 0 Z " fill="#3B3B3B" transform="translate(291.35546875,74.83203125)"/>
<path d="M0 0 C0.55236328 0.19634033 1.10472656 0.39268066 1.67382812 0.5949707 C4.27846109 1.51290421 6.88907753 2.41261895 9.5 3.3125 C10.36753906 3.62123047 11.23507812 3.92996094 12.12890625 4.24804688 C27.32555008 9.44114459 42.01327177 10.6065872 57.9375 10.5625 C58.87833435 10.56334595 59.8191687 10.56419189 60.78851318 10.56506348 C78.80463775 10.53064141 95.67165966 8.70862507 112.10302734 0.76074219 C114 0 114 0 117 0 C116.69052329 1.93798521 116.37731166 3.87537426 116.0625 5.8125 C115.88847656 6.89144531 115.71445312 7.97039062 115.53515625 9.08203125 C115 12 115 12 114 15 C97.22555388 24.37136307 77.12828472 26.42023416 58.3125 26.3125 C57.61412018 26.31001251 56.91574036 26.30752502 56.19619751 26.30496216 C14.07372792 26.07372792 14.07372792 26.07372792 2 14 C1.3671875 12.01171875 1.3671875 12.01171875 0.875 9.6875 C0.70742188 8.92824219 0.53984375 8.16898438 0.3671875 7.38671875 C-0.01736969 4.887097 -0.02464994 2.52504526 0 0 Z " fill="#F9F9F9" transform="translate(304,70)"/>
<path d="M0 0 C5.67343693 0.44859734 9.12591936 2.6927983 13.6875 5.8125 C15.19840086 6.81893726 16.71015184 7.82409922 18.22265625 8.828125 C19.39658936 9.61219727 19.39658936 9.61219727 20.59423828 10.41210938 C24.56147941 13.03063346 28.59536469 15.54152283 32.625 18.0625 C40.84993426 23.23002882 48.94513273 28.572384 57 34 C56.28928345 35.32946655 56.28928345 35.32946655 55.56420898 36.68579102 C51.89140714 43.56141754 48.23239909 50.44401571 44.59765625 57.33984375 C43.84442457 58.76759054 43.09116916 60.19532481 42.33789062 61.62304688 C41.2008236 63.77832459 40.06438296 65.93392038 38.92993164 68.09057617 C34.0972079 77.27515042 29.14400126 86.37621902 24.02954102 95.40698242 C21.44517527 99.97145922 18.93591513 104.57553946 16.4375 109.1875 C12.01913875 117.31693686 7.56355638 125.42520796 3.08670044 133.52252197 C-4.35080868 146.97479333 -11.7065959 160.46891584 -19 174 C-22.96473763 173.35990983 -26.2944414 172.1301723 -29.95703125 170.49609375 C-31.06884766 170.00302734 -32.18066406 169.50996094 -33.32617188 169.00195312 C-35.0519043 168.22754883 -35.0519043 168.22754883 -36.8125 167.4375 C-37.98232422 166.91736328 -39.15214844 166.39722656 -40.35742188 165.86132812 C-43.24032843 164.57872888 -46.12106231 163.29147717 -49 162 C-48.96970703 163.16861572 -48.93941406 164.33723145 -48.90820312 165.54125977 C-48.05211391 199.67499067 -47.91046959 233.79471404 -47.9375 267.9375 C-47.93878403 269.57086744 -47.93878403 269.57086744 -47.94009399 271.23723221 C-47.95156199 284.82483763 -47.97174926 298.41241949 -48 312 C-48.33 312 -48.66 312 -49 312 C-49.76691592 294.36941259 -50.15508488 276.76249508 -50.26216507 259.11625481 C-50.28987615 255.03243484 -50.32718866 250.9488219 -50.36898804 246.86512756 C-50.37611836 246.16652255 -50.38324868 245.46791753 -50.39059508 244.74814266 C-50.41996327 241.88995571 -50.44968396 239.03177247 -50.4794457 236.17358959 C-50.56236212 228.15050841 -50.63340087 220.12767312 -50.67236328 212.10424805 C-50.7037994 205.64941369 -50.75972511 199.19530627 -50.84398496 192.74093825 C-50.88735013 189.3493342 -50.91879651 185.9586274 -50.92006302 182.56672478 C-50.92735245 178.80110741 -50.97757692 175.03828878 -51.03759766 171.27319336 C-51.02956116 170.17337128 -51.02152466 169.07354919 -51.01324463 167.94039917 C-51.21177229 159.72396847 -53.91163226 155.28981162 -59 149 C-60.55805898 146.53734271 -61.9554633 144.01570485 -63.3125 141.4375 C-63.68076904 140.74060059 -64.04903809 140.04370117 -64.4284668 139.32568359 C-69.75985263 128.91758529 -73.8635662 117.92433439 -78 107 C-78.3520752 106.08041504 -78.70415039 105.16083008 -79.06689453 104.21337891 C-89.10515214 77.4335117 -88.72791379 51.18332869 -88 23 C-87.67 23 -87.34 23 -87 23 C-86.97812622 23.98504517 -86.97812622 23.98504517 -86.95581055 24.98999023 C-85.96104852 65.57135976 -79.64925178 103.00888823 -60 139 C-59.61924316 139.70930664 -59.23848633 140.41861328 -58.84619141 141.14941406 C-57.65891064 143.35608706 -56.45810518 145.55466619 -55.25 147.75 C-54.88511475 148.41854004 -54.52022949 149.08708008 -54.14428711 149.77587891 C-51.11896931 155.15591509 -48.23062326 158.76822977 -42.5625 161.3125 C-41.82128906 161.65925781 -41.08007812 162.00601563 -40.31640625 162.36328125 C-37.39545192 163.16617426 -35.87299691 162.95876957 -33 162 C-31.27852636 159.8587659 -31.27852636 159.8587659 -30.01953125 157.06640625 C-29.50068359 156.03443115 -28.98183594 155.00245605 -28.44726562 153.93920898 C-27.90779297 152.82489502 -27.36832031 151.71058105 -26.8125 150.5625 C-25.65435466 148.25159528 -24.49418646 145.94170326 -23.33203125 143.6328125 C-22.76436035 142.49489258 -22.19668945 141.35697266 -21.61181641 140.18457031 C-19.5139359 136.0396516 -17.28604615 131.98084372 -15 127.9375 C-11.16746605 121.1160274 -7.40864742 114.25791027 -3.6875 107.375 C-3.13964844 106.36171631 -2.59179688 105.34843262 -2.02734375 104.30444336 C-0.90909441 102.23532283 0.20890529 100.16606737 1.32666016 98.09667969 C4.5851473 92.06652927 7.85216999 86.04099991 11.11767578 80.01464844 C13.86651333 74.94101819 16.61311394 69.86620008 19.35546875 64.7890625 C20.46610844 62.73435479 21.57678512 60.67966707 22.6875 58.625 C23.22205811 57.6347583 23.75661621 56.6445166 24.30737305 55.62426758 C26.84849309 50.9276601 29.41198824 46.24680754 32.0390625 41.59765625 C32.50868408 40.76476074 32.97830566 39.93186523 33.4621582 39.07373047 C34.3377207 37.52649709 35.2187465 35.98233765 36.10620117 34.44189453 C38.40347604 30.47499695 38.40347604 30.47499695 39 26 C37.515 25.505 37.515 25.505 36 25 C36 24.34 36 23.68 36 23 C35.36191406 22.78601563 34.72382812 22.57203125 34.06640625 22.3515625 C29.74722737 20.44782251 25.90439897 17.92003209 21.9375 15.375 C21.09856201 14.84028076 20.25962402 14.30556152 19.39526367 13.75463867 C4.01155433 3.92258948 4.01155433 3.92258948 0 1 C0 0.67 0 0.34 0 0 Z M42 28 C41.54786133 28.85416504 41.09572266 29.70833008 40.62988281 30.58837891 C29.62596033 51.36977482 18.61372309 72.14083123 7.00756836 92.59423828 C4.91429038 96.30528891 2.93936313 100.0480813 1.0625 103.875 C-1.71267683 109.53150796 -4.74960533 115.01558345 -7.82910156 120.50976562 C-12.09081922 128.12470747 -16.23020052 135.80397156 -20.36206055 143.48999023 C-23.74195048 149.75402584 -27.22505548 155.90417563 -31.0234375 161.92578125 C-32.34533236 164.11434725 -32.34533236 164.11434725 -31 167 C-29.24595045 168.2365974 -29.24595045 168.2365974 -27.125 169.1875 C-26.07699219 169.70376953 -26.07699219 169.70376953 -25.0078125 170.23046875 C-22.8914885 171.17894161 -22.8914885 171.17894161 -20 171 C-19.55684448 170.13556274 -19.55684448 170.13556274 -19.10473633 169.25366211 C-13.51104216 158.36994065 -7.82728888 147.55998812 -1.75 136.9375 C3.34846758 128.01943948 8.24782142 119.01062669 13.0625 109.9375 C13.4025708 109.2967453 13.7426416 108.6559906 14.09301758 107.99581909 C14.43163818 107.35774323 14.77025879 106.71966736 15.11914062 106.06225586 C15.79423798 104.79018439 16.46936787 103.51813018 17.14453125 102.24609375 C17.47413849 101.62500229 17.80374573 101.00391083 18.14334106 100.36399841 C22.53967868 92.08905869 27.04264103 83.87276471 31.546875 75.65625 C33.07821672 72.85702319 34.60240226 70.05399188 36.125 67.25 C37.16657167 65.33328171 38.20823712 63.41661438 39.25 61.5 C39.99540039 60.12751099 39.99540039 60.12751099 40.75585938 58.72729492 C44.27388349 52.27190854 47.91313013 45.90008411 51.671875 39.58203125 C53.2287044 37.03930244 53.2287044 37.03930244 53 34 C51.0767867 32.30133498 51.0767867 32.30133498 48.625 30.8125 C47.81289063 30.28269531 47.00078125 29.75289062 46.1640625 29.20703125 C44.12187409 27.83762848 44.12187409 27.83762848 42 28 Z " fill="#3A3A3A" transform="translate(623,167)"/>
<path d="M0 0 C0.33 0 0.66 0 1 0 C1 2.31 1 4.62 1 7 C133.99 7 266.98 7 404 7 C404 7.33 404 7.66 404 8 C271.01 8 138.02 8 1 8 C1 15.26 1 22.52 1 30 C141.25 30 281.5 30 426 30 C426 30.33 426 30.66 426 31 C285.09 31 144.18 31 -1 31 C-1 3 -1 3 0 0 Z " fill="#212121" transform="translate(149,554)"/>
<path d="M0 0 C3.02459059 2.19970225 5.53478351 4.53320842 7.9375 7.375 C46.86679025 52.49948912 106.77029472 77.23792884 165.52734375 81.71875 C182.44519669 82.72014824 199.52891936 83.41516467 216 79 C217.99652512 78.64644868 219.99581781 78.30718864 222 78 C221 80 221 80 217.9296875 81.03515625 C216.58159826 81.39103147 215.22965229 81.73248647 213.875 82.0625 C213.15143311 82.2387793 212.42786621 82.41505859 211.68237305 82.59667969 C204.47986253 84.25704707 197.38143221 84.83412512 190 85 C189.2575 85.02578125 188.515 85.0515625 187.75 85.078125 C151.73664633 86.26277479 115.06437766 79.31502145 82 65 C81.30003906 64.70013184 80.60007812 64.40026367 79.87890625 64.09130859 C63.74399741 57.09334699 48.69945743 48.03463147 35 37 C34.48663086 36.58814453 33.97326172 36.17628906 33.44433594 35.75195312 C21.22608679 25.88536456 9.09020019 14.89540027 0 2 C0 1.34 0 0.68 0 0 Z " fill="#D6D6D6" transform="translate(206,411)"/>
<path d="M0 0 C3.16565532 3.67874319 4.71840205 7.82640756 6.5625 12.25 C15.67662876 33.32229208 29.90809571 55.47226193 51 66 C52.32753748 66.35571495 53.65983715 66.69528306 55 67 C56 68 56 68 56.11352539 70.59204102 C56.10567017 72.28091431 56.10567017 72.28091431 56.09765625 74.00390625 C56.09282227 75.82631836 56.09282227 75.82631836 56.08789062 77.68554688 C56.07532227 79.60463867 56.07532227 79.60463867 56.0625 81.5625 C56.05798828 82.84576172 56.05347656 84.12902344 56.04882812 85.45117188 C56.03699545 88.63416022 56.02051068 91.81705762 56 95 C55.67 95 55.34 95 55 95 C55 87.74 55 80.48 55 73 C52.03 73 49.06 73 46 73 C23.16509331 69.92524326 1.52578543 58.75824619 -12.9375 40.5625 C-13.4634375 39.7890625 -13.4634375 39.7890625 -14 39 C-13.67 38.34 -13.34 37.68 -13 37 C-12.37996094 37.67804688 -11.75992187 38.35609375 -11.12109375 39.0546875 C6.68736384 57.77041731 29.77688691 67.58304932 55 72 C55 71.01 55 70.02 55 69 C54.2678125 68.87367188 53.535625 68.74734375 52.78125 68.6171875 C37.22316898 65.16469199 24.35927644 50.88592688 16 38 C0 11.45112238 0 11.45112238 0 0 Z " fill="#CFCFCF" transform="translate(516,258)"/>
<path d="M0 0 C0 3.62785711 -0.60411302 4.00680886 -3.03515625 6.546875 C-4.00291992 7.5678125 -4.00291992 7.5678125 -4.99023438 8.609375 C-5.67408203 9.31578125 -6.35792969 10.0221875 -7.0625 10.75 C-7.71927734 11.4409375 -8.37605469 12.131875 -9.05273438 12.84375 C-27.11256105 31.77543038 -47.60499634 48.02485247 -72 58 C-73.01964844 58.42023438 -74.03929687 58.84046875 -75.08984375 59.2734375 C-95.17720142 67.00835936 -114.76258899 67.55327924 -136 67 C-136 66.67 -136 66.34 -136 66 C-134.94425781 65.93268677 -134.94425781 65.93268677 -133.8671875 65.86401367 C-77.60928927 62.1780564 -38.90604173 39.82865855 0 0 Z " fill="#D6D6D6" transform="translate(512,446)"/>
<path d="M0 0 C3.26874872 0.59490509 6.29673432 1.37920598 9.4140625 2.5234375 C27.2127504 8.87777722 44.17221543 11.34766338 63 12 C63 12.33 63 12.66 63 13 C41.22942157 13.57764572 22.87372787 12.93686393 3 3 C4.52206009 5.62901288 5.84365964 7.84365964 8 10 C8.29003906 10.76570313 8.58007812 11.53140625 8.87890625 12.3203125 C13.57828463 23.55297301 25.51323764 30.17406766 36.125 34.8125 C45.03050605 38.30373309 53.48179536 39.38800038 63 40 C63 40.33 63 40.66 63 41 C44.57952492 41.88371149 30.55850429 38.92745348 16.12109375 26.52734375 C8.35085384 19.17997404 1.32266122 10.92002008 0 0 Z " fill="#353535" transform="translate(305,85)"/>
<path d="M0 0 C1.13585134 3.40755403 0.91006634 3.91736622 -0.37109375 7.10546875 C-0.69392334 7.9162085 -1.01675293 8.72694824 -1.34936523 9.56225586 C-1.70844971 10.42858643 -2.06753418 11.29491699 -2.4375 12.1875 C-2.98676147 13.52856812 -2.98676147 13.52856812 -3.54711914 14.89672852 C-13.06251935 37.79195072 -24.36522999 57.157952 -46.4375 70 C-49 71 -49 71 -52 70 C-51.32195312 69.59910156 -50.64390625 69.19820313 -49.9453125 68.78515625 C-24.16357831 53.03758731 -11.30333473 27.00442992 0 0 Z " fill="#D5D5D5" transform="translate(210,255)"/>
<path d="M0 0 C0.33 0 0.66 0 1 0 C1 22.44 1 44.88 1 68 C1.66 68.33 2.32 68.66 3 69 C1.515 69.495 1.515 69.495 0 70 C-0.66 70.99 -1.32 71.98 -2 73 C-2.02575041 65.9606201 -2.04303108 58.92125272 -2.05493164 51.88183594 C-2.0599026 49.49641466 -2.06668171 47.11099632 -2.07543945 44.72558594 C-2.1176095 32.92789448 -2.12286196 21.14613169 -1.55859375 9.359375 C-1.51960464 8.51884583 -1.48061554 7.67831665 -1.44044495 6.81231689 C-1.12815183 1.12815183 -1.12815183 1.12815183 0 0 Z " fill="#292929" transform="translate(150,484)"/>
<path d="M0 0 C1.4540625 1.2375 1.4540625 1.2375 2.9375 2.5 C3.58589844 3.05042969 4.23429687 3.60085938 4.90234375 4.16796875 C6.27676195 5.36834517 7.62485317 6.59970817 8.94140625 7.86328125 C25.60882851 23.64514787 47.02331192 30.38848763 69 35 C69 35.33 69 35.66 69 36 C45.65292771 36.52748788 24.77312566 26.48626802 7.7578125 10.953125 C4.91495374 8.1928389 2.11934479 5.36601819 0 2 C0 1.34 0 0.68 0 0 Z " fill="#D4D4D4" transform="translate(502,295)"/>
<path d="M0 0 C0 4.97772464 -3.61026472 7.60434895 -7 11 C-18.27437487 21.28853923 -30.38431567 28.5801367 -45 33 C-46.03253906 33.3196875 -47.06507813 33.639375 -48.12890625 33.96875 C-55.17245451 35.95233074 -61.70536599 36.3492112 -69 36 C-69 35.67 -69 35.34 -69 35 C-68.12601563 34.85304688 -67.25203125 34.70609375 -66.3515625 34.5546875 C-40.41586556 29.82427737 -18.1545156 19.45126671 0 0 Z " fill="#D4D4D4" transform="translate(223,295)"/>
<path d="M0 0 C0.96486328 0.27263672 0.96486328 0.27263672 1.94921875 0.55078125 C15.23746319 4.24722585 27.95149575 7.00510894 41.75390625 7.31640625 C42.93339088 7.3475779 42.93339088 7.3475779 44.13670349 7.37937927 C46.61189307 7.44398588 49.0871749 7.50333946 51.5625 7.5625 C53.25586835 7.60577011 54.94922787 7.64938687 56.64257812 7.69335938 C60.76162782 7.79957391 64.88076887 7.90108247 69 8 C58.79519038 14.80320641 37.40189463 12.21177718 25.76953125 10.28125 C21.74663896 9.4462266 17.89543542 8.30547459 14 7 C13.0409375 6.67926514 13.0409375 6.67926514 12.0625 6.35205078 C1.34959365 2.6991873 1.34959365 2.6991873 0 0 Z " fill="#D8D8D8" transform="translate(329,527)"/>
<path d="M0 0 C0.99 0.33 1.98 0.66 3 1 C-6.3776674 14.82746252 -20.55736282 24.19945059 -37 27.625 C-42.94497752 28.39339845 -49.01988998 28.0746477 -55 28 C-54.505 26.515 -54.505 26.515 -54 25 C-53.030625 24.98582031 -52.06125 24.97164062 -51.0625 24.95703125 C-31.60094904 24.38355147 -16.63472518 18.28466174 -2.8984375 4.13671875 C-0.96551133 2.14748457 -0.96551133 2.14748457 0 0 Z " fill="#4A4A4A" transform="translate(410,99)"/>
<path d="M0 0 C-20.52901253 11.17334276 -44.29425944 11.54661968 -67 11 C-67 10.01 -67 9.02 -67 8 C-65.86908936 7.97812622 -65.86908936 7.97812622 -64.71533203 7.95581055 C-46.00900595 7.55286563 -28.63704641 6.73318214 -10.79296875 0.78515625 C-7.02670112 -0.27361269 -3.88128757 -0.30441471 0 0 Z " fill="#484848" transform="translate(417,88)"/>
<path d="M0 0 C0.94875 0.845625 1.8975 1.69125 2.875 2.5625 C20.09196059 17.20207128 38.5485503 24.21908001 61 25 C61 25.33 61 25.66 61 26 C37.05944197 26.86706246 19.87184889 21.29283133 1.72265625 4.94921875 C0 3 0 3 0 0 Z " fill="#353535" transform="translate(307,114)"/>
<path d="M0 0 C0 0.66 0 1.32 0 2 C-12.77981788 6.44515404 -24.89715675 7.4707384 -38.3125 7.375 C-39.08429596 7.37040771 -39.85609192 7.36581543 -40.65127563 7.36108398 C-47.8402913 7.30077713 -54.89137006 7.13568129 -62 6 C-62 5.67 -62 5.34 -62 5 C-60.48369995 4.98598145 -60.48369995 4.98598145 -58.93676758 4.97167969 C-33.12366457 4.80579579 -33.12366457 4.80579579 -7.68359375 0.83984375 C-4 0 -4 0 0 0 Z " fill="#363636" transform="translate(404,74)"/>
<path d="M0 0 C1.13865385 3.41596155 1.02524163 5.82462209 0.87890625 9.41796875 C0.83056641 10.67158203 0.78222656 11.92519531 0.73242188 13.21679688 C0.67634766 14.52712891 0.62027344 15.83746094 0.5625 17.1875 C0.50925765 18.5227663 0.4565174 19.85805272 0.40429688 21.19335938 C0.27447654 24.46247144 0.13950464 27.73128919 0 31 C-0.99 31.33 -1.98 31.66 -3 32 C-3 23.42 -3 14.84 -3 6 C-5.97 7.32 -8.94 8.64 -12 10 C-13.32 9.67 -14.64 9.34 -16 9 C-13.62490421 6.2577019 -11.38265167 5.18082584 -8 3.9375 C-4.96894073 2.81438429 -2.71581089 1.81054059 0 0 Z " fill="#525252" transform="translate(154,323)"/>
<path d="M0 0 C1.76651476 2.64977214 2.54942773 4.37438801 3.4375 7.3515625 C3.69273437 8.20363281 3.94796875 9.05570313 4.2109375 9.93359375 C4.47132813 10.82175781 4.73171875 11.70992187 5 12.625 C5.26039063 13.48996094 5.52078125 14.35492188 5.7890625 15.24609375 C8.92841537 25.82159054 11.2086809 34.95659552 9 46 C8.67 46 8.34 46 8 46 C7.91363281 45.06542969 7.82726562 44.13085938 7.73828125 43.16796875 C6.75596338 33.65053651 4.7968837 24.68027661 2.21875 15.47265625 C1.35289167 12.34632861 0.53258194 9.21456607 -0.21875 6.05859375 C-0.39341797 5.32825928 -0.56808594 4.5979248 -0.74804688 3.84545898 C-1 2 -1 2 0 0 Z " fill="#3D3D3D" transform="translate(179,140)"/>
<path d="M0 0 C3.53796966 3.53796966 3.04525817 8.58255377 3.11352539 13.37475586 C3.11336922 14.98812715 3.10784894 16.60150465 3.09765625 18.21484375 C3.09553383 19.49845543 3.09553383 19.49845543 3.09336853 20.80799866 C3.0878099 23.51786931 3.07526525 26.22765468 3.0625 28.9375 C3.05747965 30.78450401 3.05291768 32.63150932 3.04882812 34.47851562 C3.03785405 38.98570951 3.0206183 43.49284034 3 48 C2.34 48 1.68 48 1 48 C0.67 32.16 0.34 16.32 0 0 Z " fill="#2E2E2E" transform="translate(188,180)"/>
<path d="M0 0 C0.33 0 0.66 0 1 0 C3.30281123 13.71674515 -0.08734681 26.86339969 -4 40 C-4.66 40 -5.32 40 -6 40 C-5.64018124 34.50345829 -4.89628372 29.28610744 -3.5625 23.9375 C-1.63569021 16.04135791 -0.82155441 8.07056392 0 0 Z " fill="#3A3A3A" transform="translate(188,222)"/>
<path d="M0 0 C0.33 0 0.66 0 1 0 C1.33 6.6 1.66 13.2 2 20 C2.33 20 2.66 20 3 20 C3 28.91 3 37.82 3 47 C3.66 47.33 4.32 47.66 5 48 C3.515 48.495 3.515 48.495 2 49 C1.34 49.99 0.68 50.98 0 52 C0 34.84 0 17.68 0 0 Z " fill="#6F6F6F" transform="translate(148,505)"/>
<path d="M0 0 C2.66648371 3.33105349 4.6669681 6.87197848 6.6875 10.625 C7.62142578 12.34589844 7.62142578 12.34589844 8.57421875 14.1015625 C10 17 10 17 10 19 C10.99 19.33 11.98 19.66 13 20 C12 23 12 23 9.890625 24.203125 C9.01921875 24.54859375 8.1478125 24.8940625 7.25 25.25 C6.38890625 25.60578125 5.5278125 25.9615625 4.640625 26.328125 C1.69430914 27.07777933 -0.10144361 26.81326402 -3 26 C-0.61542052 24.41028035 1.6304124 23.13258407 4.1875 21.875 C4.90292969 21.52179688 5.61835938 21.16859375 6.35546875 20.8046875 C6.89816406 20.53914063 7.44085938 20.27359375 8 20 C7.72212646 19.50072998 7.44425293 19.00145996 7.15795898 18.48706055 C5.90728501 16.22617629 4.67229148 13.95709445 3.4375 11.6875 C2.99986328 10.90181641 2.56222656 10.11613281 2.11132812 9.30664062 C1.70205078 8.54931641 1.29277344 7.79199219 0.87109375 7.01171875 C0.48880615 6.31522217 0.10651855 5.61872559 -0.28735352 4.90112305 C-1 3 -1 3 0 0 Z " fill="#424242" transform="translate(126,312)"/>
<path d="M0 0 C1 3 1 3 -0.40625 6.40625 C-1.09182968 7.77707305 -1.79056614 9.14136872 -2.5 10.5 C-2.86440186 11.20962891 -3.22880371 11.91925781 -3.60424805 12.65039062 C-10.40194207 25.7005485 -10.40194207 25.7005485 -14 30 C-14.99 30 -15.98 30 -17 30 C-15.42496472 25.58653215 -13.13271785 21.72197332 -10.6875 17.75 C-7.63539502 12.73705229 -4.66177065 7.70619974 -1.875 2.5390625 C-1 1 -1 1 0 0 Z " fill="#373737" transform="translate(170,294)"/>
<path d="M0 0 C1.57974609 0.39832031 1.57974609 0.39832031 3.19140625 0.8046875 C12.76542108 3.16665735 22.19518442 4.91533336 32 6 C32.495 7.485 32.495 7.485 33 9 C26.69394474 9.21946828 21.03627861 8.4274592 14.875 7.125 C14.00746094 6.95097656 13.13992188 6.77695313 12.24609375 6.59765625 C7.71206103 5.66600569 3.36009224 4.58678767 -1 3 C-0.67 2.01 -0.34 1.02 0 0 Z " fill="#4D4D4D" transform="translate(316,72)"/>
<path d="M0 0 C0.99 0.33 1.98 0.66 3 1 C3.04962653 5.03845412 3.08582632 9.07678887 3.10986328 13.11547852 C3.11988926 14.48790583 3.13351356 15.86031195 3.15087891 17.23266602 C3.17527627 19.21100527 3.18544484 21.18950367 3.1953125 23.16796875 C3.20578613 24.35672607 3.21625977 25.5454834 3.22705078 26.77026367 C3.00370033 29.94736386 2.36116639 32.14343455 1 35 C0.67 35 0.34 35 0 35 C0 23.45 0 11.9 0 0 Z " fill="#565656" transform="translate(149,450)"/>
<path d="M0 0 C11.22 0 22.44 0 34 0 C33.67 0.66 33.34 1.32 33 2 C26.05120675 3.32795448 19.05047231 3.11499493 12 3.0625 C10.84371094 3.05798828 9.68742187 3.05347656 8.49609375 3.04882812 C5.66400775 3.03712529 2.83203189 3.02072996 0 3 C0 2.01 0 1.02 0 0 Z " fill="#555555" transform="translate(350,96)"/>
<path d="M0 0 C0.99 0.33 1.98 0.66 3 1 C0.69 7.27 -1.62 13.54 -4 20 C-4.99 20 -5.98 20 -7 20 C-5.07443364 13.14381674 -2.7527517 6.56747868 0 0 Z " fill="#3C3C3C" transform="translate(549,132)"/>
<path d="M0 0 C0 0.99 0 1.98 0 3 C-2.04099935 3.7933855 -4.0828309 4.5846303 -6.125 5.375 C-7.26195312 5.81585938 -8.39890625 6.25671875 -9.5703125 6.7109375 C-12.69282513 7.88454703 -15.82815631 8.96842774 -19 10 C-19.33 9.01 -19.66 8.02 -20 7 C-17.04380781 5.8278551 -14.08471211 4.66322524 -11.125 3.5 C-10.28324219 3.16613281 -9.44148437 2.83226563 -8.57421875 2.48828125 C-7.76855469 2.17246094 -6.96289062 1.85664062 -6.1328125 1.53125 C-5.38918457 1.23798828 -4.64555664 0.94472656 -3.87939453 0.64257812 C-2 0 -2 0 0 0 Z " fill="#444444" transform="translate(244,95)"/>
<path d="M0 0 C-3.2875539 3.2875539 -6.82258831 4.86309259 -11.0625 6.625 C-12.12597656 7.07101563 -13.18945312 7.51703125 -14.28515625 7.9765625 C-17 9 -17 9 -19 9 C-19 8.34 -19 7.68 -19 7 C-19.66 6.67 -20.32 6.34 -21 6 C-20.18208984 5.74476562 -20.18208984 5.74476562 -19.34765625 5.484375 C-14.34676359 3.87725052 -9.65531436 2.00155334 -4.9453125 -0.328125 C-3 -1 -3 -1 0 0 Z " fill="#4C4C4C" transform="translate(423,67)"/>
<path d="M0 0 C0.33 0 0.66 0 1 0 C1 8.25 1 16.5 1 25 C0.34 25 -0.32 25 -1 25 C-2.37323944 8.96478873 -2.37323944 8.96478873 -1 1 C-0.67 0.67 -0.34 0.34 0 0 Z " fill="#404040" transform="translate(576,560)"/>
<path d="M0 0 C0.52464844 0.12117188 1.04929687 0.24234375 1.58984375 0.3671875 C9.98591371 2.18330912 18.47052786 3.06987195 27 4 C27 4.33 27 4.66 27 5 C24.02026385 5.08184423 21.04283168 5.14089764 18.0625 5.1875 C16.81629883 5.22520508 16.81629883 5.22520508 15.54492188 5.26367188 C9.49797101 5.33425885 4.60483651 4.25464398 -1 2 C-0.67 1.34 -0.34 0.68 0 0 Z " fill="#353535" transform="translate(341,121)"/>
<path d="M0 0 C-6.50594543 3.50213658 -12.84870304 6.12849037 -20 8 C-19 5 -19 5 -15.76171875 3.359375 C-14.4083673 2.81111463 -13.04999858 2.27511638 -11.6875 1.75 C-11.01009766 1.46898438 -10.33269531 1.18796875 -9.63476562 0.8984375 C-3.4721977 -1.53526479 -3.4721977 -1.53526479 0 0 Z " fill="#3D3D3D" transform="translate(264,89)"/>
<path d="M0 0 C5 1 5 1 7 2 C7 2.66 7 3.32 7 4 C5.35 3.67 3.7 3.34 2 3 C2 12.24 2 21.48 2 31 C1.67 31 1.34 31 1 31 C0.67 20.77 0.34 10.54 0 0 Z " fill="#232323" transform="translate(571,325)"/>
<path d="M0 0 C0.33 0.66 0.66 1.32 1 2 C1.66 2.33 2.32 2.66 3 3 C1.68 7.62 0.36 12.24 -1 17 C-1.99 16.34 -2.98 15.68 -4 15 C-3.79503906 14.25234375 -3.59007812 13.5046875 -3.37890625 12.734375 C-3.10949219 11.74953125 -2.84007812 10.7646875 -2.5625 9.75 C-2.29566406 8.77546875 -2.02882812 7.8009375 -1.75390625 6.796875 C-1.14455416 4.53627347 -0.55761745 2.27377991 0 0 Z " fill="#525252" transform="translate(181,260)"/>
<path d="M0 0 C5.39882424 4.59474404 10.71333087 9.27676273 16 14 C15.34 14.66 14.68 15.32 14 16 C8.92734681 11.76420584 3.80424409 7.46139587 0 2 C0 1.34 0 0.68 0 0 Z " fill="#DDDDDD" transform="translate(502,295)"/>
<path d="M0 0 C2.59037598 3.20490963 4.37943156 6.55350453 6.1875 10.25 C6.71730469 11.32765625 7.24710938 12.4053125 7.79296875 13.515625 C8.19128906 14.33546875 8.58960937 15.1553125 9 16 C8.01 16.33 7.02 16.66 6 17 C4.79715599 14.92426919 3.61294299 12.84116905 2.4375 10.75 C1.92413086 9.87021484 1.92413086 9.87021484 1.40039062 8.97265625 C-1.06382218 4.54205141 -1.06382218 4.54205141 -0.71484375 1.578125 C-0.47894531 1.05734375 -0.24304688 0.5365625 0 0 Z " fill="#3F3F3F" transform="translate(92,281)"/>
<path d="M0 0 C0.33 0 0.66 0 1 0 C1.66 5.94 2.32 11.88 3 18 C2.01 18 1.02 18 0 18 C-0.36504603 16.41913952 -0.71660506 14.83516093 -1.0625 13.25 C-1.25972656 12.36828125 -1.45695313 11.4865625 -1.66015625 10.578125 C-2.0028288 7.97854012 -1.80635399 6.46150165 -1 4 C-0.814375 3.2575 -0.62875 2.515 -0.4375 1.75 C-0.293125 1.1725 -0.14875 0.595 0 0 Z " fill="#4E4E4E" transform="translate(537,227)"/>
<path d="M0 0 C0 0.66 0 1.32 0 2 C-2.09956889 3.49926962 -4.1728609 4.85646023 -6.375 6.1875 C-6.97828125 6.56841797 -7.5815625 6.94933594 -8.203125 7.34179688 C-9.76219952 8.29629694 -11.37849474 9.15590022 -13 10 C-13.66 9.67 -14.32 9.34 -15 9 C-10.9401644 4.57108844 -6.34294337 0 0 0 Z " fill="#363636" transform="translate(100,168)"/>
<path d="M0 0 C3.93235904 4.49412462 8 9.84759838 8 16 C7.34 16 6.68 16 6 16 C4.79994469 13.9021477 3.61497017 11.7979751 2.4375 9.6875 C1.92413086 8.79514648 1.92413086 8.79514648 1.40039062 7.88476562 C0.52233738 6.29717441 -0.24586268 4.65006069 -1 3 C-0.67 2.01 -0.34 1.02 0 0 Z " fill="#353535" transform="translate(48,201)"/>
<path d="M0 0 C4.15672685 4.78023587 7 10.68147308 7 17 C6.34 17 5.68 17 5 17 C4.15557119 15.10908264 3.32488413 13.21202485 2.5 11.3125 C2.0359375 10.25675781 1.571875 9.20101562 1.09375 8.11328125 C0.05049199 5.14372184 -0.23065301 3.10804937 0 0 Z " fill="#3A3A3A" transform="translate(172,125)"/>
<path d="M0 0 C4.10958767 1.45044271 7.43258745 3.51110752 11 6 C10.67 6.99 10.34 7.98 10 9 C8.824375 8.505 8.824375 8.505 7.625 8 C5.15667503 6.88133489 5.15667503 6.88133489 3 7 C2.67 6.01 2.34 5.02 2 4 C1.01 3.67 0.02 3.34 -1 3 C-0.67 2.01 -0.34 1.02 0 0 Z " fill="#333333" transform="translate(660,189)"/>
<path d="M0 0 C-5.012018 2.78445444 -9.64000656 3.12483509 -15.3125 3.0625 C-16.38113281 3.05347656 -17.44976562 3.04445313 -18.55078125 3.03515625 C-19.35902344 3.02355469 -20.16726562 3.01195312 -21 3 C-21 2.67 -21 2.34 -21 2 C-18.62733173 1.46569684 -16.25293117 0.94737476 -13.875 0.4375 C-12.87726563 0.21030273 -12.87726563 0.21030273 -11.859375 -0.02148438 C-7.59513257 -0.92031979 -4.24075907 -0.9974371 0 0 Z " fill="#DDDDDD" transform="translate(175,328)"/>
<path d="M0 0 C1.1796875 1.640625 1.1796875 1.640625 2 4 C0.8828125 6.796875 0.8828125 6.796875 -0.875 9.75 C-1.44992187 10.73484375 -2.02484375 11.7196875 -2.6171875 12.734375 C-3.07351563 13.48203125 -3.52984375 14.2296875 -4 15 C-5.1796875 13.359375 -5.1796875 13.359375 -6 11 C-4.8828125 8.203125 -4.8828125 8.203125 -3.125 5.25 C-2.55007813 4.26515625 -1.97515625 3.2803125 -1.3828125 2.265625 C-0.92648437 1.51796875 -0.47015625 0.7703125 0 0 Z " fill="#424242" transform="translate(654,242)"/>
<path d="M0 0 C2 1 2 1 3 3 C-3.93 6.465 -3.93 6.465 -11 10 C-11 9.01 -11 8.02 -11 7 C-8.6640625 5.140625 -8.6640625 5.140625 -5.625 3.25 C-4.62726562 2.61578125 -3.62953125 1.9815625 -2.6015625 1.328125 C-1.31378906 0.67070312 -1.31378906 0.67070312 0 0 Z " fill="#414141" transform="translate(57,193)"/>
<path d="M0 0 C6.01059682 4.37134314 10.61756248 10.05050907 15 16 C12 16 12 16 9.84375 13.953125 C9.0703125 13.06109375 8.296875 12.1690625 7.5 11.25 C6.7265625 10.36828125 5.953125 9.4865625 5.15625 8.578125 C0 2.41304348 0 2.41304348 0 0 Z " fill="#DCDCDC" transform="translate(206,411)"/>
<path d="M0 0 C3.18005028 3.88672813 6.10554447 7.89952133 9 12 C8.34 12.66 7.68 13.32 7 14 C5.81856904 12.61664079 4.65534866 11.21771574 3.5 9.8125 C2.8503125 9.03519531 2.200625 8.25789063 1.53125 7.45703125 C-0.1952605 4.68668659 -0.31838702 3.20092666 0 0 Z " fill="#434343" transform="translate(299,102)"/>
<path d="M0 0 C0.33 0 0.66 0 1 0 C1.99 4.95 2.98 9.9 4 15 C3.34 15 2.68 15 2 15 C1.67 15.66 1.34 16.32 1 17 C-0.88341198 10.90660831 -1.0748291 6.27467799 0 0 Z " fill="#4D4D4D" transform="translate(303,70)"/>
<path d="M0 0 C0.66 0 1.32 0 2 0 C2.86846831 1.74294678 3.71930627 3.49468663 4.5625 5.25 C5.27599609 6.71179688 5.27599609 6.71179688 6.00390625 8.203125 C7.03510273 11.09856297 7.11346788 12.19966161 6 15 C4.99267601 13.06629769 3.99436712 11.12789694 3 9.1875 C2.443125 8.10855469 1.88625 7.02960938 1.3125 5.91796875 C0 3 0 3 0 0 Z " fill="#373737" transform="translate(292,90)"/>
<path d="M0 0 C6.08233706 0.67581523 12.01314152 1.73638028 18 3 C18 3.33 18 3.66 18 4 C11.35590042 4.21432579 5.46794133 3.51233701 -1 2 C-0.67 1.34 -0.34 0.68 0 0 Z " fill="#DDDDDD" transform="translate(553,327)"/>
<path d="M0 0 C0 4.33021472 -2.22652099 5.94386639 -5.04296875 9.05859375 C-7.51834304 11.51420457 -9.99767954 13.24254412 -13 15 C-13 12 -13 12 -10.41015625 9.3359375 C-9.30171641 8.34060376 -8.18545849 7.35392409 -7.0625 6.375 C-6.49853516 5.87226563 -5.93457031 5.36953125 -5.35351562 4.8515625 C-3.9068874 3.56259077 -2.45389845 2.28076564 -1 1 C-0.67 0.67 -0.34 0.34 0 0 Z " fill="#DBDBDB" transform="translate(223,295)"/>
<path d="M0 0 C2.97 0.495 2.97 0.495 6 1 C6 1.99 6 2.98 6 4 C5.01 3.67 4.02 3.34 3 3 C2.731875 3.969375 2.46375 4.93875 2.1875 5.9375 C1.795625 6.948125 1.40375 7.95875 1 9 C0.01 9.33 -0.98 9.66 -2 10 C-1.855625 9.36191406 -1.71125 8.72382813 -1.5625 8.06640625 C-1.376875 7.24011719 -1.19125 6.41382813 -1 5.5625 C-0.7215625 4.32693359 -0.7215625 4.32693359 -0.4375 3.06640625 C0.03452147 1.18898311 0.03452147 1.18898311 0 0 Z " fill="#303030" transform="translate(552,122)"/>
<path d="M0 0 C2.59269983 0.01747888 5.0525154 0.13768592 7.625 0.375 C8.33140625 0.43171875 9.0378125 0.4884375 9.765625 0.546875 C11.51121361 0.68840921 13.25573673 0.84297387 15 1 C13.73828125 2.515625 13.73828125 2.515625 12 4 C9.2103901 3.81707476 6.72218725 3.5177795 4 3 C2.845 2.814375 1.69 2.62875 0.5 2.4375 C-0.7375 2.2209375 -0.7375 2.2209375 -2 2 C-1.34 1.34 -0.68 0.68 0 0 Z " fill="#535353" transform="translate(331,94)"/>
<path d="M0 0 C2.64179275 3.19184343 4.14549017 6.41581339 5.6875 10.25 C6.34298828 11.86648438 6.34298828 11.86648438 7.01171875 13.515625 C7.33785156 14.33546875 7.66398438 15.1553125 8 16 C7.01 16 6.02 16 5 16 C4.15787744 14.08717875 3.32661136 12.16957527 2.5 10.25 C2.0359375 9.18265625 1.571875 8.1153125 1.09375 7.015625 C0 4 0 4 0 0 Z " fill="#D9D9D9" transform="translate(516,258)"/>
<path d="M0 0 C-0.11389875 1.79240663 -0.24147687 3.58394835 -0.375 5.375 C-0.47941406 6.87160156 -0.47941406 6.87160156 -0.5859375 8.3984375 C-1 11 -1 11 -3 13 C-3.92311745 8.69211856 -4.09771253 5.29105809 -3 1 C-1 0 -1 0 0 0 Z " fill="#484848" transform="translate(423,71)"/>
<path d="M0 0 C-1.875 4.75 -1.875 4.75 -3 7 C-4.65 7 -6.3 7 -8 7 C-7.1875 4.0625 -7.1875 4.0625 -6 1 C-3 0 -3 0 0 0 Z " fill="#CBCBCB" transform="translate(416,89)"/>
<path d="M0 0 C3.99500618 1.3697164 6.80009492 3.25722422 10 6 C8.265625 6.65234375 8.265625 6.65234375 6 7 C3.859375 6.00390625 3.859375 6.00390625 1.75 4.5625 C1.04359375 4.08941406 0.3371875 3.61632812 -0.390625 3.12890625 C-0.92171875 2.75636719 -1.4528125 2.38382813 -2 2 C-1.34 1.34 -0.68 0.68 0 0 Z " fill="#404040" transform="translate(594,147)"/>
<path d="M0 0 C0.66 0.33 1.32 0.66 2 1 C1.52354792 5.28806873 0.34097516 7.26647487 -3 10 C-3.66 10 -4.32 10 -5 10 C-3.66511872 6.40608886 -2.03977277 3.24509304 0 0 Z " fill="#3D3D3D" transform="translate(158,314)"/>
<path d="M0 0 C0.66 0 1.32 0 2 0 C1.42365861 4.75481646 -0.55068521 7.97048212 -3 12 C-3.33 12 -3.66 12 -4 12 C-4.61528766 6.92387682 -2.61658349 4.17017994 0 0 Z " fill="#353535" transform="translate(647,255)"/>
<path d="M0 0 C3.99500618 1.3697164 6.80009492 3.25722422 10 6 C8.265625 6.65234375 8.265625 6.65234375 6 7 C3.859375 6.00390625 3.859375 6.00390625 1.75 4.5625 C1.04359375 4.08941406 0.3371875 3.61632812 -0.390625 3.12890625 C-0.92171875 2.75636719 -1.4528125 2.38382813 -2 2 C-1.34 1.34 -0.68 0.68 0 0 Z " fill="#3E3E3E" transform="translate(616,161)"/>
<path d="M0 0 C-1.59092052 4.13639336 -4.60474918 7.23213248 -8 10 C-8.66 10 -9.32 10 -10 10 C-8.50006099 6.10015857 -4.53875449 0 0 0 Z " fill="#343434" transform="translate(419,113)"/>
<path d="M0 0 C3.80909895 0.32417863 5.78372163 0.85581442 9 3 C9 3.66 9 4.32 9 5 C5.0507432 4.44894091 1.65079826 3.61064629 -2 2 C-1.34 1.34 -0.68 0.68 0 0 Z " fill="#393939" transform="translate(578,328)"/>
<path d="M0 0 C0.33 0 0.66 0 1 0 C0.85831863 1.43791516 0.71148957 2.8753237 0.5625 4.3125 C0.48128906 5.11300781 0.40007812 5.91351563 0.31640625 6.73828125 C0 9 0 9 -1 12 C-1.66 12 -2.32 12 -3 12 C-2.67 8.7 -2.34 5.4 -2 2 C-1.34 2 -0.68 2 0 2 C0 1.34 0 0.68 0 0 Z " fill="#333333" transform="translate(185,250)"/>
<path d="M0 0 C0.66 0 1.32 0 2 0 C1.39301257 4.12751449 -0.03810791 7.3321148 -2 11 C-2.66 11 -3.32 11 -4 11 C-3.39301257 6.87248551 -1.96189209 3.6678852 0 0 Z " fill="#373737" transform="translate(639,238)"/>
<path d="M0 0 C0.66 0.33 1.32 0.66 2 1 C2 1.66 2 2.32 2 3 C0.03852126 4.38938077 -1.96166576 5.7260411 -4 7 C-5.32 6.34 -6.64 5.68 -8 5 C-6.71475739 4.13619741 -5.42157581 3.28419631 -4.125 2.4375 C-3.04605469 1.72400391 -3.04605469 1.72400391 -1.9453125 0.99609375 C-1.30335937 0.66738281 -0.66140625 0.33867187 0 0 Z " fill="#3E3E3E" transform="translate(84,176)"/>
<path d="M0 0 C0.99 0.33 1.98 0.66 3 1 C0.525 5.455 0.525 5.455 -2 10 C-2.66 9.67 -3.32 9.34 -4 9 C-2.94124926 5.59687262 -1.99097846 2.98646769 0 0 Z " fill="#424242" transform="translate(662,196)"/>
<path d="M0 0 C-6.5 4 -6.5 4 -11 4 C-11 3.34 -11 2.68 -11 2 C-3.57142857 -1.57142857 -3.57142857 -1.57142857 0 0 Z " fill="#383838" transform="translate(394,118)"/>
<path d="M0 0 C0 0.66 0 1.32 0 2 C-4.53701494 3.45184478 -8.18061476 4.23509196 -13 4 C-8.68630028 1.12420019 -5.19265239 0 0 0 Z " fill="#2B2B2B" transform="translate(404,74)"/>
<path d="M0 0 C2.97 0.99 5.94 1.98 9 3 C9 3.66 9 4.32 9 5 C5.0507432 4.44894091 1.65079826 3.61064629 -2 2 C-1.34 1.34 -0.68 0.68 0 0 Z " fill="#3D3D3D" transform="translate(307,69)"/>
<path d="M0 0 C3 1 3 1 4.6875 3.875 C6 7 6 7 6 10 C5.34 10 4.68 10 4 10 C3.32845067 8.71086513 2.66291141 7.41859796 2 6.125 C1.62875 5.40570313 1.2575 4.68640625 0.875 3.9453125 C0 2 0 2 0 0 Z " fill="#363636" transform="translate(120,304)"/>
<path d="M0 0 C2.9719385 1.12451727 5.33440687 2.22293791 8 4 C8 4.66 8 5.32 8 6 C4.62537285 5.45276317 2.91765 4.9451 0 3 C0 2.01 0 1.02 0 0 Z " fill="#3D3D3D" transform="translate(652,184)"/>
<path d="M0 0 C2.12046792 3.53411321 2.53199289 6.94393835 3 11 C2.01 11.495 2.01 11.495 1 12 C0.63597631 10.56496445 0.28413409 9.12683494 -0.0625 7.6875 C-0.25972656 6.88699219 -0.45695312 6.08648437 -0.66015625 5.26171875 C-1 3 -1 3 0 0 Z " fill="#4A4A4A" transform="translate(290,79)"/>
<path d="M0 0 C0.66 0 1.32 0 2 0 C1.4359146 3.94859783 0.2568294 6.70879046 -2 10 C-2.33 10 -2.66 10 -3 10 C-3.3636198 5.75776898 -2.5393228 3.41831915 0 0 Z " fill="#343434" transform="translate(664,224)"/>
<path d="M0 0 C0.66 0.99 1.32 1.98 2 3 C0.68 5.64 -0.64 8.28 -2 11 C-2.66 9.68 -3.32 8.36 -4 7 C-3.06434658 4.35435928 -1.54985485 2.37036624 0 0 Z " fill="#454545" transform="translate(651,216)"/>
<path d="M0 0 C1.60875 0.3403125 1.60875 0.3403125 3.25 0.6875 C2.92 1.6775 2.59 2.6675 2.25 3.6875 C-1.05 3.3575 -4.35 3.0275 -7.75 2.6875 C-3.75 -0.3125 -3.75 -0.3125 0 0 Z " fill="#DBDBDB" transform="translate(342.75,488.3125)"/>
<path d="M0 0 C0.66 0.33 1.32 0.66 2 1 C1.46930939 4.82097239 0.50298434 7.06171403 -2 10 C-2.6875 8.375 -2.6875 8.375 -3 6 C-1.5625 2.75 -1.5625 2.75 0 0 Z " fill="#454545" transform="translate(628,258)"/>
<path d="M0 0 C1.96446905 1.6344795 2.92317791 2.46429394 3.29296875 5.04296875 C3.1953125 7.02864583 3.09765625 9.01432292 3 11 C2.34 10.67 1.68 10.34 1 10 C0.5859375 7.71484375 0.5859375 7.71484375 0.375 4.9375 C0.30023437 4.01839844 0.22546875 3.09929687 0.1484375 2.15234375 C0.09945312 1.44207031 0.05046875 0.73179687 0 0 Z " fill="#323232" transform="translate(538,243)"/>
<path d="M0 0 C0.66 0.33 1.32 0.66 2 1 C1.50168276 4.68754757 0.89932357 6.60490662 -2 9 C-3 6 -3 6 -1.5625 2.8125 C-1.046875 1.884375 -0.53125 0.95625 0 0 Z " fill="#404040" transform="translate(668,216)"/>
<path d="M0 0 C0.33 0 0.66 0 1 0 C1.08333357 4.8333472 0.95261487 9.23692563 0 14 C-0.33 14 -0.66 14 -1 14 C-1.33 10.04 -1.66 6.08 -2 2 C-1.34 2 -0.68 2 0 2 C0 1.34 0 0.68 0 0 Z " fill="#535353" transform="translate(188,172)"/>
<path d="M0 0 C1.17539996 0.92652701 2.34010577 1.86663387 3.5 2.8125 C4.1496875 3.33457031 4.799375 3.85664062 5.46875 4.39453125 C7 6 7 6 7 9 C5.82460004 8.07347299 4.65989423 7.13336613 3.5 6.1875 C2.52546875 5.40439453 2.52546875 5.40439453 1.53125 4.60546875 C0 3 0 3 0 0 Z " fill="#2E2E2E" transform="translate(316,103)"/>
<path d="M0 0 C1.67542976 0.28604898 3.34385343 0.61781233 5 1 C5.33 1.99 5.66 2.98 6 4 C4.02 4.33 2.04 4.66 0 5 C-0.5625 3.0625 -0.5625 3.0625 -1 1 C-0.67 0.67 -0.34 0.34 0 0 Z " fill="#2F2F2F" transform="translate(421,67)"/>
<path d="M0 0 C0.66 0 1.32 0 2 0 C1.44271087 3.34373475 0.64826111 6.03312999 -1 9 C-1.66 9 -2.32 9 -3 9 C-2.44271087 5.65626525 -1.64826111 2.96687001 0 0 Z " fill="#363636" transform="translate(624,266)"/>
<path d="M0 0 C0 0.66 0 1.32 0 2 C-0.99 2 -1.98 2 -3 2 C-3 3.65 -3 5.3 -3 7 C-4.32 5.68 -5.64 4.36 -7 3 C-4.49955934 -0.00052879 -4.2621484 0 0 0 Z " fill="#2F2F2F" transform="translate(175,121)"/>
<path d="M0 0 C3.73639216 1.24546405 4.18756513 2.63404953 6 6 C5.34 6.66 4.68 7.32 4 8 C0 3.375 0 3.375 0 0 Z " fill="#424242" transform="translate(311,97)"/>
<path d="M0 0 C0.66 0 1.32 0 2 0 C1.46930939 3.82097239 0.50298434 6.06171403 -2 9 C-3 6 -3 6 -1.5625 2.8125 C-1.046875 1.884375 -0.53125 0.95625 0 0 Z " fill="#333333" transform="translate(618,308)"/>
<path d="M0 0 C1.77706209 2.66559313 2.87548273 5.0280615 4 8 C3.01 8.33 2.02 8.66 1 9 C-0.61949011 6.42786866 -1.04408751 5.32330841 -0.625 2.25 C-0.41875 1.5075 -0.2125 0.765 0 0 Z " fill="#414141" transform="translate(556,294)"/>
<path d="M0 0 C2.25245881 2.68841859 3.88213958 4.64641875 5 8 C4.01 8.33 3.02 8.66 2 9 C0.93347808 6.69631264 -0.06421005 4.35981813 -1 2 C-0.67 1.34 -0.34 0.68 0 0 Z " fill="#474747" transform="translate(83,234)"/>
<path d="M0 0 C3 1 3 1 4.1875 2.875 C5 5 5 5 5 8 C4.34 8 3.68 8 3 8 C0 2.25 0 2.25 0 0 Z " fill="#2F2F2F" transform="translate(75,253)"/>
<path d="M0 0 C3 1 3 1 4.25 2.8125 C5.11637742 5.33943414 4.88492145 6.52221994 4 9 C0 2.25 0 2.25 0 0 Z " fill="#373737" transform="translate(71,215)"/>
<path d="M0 0 C0 0.66 0 1.32 0 2 C-6.75 1.25 -6.75 1.25 -9 -1 C-5.79937313 -2.60031344 -3.27728194 -1.03173691 0 0 Z " fill="#3B3B3B" transform="translate(341,135)"/>
<path d="M0 0 C2.31 1.98 4.62 3.96 7 6 C6.34 6.66 5.68 7.32 5 8 C2.5 5.6875 2.5 5.6875 0 3 C0 2.01 0 1.02 0 0 Z " fill="#2E2E2E" transform="translate(307,114)"/>
<path d="M0 0 C0.33 0.99 0.66 1.98 1 3 C-0.98 3.66 -2.96 4.32 -5 5 C-5.66 4.34 -6.32 3.68 -7 3 C-4.69 2.01 -2.38 1.02 0 0 Z " fill="#464646" transform="translate(280,79)"/>
<path d="M0 0 C0.99 0.33 1.98 0.66 3 1 C3.33 2.98 3.66 4.96 4 7 C3.34 7 2.68 7 2 7 C0.5393715 4.35261084 0 3.10551666 0 0 Z " fill="#353535" transform="translate(552,289)"/>
<path d="M0 0 C3 1 3 1 4.1875 2.875 C5 5 5 5 5 8 C4.34 8 3.68 8 3 8 C0 2.25 0 2.25 0 0 Z " fill="#323232" transform="translate(87,275)"/>
<path d="M0 0 C1.89213369 2.38573379 3.02391783 4.07175348 4 7 C3.01 7.33 2.02 7.66 1 8 C0.26919734 6.02253397 -0.39421747 4.01927511 -1 2 C-0.67 1.34 -0.34 0.68 0 0 Z " fill="#444444" transform="translate(73,246)"/>
<path d="M0 0 C0.99 0.33 1.98 0.66 3 1 C4.1875 4.0625 4.1875 4.0625 5 7 C4.01 7.495 4.01 7.495 3 8 C0 2.25 0 2.25 0 0 Z " fill="#353535" transform="translate(86,242)"/>
<path d="M0 0 C1.89213369 2.38573379 3.02391783 4.07175348 4 7 C3.01 7.33 2.02 7.66 1 8 C0.26919734 6.02253397 -0.39421747 4.01927511 -1 2 C-0.67 1.34 -0.34 0.68 0 0 Z " fill="#454545" transform="translate(56,215)"/>
<path d="M0 0 C4.75 0.875 4.75 0.875 7 2 C7 2.66 7 3.32 7 4 C4.03 3.505 4.03 3.505 1 3 C0.67 2.01 0.34 1.02 0 0 Z " fill="#3B3B3B" transform="translate(334,118)"/>
<path d="M0 0 C6.75 0.75 6.75 0.75 9 3 C6 4 6 4 2.8125 2.5625 C1.884375 2.046875 0.95625 1.53125 0 1 C0 0.67 0 0.34 0 0 Z " fill="#3B3B3B" transform="translate(491,100)"/>
<path d="M0 0 C5.53846154 0.61538462 5.53846154 0.61538462 7.875 2.5625 C8.431875 3.2740625 8.431875 3.2740625 9 4 C3.46153846 3.38461538 3.46153846 3.38461538 1.125 1.4375 C0.75375 0.963125 0.3825 0.48875 0 0 Z " fill="#333333" transform="translate(446,81)"/>
<path d="M0 0 C0.99 0.33 1.98 0.66 3 1 C1.02 3.97 1.02 3.97 -1 7 C-1.625 5.1875 -1.625 5.1875 -2 3 C-1.34 2.01 -0.68 1.02 0 0 Z " fill="#464646" transform="translate(596,318)"/>
<path d="M0 0 C1.89213369 2.38573379 3.02391783 4.07175348 4 7 C2.68 6.67 1.36 6.34 0 6 C-1.125 2.25 -1.125 2.25 0 0 Z " fill="#474747" transform="translate(101,266)"/>
<path d="M0 0 C0.99 0 1.98 0 3 0 C3.66 1.98 4.32 3.96 5 6 C4.01 6 3.02 6 2 6 C1.34 4.02 0.68 2.04 0 0 Z " fill="#414141" transform="translate(84,270)"/>
<path d="M0 0 C2.97 0.495 2.97 0.495 6 1 C6.33 2.32 6.66 3.64 7 5 C3.535 3.02 3.535 3.02 0 1 C0 0.67 0 0.34 0 0 Z " fill="#333333" transform="translate(645,181)"/>
<path d="M0 0 C2.97 0.495 2.97 0.495 6 1 C6.33 2.32 6.66 3.64 7 5 C3.535 3.02 3.535 3.02 0 1 C0 0.67 0 0.34 0 0 Z " fill="#323232" transform="translate(623,167)"/>
<path d="M0 0 C0.66 0.33 1.32 0.66 2 1 C1 4 1 4 -1.0625 5.1875 C-1.701875 5.455625 -2.34125 5.72375 -3 6 C-3 4.68 -3 3.36 -3 2 C-2.01 1.34 -1.02 0.68 0 0 Z " fill="#414141" transform="translate(115,156)"/>
<path d="M0 0 C0.66 0.66 1.32 1.32 2 2 C1.625 5.125 1.625 5.125 1 8 C0.01 8 -0.98 8 -2 8 C-1.34 5.36 -0.68 2.72 0 0 Z " fill="#494949" transform="translate(544,144)"/>
<path d="M0 0 C2.97 0.495 2.97 0.495 6 1 C6.33 2.32 6.66 3.64 7 5 C3.535 3.02 3.535 3.02 0 1 C0 0.67 0 0.34 0 0 Z " fill="#333333" transform="translate(571,134)"/>
<path d="M0 0 C2.91517292 1.07401108 4.77810176 1.77810176 7 4 C5.1875 4.625 5.1875 4.625 3 5 C2.01 4.34 1.02 3.68 0 3 C0 2.01 0 1.02 0 0 Z " fill="#434343" transform="translate(567,130)"/>
<path d="M0 0 C-5.75 3 -5.75 3 -8 3 C-7.67 2.01 -7.34 1.02 -7 0 C-3.86650268 -1.04449911 -3.01031744 -0.93423645 0 0 Z " fill="#333333" transform="translate(252,94)"/>
<path d="M0 0 C0.66 0.66 1.32 1.32 2 2 C1.625 5.625 1.625 5.625 1 9 C0.34 8.34 -0.32 7.68 -1 7 C-0.625 3.375 -0.625 3.375 0 0 Z " fill="#4D4D4D" transform="translate(433,79)"/>
</svg>
