<?xml version="1.0" encoding="UTF-8"?>
<svg version="1.1" xmlns="http://www.w3.org/2000/svg" width="676" height="629">
<path d="M0 0 C223.08 0 446.16 0 676 0 C676 207.57 676 415.14 676 629 C452.92 629 229.84 629 0 629 C0 421.43 0 213.86 0 0 Z " fill="#FEFEFE" transform="translate(0,0)"/>
<path d="M0 0 C223.08 0 446.16 0 676 0 C676 207.57 676 415.14 676 629 C452.92 629 229.84 629 0 629 C0 421.43 0 213.86 0 0 Z M267.125 62.875 C232.35607997 82.88972822 193.20409044 96.10724185 155.23486328 108.75415039 C144.83433161 112.2562151 136.43499505 116.86410187 127.3125 122.9375 C119.71302386 127.94855885 112.07278573 132.86664452 104.3125 137.625 C96.58988992 142.36566952 88.9644814 147.23476216 81.38037109 152.19360352 C72.65033279 157.89694184 63.82838669 163.45062433 55 169 C42.94541069 176.58402937 30.93863549 184.23453671 19 192 C19.60940881 196.16916053 21.02523049 199.28672114 23.02734375 202.98046875 C23.64947754 204.13514648 24.27161133 205.28982422 24.91259766 206.47949219 C25.58736153 207.71560594 26.26233351 208.95160611 26.9375 210.1875 C27.62856134 211.46361338 28.31915055 212.73998254 29.00927734 214.01660156 C33.05465461 221.48688414 37.14688821 228.93132306 41.29736328 236.34375 C44.6989871 242.42455355 48.00752618 248.55373819 51.3125 254.6875 C55.677472 262.78412039 60.13498783 270.81989374 64.6875 278.8125 C69.00111848 286.38705809 73.15736755 294.01875463 77.17016602 301.75634766 C82.5076008 311.98706601 88.27361802 321.98356073 94 332 C98.26941071 331.42133149 101.87456091 330.39736392 105.8359375 328.71484375 C106.89941406 328.26689453 107.96289062 327.81894531 109.05859375 327.35742188 C110.15300781 326.88884766 111.24742188 326.42027344 112.375 325.9375 C113.49261719 325.46505859 114.61023438 324.99261719 115.76171875 324.50585938 C118.51031485 323.3429918 121.25623832 322.17421814 124 321 C123.97494385 321.58225342 123.9498877 322.16450684 123.92407227 322.7644043 C123.30447538 337.49563636 122.8599825 352.22850731 122.53125 366.96875 C122.51037889 367.90011465 122.48950779 368.8314793 122.46800423 369.79106712 C121.81440532 399.37751017 121.44037653 428.96926771 121.03720862 458.55994815 C120.94903588 465.01288605 120.85739679 471.46577131 120.76496977 477.91864949 C120.67372815 484.29802074 120.5847456 490.67742109 120.49739558 497.0568468 C120.4375973 501.42228931 120.37646543 505.78770671 120.31261909 510.15309203 C119.9933174 532.77365095 120 555.37256528 120 578 C261.9 578 403.8 578 550 578 C550.00764783 529.34496196 550.00764783 529.34496196 549.39421272 480.70624352 C549.30604371 476.03246622 549.22439004 471.35857393 549.14196777 466.68469238 C548.98644371 457.91189123 548.82627846 449.13918288 548.66385221 440.36650705 C548.37232121 424.61603582 548.08781991 408.86543781 547.80709887 393.11477041 C547.70915053 387.63058459 547.60865131 382.14645359 547.50604486 376.66235304 C547.16023892 358.10602588 546.88497896 339.56051901 547 321 C547.8818396 321.40480591 548.7636792 321.80961182 549.67224121 322.22668457 C552.56806271 323.5535265 555.46812865 324.87025211 558.37084961 326.18188477 C559.66150667 326.76724878 560.95058811 327.35609982 562.23803711 327.94848633 C564.08825596 328.7990879 565.94376744 329.63701339 567.80078125 330.47265625 C568.91622314 330.98062744 570.03166504 331.48859863 571.1809082 332.01196289 C574.02506116 333.33176335 574.02506116 333.33176335 577 332 C578.53404514 329.78298211 578.53404514 329.78298211 579.93359375 326.98828125 C580.77349854 325.40406372 580.77349854 325.40406372 581.63037109 323.7878418 C582.22672363 322.640979 582.82307617 321.49411621 583.4375 320.3125 C584.06743113 319.11897107 584.6984667 317.92602444 585.33056641 316.73364258 C586.6159865 314.30766349 587.89751505 311.87969398 589.17626953 309.45019531 C591.70132478 304.67320994 594.28109624 299.92735891 596.875 295.1875 C597.59042969 293.87688599 597.59042969 293.87688599 598.3203125 292.53979492 C602.84306356 284.26366498 607.40866856 276.01120975 611.97006226 267.75634766 C619.2980258 254.49124301 626.52101024 241.17034538 633.70849609 227.82861328 C635.42914301 224.63491885 637.15158709 221.44220259 638.875 218.25 C639.41753418 217.24388672 639.96006836 216.23777344 640.51904297 215.20117188 C643.84192148 209.06314821 647.25862386 203.01448096 650.92578125 197.07421875 C652.2299389 194.94532201 652.2299389 194.94532201 652 192 C649.44931968 190.23177476 646.93365876 188.66844281 644.25 187.125 C642.58567567 186.13935476 640.9229715 185.15096972 639.26171875 184.16015625 C638.39337402 183.64340332 637.5250293 183.12665039 636.63037109 182.59423828 C632.37630376 180.015896 628.22050751 177.29213752 624.0625 174.5625 C616.05809717 169.32481291 607.99774712 164.18544026 599.90234375 159.08984375 C594.65314763 155.78534475 589.41938757 152.45681587 584.1875 149.125 C583.27073486 148.54129639 582.35396973 147.95759277 581.40942383 147.35620117 C577.6688365 144.97422185 573.92866751 142.59158604 570.18847656 140.20898438 C569.26260742 139.61923828 568.33673828 139.02949219 567.3828125 138.421875 C566.46048828 137.83438477 565.53816406 137.24689453 564.58789062 136.64160156 C561.84354116 134.89475843 559.09761344 133.15041679 556.3515625 131.40625 C552.79677095 129.14751658 549.25094051 126.87558298 545.7109375 124.59375 C544.03648692 123.52078871 542.36200901 122.44787008 540.6875 121.375 C539.94153564 120.89015137 539.19557129 120.40530273 538.42700195 119.90576172 C528.99368705 113.88350115 518.76180038 110.42084957 508.24188232 106.77783203 C423.04247318 77.21748055 423.04247318 77.21748055 399.61328125 60.23046875 C395.07242858 58.09239911 391.26412131 59.5870438 386.67578125 61.0859375 C385.56589844 61.51132812 384.45601563 61.93671875 383.3125 62.375 C367.52799852 68.16487528 351.83385874 70.4208552 335.0625 70.375 C334.3441095 70.37478851 333.62571899 70.37457703 332.88555908 70.37435913 C314.72836851 70.32129734 295.18313228 68.36721006 278.7890625 59.8515625 C274.23336428 57.68312972 270.98508431 60.58155287 267.125 62.875 Z " fill="#FEFEFE" transform="translate(0,0)"/>
<path d="M0 0 C0.77601563 0.31582031 1.55203125 0.63164063 2.3515625 0.95703125 C3.67027344 1.47716797 3.67027344 1.47716797 5.015625 2.0078125 C6.48128906 2.63236328 6.48128906 2.63236328 7.9765625 3.26953125 C40.05697406 15.90393991 79.53127111 14.14858366 111.3515625 1.95703125 C112.07472656 1.56644531 112.79789062 1.17585938 113.54296875 0.7734375 C116.03577029 -0.35182281 117.61729584 -0.31593604 120.3515625 -0.04296875 C123.21777344 1.47851563 123.21777344 1.47851563 126.3359375 3.55078125 C132.8516855 7.74591858 139.56422261 11.19912989 146.6015625 14.45703125 C147.53316193 14.89057922 147.53316193 14.89057922 148.48358154 15.33288574 C177.19043681 28.63717941 207.47281828 40.36475162 237.73046875 49.625 C250.42779113 53.58771844 260.71656764 59.7601129 271.71142578 67.18896484 C275.70513197 69.86349972 279.77665297 72.40871151 283.8515625 74.95703125 C285.40808612 75.93795518 286.9640709 76.91973464 288.51953125 77.90234375 C289.30376465 78.39766602 290.08799805 78.89298828 290.89599609 79.40332031 C298.12983969 83.98039136 305.34651899 88.58455569 312.56640625 93.18359375 C315.29613566 94.92173843 318.02679435 96.65841231 320.7578125 98.39453125 C329.5608782 103.99156181 338.35684859 109.59911257 347.13769531 115.23095703 C356.4894792 121.22808461 365.84314791 127.210395 375.3515625 132.95703125 C374.64217152 136.84255911 372.83966046 140.09698945 370.9921875 143.5390625 C370.65176926 144.18087967 370.31135101 144.82269684 369.96061707 145.48396301 C368.84573229 147.58174964 367.72397279 149.67576269 366.6015625 151.76953125 C365.82165641 153.23158697 365.04179021 154.69366398 364.26196289 156.15576172 C359.38506941 165.27671708 354.37647103 174.31268582 349.23950195 183.29003906 C344.77565423 191.12338969 340.5157885 199.05672024 336.2890625 207.01953125 C335.94720917 207.66342804 335.60535583 208.30732483 335.25314331 208.97073364 C334.56926783 210.2589708 333.88540439 211.54721435 333.20155334 212.83546448 C332.8682048 213.46339401 332.53485626 214.09132355 332.19140625 214.73828125 C331.86099838 215.36077255 331.53059052 215.98326385 331.19017029 216.62461853 C326.8687127 224.75890917 322.4531858 232.84049067 318.01611328 240.91210938 C316.41932784 243.83306977 314.83622605 246.76099906 313.25668335 249.69129944 C311.80073063 252.38850544 310.3368843 255.08138224 308.87182617 257.77365112 C308.15400049 259.09683369 307.43944052 260.42179349 306.72827148 261.74856567 C305.73505365 263.60024683 304.73026825 265.44518469 303.72265625 267.2890625 C303.14443115 268.35874268 302.56620605 269.42842285 301.97045898 270.53051758 C300.3515625 272.95703125 300.3515625 272.95703125 297.3515625 273.95703125 C294.5324707 272.96899414 294.5324707 272.96899414 291.15234375 271.4296875 C290.55729538 271.16192001 289.96224701 270.89415253 289.34916687 270.61827087 C287.44987442 269.76108161 285.55705083 268.89054109 283.6640625 268.01953125 C282.37735633 267.43595912 281.0902512 266.85326579 279.80273438 266.27148438 C276.64690172 264.84515382 273.49897462 263.40184165 270.3515625 261.95703125 C270.23106982 281.40048848 270.54345066 300.82836321 270.90715027 320.26734924 C271.01098889 325.82136806 271.11060497 331.37545836 271.20959473 336.92956543 C271.49136304 352.70720414 271.77770444 368.48475655 272.06982422 384.26220703 C272.23190247 393.01806346 272.39005472 401.77398318 272.54446363 410.52997828 C272.62549121 415.11513065 272.70819166 419.70023465 272.79597473 424.28526306 C273.39509002 455.85235413 273.3515625 487.37295491 273.3515625 518.95703125 C131.4515625 518.95703125 -10.4484375 518.95703125 -156.6484375 518.95703125 C-156.6484375 472.48492433 -156.6484375 472.48492433 -156.30861092 449.24985695 C-156.24295606 444.71866111 -156.18080306 440.1874202 -156.11875916 435.65617371 C-156.03071534 429.25765228 -155.94052468 422.85916413 -155.84887695 416.46069336 C-155.75648463 410.00889984 -155.66627457 403.55708083 -155.57836914 397.10522461 C-154.74416615 335.90445061 -154.74416615 335.90445061 -154.1171875 307.92578125 C-154.0974695 307.04163355 -154.0777515 306.15748585 -154.05743599 305.24654579 C-153.73070451 290.81132895 -153.26922455 276.38284488 -152.6484375 261.95703125 C-153.41510742 262.29025391 -154.18177734 262.62347656 -154.97167969 262.96679688 C-157.82435955 264.20258367 -160.67974406 265.43182849 -163.53710938 266.65673828 C-165.37846314 267.44844311 -167.21659821 268.24762036 -169.0546875 269.046875 C-170.21484375 269.54316406 -171.375 270.03945313 -172.5703125 270.55078125 C-173.63862305 271.01162109 -174.70693359 271.47246094 -175.80761719 271.94726562 C-178.6484375 272.95703125 -178.6484375 272.95703125 -182.6484375 272.95703125 C-185.04599237 268.6246482 -187.44163853 264.29121425 -189.8359375 259.95703125 C-190.19813385 259.30144226 -190.5603302 258.64585327 -190.9335022 257.97039795 C-195.77834553 249.1976607 -200.5830496 240.40503104 -205.3359375 231.58203125 C-209.45204122 223.94396566 -213.66152857 216.36832506 -217.9609375 208.83203125 C-223.38060818 199.32716921 -228.54834093 189.70311962 -233.66629028 180.03405762 C-238.78484362 170.36929198 -244.04290616 160.79842368 -249.48828125 151.3125 C-257.6484375 137.0697076 -257.6484375 137.0697076 -257.6484375 132.95703125 C-255.35067428 131.22122099 -253.0941979 129.71101758 -250.6484375 128.20703125 C-249.8951416 127.73168945 -249.1418457 127.25634766 -248.36572266 126.76660156 C-245.80030031 125.15192793 -243.22503919 123.55379849 -240.6484375 121.95703125 C-237.7765948 120.16778379 -234.90584816 118.37678648 -232.03515625 116.58569336 C-230.00983518 115.32233039 -227.98378052 114.06014277 -225.95703125 112.79907227 C-217.81065481 107.7185019 -209.76264739 102.49787973 -201.73413086 97.23364258 C-195.76577384 93.32454625 -189.76223362 89.48539163 -183.69970703 85.72436523 C-179.05529234 82.84180814 -174.43337382 79.9257401 -169.82299805 76.98901367 C-167.95030322 75.79700185 -166.07544554 74.60838142 -164.19848633 73.4230957 C-159.47540768 70.4335542 -154.80176698 67.39719863 -150.1953125 64.23046875 C-139.34373346 56.86025024 -129.1457255 51.91197884 -116.609375 48.12109375 C-108.04349928 45.52529724 -99.66606385 42.43424822 -91.2734375 39.33203125 C-90.46353363 39.03297882 -89.65362976 38.73392639 -88.81918335 38.42581177 C-45.98583187 23.38527456 -45.98583187 23.38527456 -6.21875 2.0234375 C-2.99575911 -0.04860376 -2.99575911 -0.04860376 0 0 Z M125.4765625 12.89453125 C114.00374435 21.16641629 99.26545279 26.79497311 85.3515625 28.95703125 C83.65386719 29.25867188 83.65386719 29.25867188 81.921875 29.56640625 C50.40337704 34.41540594 17.92775814 30.55717533 -9.6484375 13.95703125 C-10.34453125 13.39628906 -11.040625 12.83554688 -11.7578125 12.2578125 C-13.71601928 10.61198077 -13.71601928 10.61198077 -16.8984375 11.26953125 C-17.8059375 11.49640625 -18.7134375 11.72328125 -19.6484375 11.95703125 C-19.6484375 12.61703125 -19.6484375 13.27703125 -19.6484375 13.95703125 C-20.45023438 14.03566406 -21.25203125 14.11429688 -22.078125 14.1953125 C-26.69586455 15.18049763 -30.53614525 17.10326591 -34.7734375 19.14453125 C-58.8000776 30.37216566 -83.9594046 39.24417174 -108.96875 48.00610352 C-111.32556074 48.84245354 -113.66898431 49.704724 -116.0078125 50.58984375 C-119.36764063 51.85158178 -122.74019052 53.02135895 -126.1484375 54.14453125 C-127.19 54.48871094 -128.2315625 54.83289063 -129.3046875 55.1875 C-130.078125 55.44144531 -130.8515625 55.69539063 -131.6484375 55.95703125 C-131.04187154 59.6764137 -129.96969678 62.69311881 -128.3359375 66.08203125 C-111.88248998 100.23461316 -110.19714849 141.18253585 -116.6484375 177.95703125 C-116.7717041 178.71242187 -116.8949707 179.4678125 -117.02197266 180.24609375 C-121.73228779 208.394483 -134.88189761 236.30722141 -150.6484375 259.95703125 C-151.01237204 263.15326288 -151.01237204 263.15326288 -151.04492188 266.8737793 C-151.06294357 267.57613771 -151.08096527 268.27849613 -151.09953308 269.00213814 C-151.15679101 271.34506322 -151.1997165 273.68801351 -151.2421875 276.03125 C-151.27901367 277.69652043 -151.31641943 279.36177813 -151.35437012 281.02702332 C-151.75487825 299.354162 -151.9407301 317.68532561 -152.12096024 336.01568604 C-152.20605763 344.54437503 -152.30014396 353.0729721 -152.39453125 361.6015625 C-152.40476759 362.53330418 -152.41500393 363.46504585 -152.42555046 364.42502213 C-152.57687246 378.08786779 -152.78195792 391.74808142 -153.06274414 405.40893555 C-153.63636199 434.62564573 -153.6484375 463.70601727 -153.6484375 492.95703125 C-13.7284375 492.95703125 126.1915625 492.95703125 270.3515625 492.95703125 C270.37239566 421.3175472 270.37239566 421.3175472 269.64441776 349.69030285 C269.49360891 340.0377712 269.37340125 330.38576549 269.28868014 320.73242205 C269.22487266 313.74924866 269.12744099 306.76701655 269.00545782 299.78462011 C268.93470697 295.68324871 268.87782788 291.58294259 268.85872078 287.48097801 C268.98364526 264.15432088 268.98364526 264.15432088 258.3515625 243.95703125 C257.18929695 241.82618565 256.0715562 239.6697178 255.0234375 237.48046875 C254.53625244 236.46718506 254.04906738 235.45390137 253.54711914 234.40991211 C253.07008545 233.39421143 252.59305176 232.37851074 252.1015625 231.33203125 C251.58779053 230.24736572 251.07401855 229.1627002 250.54467773 228.04516602 C247.135271 220.78373548 243.92026192 213.56318012 241.3515625 205.95703125 C240.94808594 204.84199219 240.54460937 203.72695313 240.12890625 202.578125 C238.70542246 198.40344317 237.47520956 194.22095383 236.3515625 189.95703125 C236.11872559 189.07466797 235.88588867 188.19230469 235.64599609 187.28320312 C231.79620286 171.92579067 230.88999554 157.0224844 230.9140625 141.26953125 C230.91393158 140.37969543 230.91380066 139.48985962 230.91366577 138.57305908 C230.95247925 123.88393656 231.81191102 109.42345694 235.5390625 95.14453125 C235.74974365 94.32049805 235.9604248 93.49646484 236.17749023 92.64746094 C239.0009975 82.00850982 242.54591598 71.35084421 247.56640625 61.53515625 C249.50037314 58.32521204 249.50037314 58.32521204 249.3515625 55.95703125 C248.5059375 55.70308594 247.6603125 55.44914062 246.7890625 55.1875 C245.6546875 54.84332031 244.5203125 54.49914062 243.3515625 54.14453125 C242.2378125 53.80808594 241.1240625 53.47164062 239.9765625 53.125 C236.82777683 52.11046669 233.74248993 50.99422874 230.65185547 49.81665039 C227.98193883 48.81890294 225.29587819 47.87469332 222.60546875 46.93359375 C198.06969311 38.32912998 173.72881265 29.14934567 150.08911133 18.29516602 C145.50844148 16.21468831 141.43220337 14.40105365 136.3515625 13.95703125 C136.3515625 13.29703125 136.3515625 12.63703125 136.3515625 11.95703125 C131.63374729 9.35409872 129.61833062 9.549257 125.4765625 12.89453125 Z " fill="#3A3A3A" transform="translate(276.6484375,59.04296875)"/>
<path d="M0 0 C8.10184032 4.64408741 16.0313842 9.49586331 23.875 14.5625 C26.07275728 15.97550835 28.27067709 17.38826394 30.46875 18.80078125 C31.561875 19.50412598 32.655 20.2074707 33.78125 20.93212891 C38.63713714 24.0517712 43.50485805 27.15267304 48.375 30.25 C49.27782715 30.82435791 50.1806543 31.39871582 51.11083984 31.99047852 C57.66316712 36.15620045 64.22623518 40.30473054 70.79370117 44.4465332 C78.02284384 49.00802255 85.23382674 53.59788847 92.44140625 58.19335938 C97.61178922 61.48813606 102.79586566 64.75877547 108 68 C107.30362341 71.62590506 105.79194267 74.5050267 104.04296875 77.7421875 C103.43106689 78.87962402 102.81916504 80.01706055 102.1887207 81.18896484 C101.52177958 82.41771513 100.8547028 83.64639178 100.1875 84.875 C99.5025126 86.1438618 98.81786434 87.41290673 98.13354492 88.68212891 C96.09549827 92.45827412 94.04880282 96.22968247 92 100 C91.4421582 101.02738281 90.88431641 102.05476563 90.30957031 103.11328125 C87.36464992 108.53237956 84.40876788 113.94541728 81.44726562 119.35546875 C78.98207541 123.86001336 76.5219899 128.36734107 74.0625 132.875 C73.32350464 134.22924072 73.32350464 134.22924072 72.56958008 135.61083984 C68.86693559 142.40032437 65.1809595 149.19873882 61.5 156 C55.35727571 167.34648012 49.205983 178.68796685 43 190 C42.55043945 190.82193848 42.10087891 191.64387695 41.63769531 192.49072266 C40.38960051 194.76810246 39.1338214 197.04103591 37.875 199.3125 C37.32537598 200.31796875 37.32537598 200.31796875 36.76464844 201.34375 C34.23023048 205.88488476 34.23023048 205.88488476 32 207 C30.046875 206.36328125 30.046875 206.36328125 27.75 205.3125 C26.62851562 204.81169922 26.62851562 204.81169922 25.484375 204.30078125 C19.5282122 201.18222431 15.91606866 198.11814535 12.625 192.25 C12.2441626 191.5902417 11.8633252 190.9304834 11.47094727 190.25073242 C10.290481 188.1792282 9.13944781 186.09431984 8 184 C7.65146973 183.35949707 7.30293945 182.71899414 6.94384766 182.05908203 C1.05797992 171.08059779 -3.601714 159.64165162 -8 148 C-8.474375 146.77023437 -8.94875 145.54046875 -9.4375 144.2734375 C-16.5829632 124.48943627 -19.22919516 103.55008455 -19.25 82.625 C-19.25100708 81.91890594 -19.25201416 81.21281189 -19.25305176 80.48532104 C-19.24178397 68.76035536 -18.41387727 57.48974666 -16 46 C-15.85546387 45.27361328 -15.71092773 44.54722656 -15.56201172 43.79882812 C-12.45522042 28.37152782 -7.42313664 13.88090575 0 0 Z " fill="#FCFCFC" transform="translate(528,117)"/>
<path d="M0 0 C1.9597168 0.83227539 1.9597168 0.83227539 3.10058594 2.54711914 C3.39570068 3.2805957 3.69081543 4.01407227 3.99487305 4.76977539 C4.32938477 5.58317383 4.66389648 6.39657227 5.00854492 7.23461914 C5.34305664 8.0918457 5.67756836 8.94907227 6.0222168 9.83227539 C6.3605957 10.65856445 6.69897461 11.48485352 7.04760742 12.33618164 C10.85578638 21.74982325 13.58057904 30.99844273 15.5847168 40.95727539 C15.8012793 42.00270508 16.0178418 43.04813477 16.2409668 44.12524414 C17.93416647 52.39265737 19.11787802 60.33911867 19.1628418 68.78149414 C19.16854187 69.63419388 19.17424194 70.48689362 19.18011475 71.36543274 C19.18952644 73.16987893 19.19608342 74.97434201 19.19995117 76.77880859 C19.20952835 79.46688347 19.24053339 82.15414933 19.2722168 84.84204102 C19.50226255 122.37981584 7.18928639 158.53985606 -11.6027832 190.76977539 C-12.025354 191.52162109 -12.4479248 192.2734668 -12.88330078 193.0480957 C-16.07970434 198.32789653 -19.34556325 200.58938502 -25.0402832 202.83227539 C-25.9477832 203.26540039 -26.8552832 203.69852539 -27.7902832 204.14477539 C-30.53153633 204.98238051 -31.42561324 205.0146378 -34.0402832 203.83227539 C-35.4844491 201.68046441 -36.64508914 199.66888304 -37.7980957 197.36743164 C-38.14260773 196.70742661 -38.48711975 196.04742157 -38.84207153 195.36741638 C-39.96208079 193.21598696 -41.06337005 191.0555201 -42.1652832 188.89477539 C-42.93550932 187.40957797 -43.70732462 185.92520364 -44.48071289 184.44165039 C-45.62894417 182.23878177 -46.77633199 180.0355355 -47.91870117 177.82962036 C-50.62081945 172.61283952 -53.40318831 167.4493302 -56.2902832 162.33227539 C-60.05018779 155.6412581 -63.71266774 148.90169615 -67.3527832 142.14477539 C-72.1517134 133.24565839 -77.07667418 124.42773143 -82.08105469 115.64282227 C-86.89680314 107.15699867 -91.52651895 98.57573549 -96.10839844 89.96166992 C-99.92069885 82.81750167 -103.91374098 75.79959818 -108.0402832 68.83227539 C-105.96190868 65.7147136 -104.23066413 64.6825294 -101.00708008 62.92602539 C-97.66040628 61.06491583 -94.49186644 58.93008699 -91.2902832 56.83227539 C-85.23566216 52.88974687 -79.1555274 48.99258411 -73.0402832 45.14477539 C-64.51187934 39.77507237 -56.02043906 34.34891385 -47.53515625 28.91137695 C-39.57351164 23.81036764 -31.60570515 18.71914264 -23.61572266 13.66259766 C-19.61357647 11.12653663 -15.6295704 8.57409689 -11.70043945 5.92602539 C-11.05228271 5.49346436 -10.40412598 5.06090332 -9.73632812 4.61523438 C-8.05769031 3.49021622 -6.38837274 2.35132435 -4.7199707 1.21118164 C-2.0402832 -0.16772461 -2.0402832 -0.16772461 0 0 Z " fill="#FCFCFC" transform="translate(142.040283203125,118.167724609375)"/>
<path d="M0 0 C139.92 0 279.84 0 424 0 C424 6 424 6 423 8 C423.66 8 424.32 8 425 8 C425 11.96 425 15.92 425 20 C284.75 20 144.5 20 0 20 C0 13.4 0 6.8 0 0 Z " fill="#F8F8F8" transform="translate(123,555)"/>
<path d="M0 0 C2.86621094 1.52148438 2.86621094 1.52148438 5.984375 3.59375 C12.500123 7.78888733 19.21266011 11.24209864 26.25 14.5 C26.87106628 14.78903198 27.49213257 15.07806396 28.13201904 15.37585449 C56.83887431 28.68014816 87.12125578 40.40772037 117.37890625 49.66796875 C130.07622863 53.63068719 140.36500514 59.80308165 151.35986328 67.23193359 C155.35356947 69.90646847 159.42509047 72.45168026 163.5 75 C165.05652362 75.98092393 166.6125084 76.96270339 168.16796875 77.9453125 C168.95220215 78.44063477 169.73643555 78.93595703 170.54443359 79.44628906 C177.77827719 84.02336011 184.99495649 88.62752444 192.21484375 93.2265625 C194.94457316 94.96470718 197.67523185 96.70138106 200.40625 98.4375 C209.2093157 104.03453056 218.00528609 109.64208132 226.78613281 115.27392578 C236.1379167 121.27105336 245.49158541 127.25336375 255 133 C254.29060902 136.88552786 252.48809796 140.1399582 250.640625 143.58203125 C250.30020676 144.22384842 249.95978851 144.86566559 249.60905457 145.52693176 C248.49416979 147.62471839 247.37241029 149.71873144 246.25 151.8125 C245.47009391 153.27455572 244.69022771 154.73663273 243.91040039 156.19873047 C239.03350691 165.31968583 234.02490853 174.35565457 228.88793945 183.33300781 C224.42409173 191.16635844 220.164226 199.09968899 215.9375 207.0625 C215.59564667 207.70639679 215.25379333 208.35029358 214.90158081 209.01370239 C214.21770533 210.30193955 213.53384189 211.5901831 212.84999084 212.87843323 C212.5166423 213.50636276 212.18329376 214.1342923 211.83984375 214.78125 C211.50943588 215.4037413 211.17902802 216.0262326 210.83860779 216.66758728 C206.5171502 224.80187792 202.1016233 232.88345942 197.66455078 240.95507812 C196.06776534 243.87603852 194.48466355 246.80396781 192.90512085 249.73426819 C191.44916813 252.43147419 189.9853218 255.12435099 188.52026367 257.81661987 C187.80243799 259.13980244 187.08787802 260.46476224 186.37670898 261.79153442 C185.38349115 263.64321558 184.37870575 265.48815344 183.37109375 267.33203125 C182.79286865 268.40171143 182.21464355 269.4713916 181.61889648 270.57348633 C180 273 180 273 177 274 C174.1809082 273.01196289 174.1809082 273.01196289 170.80078125 271.47265625 C169.90820869 271.07100502 169.90820869 271.07100502 168.99760437 270.66123962 C167.09831192 269.80405036 165.20548833 268.93350984 163.3125 268.0625 C162.02579383 267.47892787 160.7386887 266.89623454 159.45117188 266.31445312 C156.29533922 264.88812257 153.14741212 263.4448104 150 262 C149.87130441 282.60166615 150.2286778 303.18860533 150.60578728 323.78569794 C150.69182395 328.52002061 150.77482142 333.25439649 150.85803223 337.98876953 C151.10509042 352.01521744 151.35654853 366.04158599 151.60931396 380.06793213 C151.80607854 390.98893972 152.00145664 401.90996859 152.19290113 412.8310709 C152.2750306 417.50933104 152.35826477 422.18756516 152.44441223 426.86575317 C152.86229543 449.58013182 153.09921647 472.28153628 153 495 C150 493 150 493 149.31654358 489.6726532 C148.7980134 483.87305792 148.89527808 478.05458744 148.93530273 472.23754883 C148.94156149 470.28140903 148.9478055 468.32526914 148.95354795 466.36912775 C148.96036476 464.26217097 148.96934128 462.15523152 148.97868538 460.04828453 C149.01106019 452.37548761 149.01602302 444.70264154 149.01904297 437.02978516 C149.01940036 436.22133333 149.01975776 435.41288151 149.02012599 434.57993114 C149.02711085 406.51698132 148.72847799 378.45680649 148.29285622 350.39748955 C148.15642413 341.56546128 148.03784644 332.73388722 147.96069336 323.90112305 C147.89153948 315.98440238 147.79146232 308.06879038 147.65389532 300.15295154 C147.58306917 296.0246334 147.52624031 291.89737776 147.50715828 287.76846886 C147.66589419 264.30819046 147.66589419 264.30819046 137 244 C135.8374458 241.86931186 134.71968828 239.71283274 133.671875 237.5234375 C133.18468994 236.51015381 132.69750488 235.49687012 132.19555664 234.45288086 C131.71852295 233.43718018 131.24148926 232.42147949 130.75 231.375 C130.23622803 230.29033447 129.72245605 229.20566895 129.19311523 228.08813477 C125.7837085 220.82670423 122.56869942 213.60614887 120 206 C119.59652344 204.88496094 119.19304687 203.76992188 118.77734375 202.62109375 C117.35385996 198.44641192 116.12364706 194.26392258 115 190 C114.76716309 189.11763672 114.53432617 188.23527344 114.29443359 187.32617188 C110.44464036 171.96875942 109.53843304 157.06545315 109.5625 141.3125 C109.56236908 140.42266418 109.56223816 139.53282837 109.56210327 138.61602783 C109.60091604 123.92717286 110.45970881 109.46605118 114.1875 95.1875 C114.39890625 94.3620166 114.6103125 93.5365332 114.828125 92.68603516 C118.18726444 80.04367392 122.61363985 67.4483599 129 56 C127.98188232 55.88205078 126.96376465 55.76410156 125.91479492 55.64257812 C122.1391337 55.02283754 118.93979888 54.05474986 115.36328125 52.71875 C114.14205566 52.26886719 112.92083008 51.81898437 111.66259766 51.35546875 C110.45394043 50.90816406 109.2452832 50.46085937 108 50 C105.89096481 49.25574747 103.78033774 48.51598704 101.66796875 47.78125 C77.33339725 39.23955543 53.25458408 30.02969694 29.73754883 19.42602539 C25.20949574 17.38499914 20.76714 15.434148 16 14 C16 13.34 16 12.68 16 12 C13.30980575 11.12276275 11.77242342 10.73186416 9 11 C6.95236864 12.17869709 6.95236864 12.17869709 4.875 13.875 C-15.69527877 29.56259392 -41.37129598 31.83007914 -66.25 30.3125 C-67.40503525 30.24440125 -67.40503525 30.24440125 -68.58340454 30.17492676 C-80.0237062 29.48064829 -91.01405508 28.44657096 -102 25 C-102.67434082 24.78859375 -103.34868164 24.5771875 -104.04345703 24.359375 C-114.0877211 21.12338639 -123.03218695 16.52080991 -132 11 C-132 10.01 -132 9.02 -132 8 C-130.63798182 7.12528166 -129.25959437 6.27602497 -127.875 5.4375 C-126.72644531 4.72400391 -126.72644531 4.72400391 -125.5546875 3.99609375 C-119.46419065 1.62135874 -112.34406797 5.50698794 -106.51171875 7.65234375 C-91.57532809 12.87614294 -77.13846237 13.4061909 -61.5 13.1875 C-59.59766699 13.17240727 -57.69532223 13.15872708 -55.79296875 13.14648438 C-51.19501484 13.11388511 -46.59764255 13.06236368 -42 13 C-43.32 12.34 -44.64 11.68 -46 11 C-44.25589844 10.77957031 -44.25589844 10.77957031 -42.4765625 10.5546875 C-30.39770939 8.90612678 -17.66627923 6.68071766 -6.80859375 0.81640625 C-4.31579221 -0.30885406 -2.73426666 -0.27296729 0 0 Z M131 58 C124.11652591 70.87427863 119.61720945 83.79439014 116.3125 98 C116.10995605 98.86496094 115.90741211 99.72992188 115.69873047 100.62109375 C112.93830612 113.01652719 111.65973881 125.35267236 111.73925781 138.03442383 C111.75001626 140.06556891 111.73925852 142.09583376 111.7265625 144.12695312 C111.71649022 152.90965137 112.52913713 161.34547891 114 170 C114.1556543 170.99056396 114.31130859 171.98112793 114.47167969 173.00170898 C118.17041489 195.90944162 125.78692271 217.68391859 137 238 C137.38075684 238.70253906 137.76151367 239.40507812 138.15380859 240.12890625 C139.34289339 242.32057168 140.54291513 244.50570092 141.75 246.6875 C142.11488525 247.3477417 142.47977051 248.0079834 142.85571289 248.68823242 C146.21902287 254.63775602 149.04154088 259.01740761 155.5625 261.75 C156.98755859 262.36101562 156.98755859 262.36101562 158.44140625 262.984375 C160.27328139 263.71153155 162.13022171 264.37674057 164 265 C168.04258378 258.76002693 171.57225156 252.31857877 175.04403687 245.7461853 C180.11886772 236.14458913 185.29453277 226.61513268 190.6875 217.1875 C195.51173493 208.74086995 200.08898258 200.19272642 204.55371094 191.55126953 C208.88225764 183.18303049 213.37355026 174.91135295 217.90625 166.65234375 C220.11158399 162.63315098 222.296079 158.60334967 224.46875 154.56640625 C225.04761963 153.49189209 225.62648926 152.41737793 226.22290039 151.31030273 C227.33348937 149.24710261 228.44217391 147.18287575 229.54858398 145.11743164 C232.22314726 140.15510633 234.96718838 135.32834757 238.11938477 130.65185547 C239.23521627 128.87076981 239.23521627 128.87076981 239 126 C236.82152291 124.41139708 234.69302964 123.04709501 232.375 121.6875 C230.89892985 120.79430553 229.42371581 119.89969521 227.94921875 119.00390625 C227.1504834 118.52195801 226.35174805 118.04000977 225.52880859 117.54345703 C221.03975532 114.80356566 216.61769701 111.95869462 212.1875 109.125 C205.36497492 104.7743449 198.5336524 100.43836984 191.6875 96.125 C184.33420329 91.48936181 177.00701119 86.81378223 169.6875 82.125 C168.64078125 81.4546875 167.5940625 80.784375 166.515625 80.09375 C157 74 157 74 153.8046875 71.953125 C150.76693415 70.00835983 147.72745289 68.06632463 144.6875 66.125 C143.76864014 65.53605957 142.84978027 64.94711914 141.90307617 64.34033203 C141.05205322 63.79747559 140.20103027 63.25461914 139.32421875 62.6953125 C138.58260498 62.22109863 137.84099121 61.74688477 137.0769043 61.25830078 C135.09427964 60.05711969 133.08832681 59.00392959 131 58 Z " fill="#3C3C3C" transform="translate(397,59)"/>
<path d="M0 0 C0.33 0 0.66 0 1 0 C1.32167093 37.55631797 0.76769998 75.07686319 0 112.625 C-0.02391563 113.79504829 -0.04783127 114.96509659 -0.07247162 116.17060089 C-0.37199257 130.78060931 -0.68142843 145.39039502 -1 160 C-0.34 160.33 0.32 160.66 1 161 C0.34 161 -0.32 161 -1 161 C-1 163.31 -1 165.62 -1 168 C139.25 168 279.5 168 424 168 C424 165.36 424 162.72 424 160 C424.33 160 424.66 160 425 160 C426.12819647 171.28196473 426 182.66176577 426 194 C284.1 194 142.2 194 -4 194 C-4 170.37823386 -3.9915155 146.77810432 -3.66017342 123.16191101 C-3.60629752 119.29197294 -3.55419913 115.42201349 -3.50260442 111.55204439 C-3.40440154 104.1917242 -3.30336681 96.83144693 -3.20043945 89.47119141 C-3.09493584 81.92249193 -2.99484949 74.37373314 -2.89716727 66.82492876 C-2.81203195 60.26179842 -2.72345499 53.69872051 -2.63215441 47.13567305 C-2.57813345 43.24935134 -2.52540915 39.36302367 -2.4761219 35.47663879 C-2.4300154 31.85147457 -2.3795996 28.22639514 -2.32591057 24.60133553 C-2.29808845 22.6519019 -2.27463671 20.70240742 -2.25134277 18.75291443 C-1.99128461 1.99128461 -1.99128461 1.99128461 0 0 Z M-1 171 C-1 177.6 -1 184.2 -1 191 C139.25 191 279.5 191 424 191 C424 187.04 424 183.08 424 179 C423.34 179 422.68 179 422 179 C422.33 178.34 422.66 177.68 423 177 C423 175.02 423 173.04 423 171 C283.08 171 143.16 171 -1 171 Z " fill="#5A5A5A" transform="translate(124,384)"/>
<path d="M0 0 C3.63 1.98 7.26 3.96 11 6 C9.00269594 10.99326016 6.6848374 15.62302419 4.1875 20.375 C3.70539063 21.29474609 3.22328125 22.21449219 2.7265625 23.16210938 C-1.41265976 31.00122468 -5.76585184 38.70880365 -10.15917969 46.4074707 C-14.23630197 53.57864359 -18.11176031 60.83572418 -21.90844727 68.15844727 C-26.63299028 77.25962503 -31.5559469 86.24849961 -36.48828125 95.23828125 C-37.98815066 97.97835276 -39.47983877 100.72271056 -40.96875 103.46875 C-48.16441482 116.73076823 -55.53682608 129.88676014 -63 143 C-67.03791199 141.71368455 -70.43360176 140.30766945 -74 138 C-73.30362341 134.37409494 -71.79194267 131.4949733 -70.04296875 128.2578125 C-69.43106689 127.12037598 -68.81916504 125.98293945 -68.1887207 124.81103516 C-67.52177958 123.58228487 -66.8547028 122.35360822 -66.1875 121.125 C-65.5025126 119.8561382 -64.81786434 118.58709327 -64.13354492 117.31787109 C-62.09549827 113.54172588 -60.04880282 109.77031753 -58 106 C-57.4421582 104.97261719 -56.88431641 103.94523437 -56.30957031 102.88671875 C-52.88483286 96.58468456 -49.44410479 90.29146452 -46 84 C-39.67391801 72.43509818 -33.37265382 60.85749227 -27.125 49.25 C-26.54572754 48.17395508 -25.96645508 47.09791016 -25.36962891 45.98925781 C-22.62853585 40.89465514 -19.89080771 35.79829428 -17.16134644 30.69744873 C-16.21757061 28.93426711 -15.27260779 27.17172101 -14.32763672 25.40917969 C-13.14750191 23.20781682 -11.96930171 21.00541522 -10.79345703 18.80175781 C-7.36919342 12.41892226 -3.77353164 6.18313619 0 0 Z " fill="#F9F9F9" transform="translate(638,187)"/>
<path d="M0 0 C0.32572998 0.60658447 0.65145996 1.21316895 0.98706055 1.83813477 C7.03058453 13.07868878 13.119644 24.28590226 19.4375 35.375 C24.6939749 44.60543671 29.75479798 53.92985412 34.76269531 63.29711914 C38.63883725 70.52744894 42.6216076 77.68735195 46.6875 84.8125 C51.31150893 92.91999857 55.73773772 101.10596062 60.0234375 109.39697266 C63.53772311 116.17990779 67.21566446 122.86006966 71.00463867 129.4934082 C74 134.78931477 74 134.78931477 74 137 C72.75539217 137.67667998 71.50403104 138.34094719 70.25 139 C69.55390625 139.37125 68.8578125 139.7425 68.140625 140.125 C66 141 66 141 62 141 C61.6282666 140.30664551 61.2565332 139.61329102 60.87353516 138.89892578 C52.0012221 122.33476266 52.0012221 122.33476266 42.9375 105.875 C39.11087737 99.02977299 35.35486886 92.14842285 31.625 85.25 C31.07303955 84.2293042 30.5210791 83.2086084 29.95239258 82.15698242 C28.84063603 80.10092309 27.72890092 78.04485218 26.6171875 75.98876953 C19.5863716 62.99492167 12.48569604 50.04078086 5.3125 37.125 C4.67771729 35.98119873 4.04293457 34.83739746 3.38891602 33.65893555 C0.63389261 28.70290948 -2.13017756 23.7536447 -4.953125 18.8359375 C-5.38020752 18.08940918 -5.80729004 17.34288086 -6.24731445 16.57373047 C-7.0135317 15.23870498 -7.78509619 13.90672696 -8.56323242 12.57861328 C-10.15286092 9.80797308 -11 8.25696566 -11 5 C-9.35546875 3.61328125 -9.35546875 3.61328125 -7.1875 2.3125 C-6.12595703 1.65701172 -6.12595703 1.65701172 -5.04296875 0.98828125 C-3 0 -3 0 0 0 Z " fill="#F9F9F9" transform="translate(33,188)"/>
<path d="M0 0 C14.37210614 5.02644837 28.56633596 5.89308194 43.63671875 5.78515625 C44.5370282 5.78211487 45.43733765 5.77907349 46.3649292 5.77593994 C64.68506611 5.68444702 81.66364844 4.35712074 98.41796875 -3.578125 C101.99890528 -4.82150574 103.89342644 -4.67030342 107.51171875 -3.65234375 C110.88671875 -1.71484375 110.88671875 -1.71484375 113.51171875 0.34765625 C113.51171875 1.00765625 113.51171875 1.66765625 113.51171875 2.34765625 C106.83671333 7.56063176 99.26927677 11.12516719 91.38671875 14.09765625 C90.69151123 14.36666748 89.99630371 14.63567871 89.2800293 14.9128418 C74.88076004 20.0789191 60.204045 22.02227688 44.97729492 21.86914062 C42.44548219 21.8476245 39.91649572 21.86913336 37.38476562 21.89453125 C14.43046177 21.93393873 -6.04748156 15.31589856 -25.48828125 3.34765625 C-25.48828125 2.35765625 -25.48828125 1.36765625 -25.48828125 0.34765625 C-24.12626307 -0.52706209 -22.74787562 -1.37631878 -21.36328125 -2.21484375 C-20.59757812 -2.69050781 -19.831875 -3.16617188 -19.04296875 -3.65625 C-12.9524719 -6.03098501 -5.83234922 -2.14535581 0 0 Z " fill="#F8F8F8" transform="translate(290.48828125,66.65234375)"/>
<path d="M0 0 C2.87551987 0.60535182 5.05889082 1.46955913 7.5546875 3.01171875 C8.58287598 3.64267456 8.58287598 3.64267456 9.63183594 4.28637695 C10.37208008 4.74874756 11.11232422 5.21111816 11.875 5.6875 C12.66165039 6.17371826 13.44830078 6.65993652 14.25878906 7.16088867 C23.28557104 12.7598569 32.23659909 18.47946669 41.18554688 24.20166016 C45.78604827 27.14122411 50.3933269 30.07012145 55 33 C56.83726639 34.16922871 58.67450597 35.33849956 60.51171875 36.5078125 C64.13876108 38.81598886 67.76640636 41.12321318 71.39453125 43.4296875 C73.20055489 44.57807145 75.00654438 45.7265091 76.8125 46.875 C77.70573975 47.44299316 78.59897949 48.01098633 79.51928711 48.59619141 C85.61647817 52.47597571 91.70291205 56.37228005 97.78613281 60.27392578 C107.1379167 66.27105336 116.49158541 72.25336375 126 78 C125.32414935 81.32209174 124.08166075 83.99549008 122.49609375 86.984375 C122.00302734 87.91894531 121.50996094 88.85351562 121.00195312 89.81640625 C120.48568359 90.78449219 119.96941406 91.75257813 119.4375 92.75 C118.91736328 93.73355469 118.39722656 94.71710938 117.86132812 95.73046875 C116.57806493 98.15571846 115.29083434 100.578774 114 103 C113.01 103 112.02 103 111 103 C112.57804154 97.39523177 115.26416385 92.64949374 118.125 87.625 C118.59292969 86.79355469 119.06085938 85.96210938 119.54296875 85.10546875 C120.69070549 83.06765046 121.84313282 81.03264431 123 79 C122.24332031 78.70351562 121.48664063 78.40703125 120.70703125 78.1015625 C117.71843944 76.88542557 114.87143959 75.46910863 112 74 C111.54625 74.825 111.0925 75.65 110.625 76.5 C110.08875 77.325 109.5525 78.15 109 79 C108.34 79 107.68 79 107 79 C107.4640625 77.8553125 107.4640625 77.8553125 107.9375 76.6875 C108.67893593 74.81210323 109.36228217 72.91315348 110 71 C108.92613037 70.60627197 108.92613037 70.60627197 107.83056641 70.20458984 C104.88892038 68.95272841 102.39247838 67.46450048 99.7109375 65.7265625 C98.69660645 65.07268555 97.68227539 64.41880859 96.63720703 63.74511719 C95.56067871 63.04547852 94.48415039 62.34583984 93.375 61.625 C91.67908954 60.52983602 89.98217236 59.43624318 88.2852478 58.34265137 C87.14643365 57.60853674 86.00794508 56.8739168 84.86978149 56.13879395 C79.97455198 52.97766755 75.05577251 49.85529747 70.125 46.75 C69.36123047 46.26837402 68.59746094 45.78674805 67.81054688 45.29052734 C65.54081712 43.85963176 63.27051172 42.42965439 61 41 C41.59380648 28.78066219 22.28041919 16.41672792 3 4 C-0.05345704 7.55778177 -1.53403364 11.43057431 -3.1875 15.75 C-3.46013672 16.44738281 -3.73277344 17.14476562 -4.01367188 17.86328125 C-4.68131025 19.57337254 -5.34141552 21.28640154 -6 23 C-6.66 22.34 -7.32 21.68 -8 21 C-7.65653468 16.25313312 -5.37015348 11.96995394 -3.4375 7.6875 C-2.9434668 6.57665039 -2.9434668 6.57665039 -2.43945312 5.44335938 C-1.63082877 3.62688438 -0.81602884 1.81316069 0 0 Z " fill="#3A3A3A" transform="translate(526,114)"/>
<path d="M0 0 C0.99 0.495 0.99 0.495 2 1 C-36.35039949 37.72538256 -92.95979009 66.07521667 -146.9375 65.0703125 C-147.618125 65.04710937 -148.29875 65.02390625 -149 65 C-149 64.67 -149 64.34 -149 64 C-147.69289063 63.82984375 -146.38578125 63.6596875 -145.0390625 63.484375 C-91.46187772 56.31043795 -40.94565362 35.76087499 0 0 Z " fill="#D4D4D4" transform="translate(475,361)"/>
<path d="M0 0 C0.33 0 0.66 0 1 0 C1.26414758 15.59760315 1.52503598 31.19525745 1.78230286 46.79297543 C1.90189514 54.03933665 2.02247019 61.28567881 2.14550781 68.53198242 C3.20505197 130.99329752 3.20505197 130.99329752 3 157 C0 155 0 155 -0.68359375 151.75024414 C-1.2412353 145.51634625 -1.10269671 139.24826015 -1.0625 132.99609375 C-1.05773158 131.61101973 -1.0535545 130.22594357 -1.04992676 128.84086609 C-1.04168781 125.90002103 -1.0310041 122.95920077 -1.01831055 120.01837158 C-0.9860032 112.3000371 -0.9738661 104.5816775 -0.96875 96.86328125 C-0.96820114 96.09376381 -0.96765228 95.32424637 -0.96708679 94.53141022 C-0.96173335 80.72437894 -1.15461869 66.92794343 -1.5 53.125 C-1.54608043 51.24056235 -1.59206205 49.35612229 -1.63793945 47.47167969 C-1.65994919 46.56771454 -1.68195892 45.66374939 -1.70463562 44.73239136 C-1.72605118 43.85003815 -1.74746674 42.96768494 -1.76953125 42.05859375 C-1.79042313 41.20226349 -1.811315 40.34593323 -1.83283997 39.46365356 C-2.01738715 31.69752261 -2.14206716 23.93205351 -2.17724609 16.16375732 C-2.187139 14.25707557 -2.20666837 12.35045129 -2.2265625 10.44384766 C-2.22785156 9.34218262 -2.22914063 8.24051758 -2.23046875 7.10546875 C-2.23457764 6.15824951 -2.23868652 5.21103027 -2.24291992 4.23510742 C-2 2 -2 2 0 0 Z " fill="#404040" transform="translate(547,397)"/>
<path d="M0 0 C1.29431342 3.60878834 0.69351685 5.70556491 -0.58984375 9.26171875 C-0.95779053 10.28974609 -1.3257373 11.31777344 -1.70483398 12.37695312 C-2.11161377 13.46943359 -2.51839355 14.56191406 -2.9375 15.6875 C-3.35136963 16.81220703 -3.76523926 17.93691406 -4.19165039 19.09570312 C-10.39567824 35.69038056 -18.16169001 51.24253502 -28 66 C-28.36808769 68.9306878 -28.36808769 68.9306878 -28.41064453 72.30737305 C-28.45053497 73.60849533 -28.49042542 74.90961761 -28.53152466 76.25016785 C-28.56549083 77.67067996 -28.59924853 79.09119707 -28.6328125 80.51171875 C-28.67396325 81.96477089 -28.71595652 83.4177994 -28.75875854 84.87080383 C-28.86908046 88.6928492 -28.96795063 92.51510849 -29.06445312 96.33752441 C-29.16497118 100.23888153 -29.27629718 104.13992848 -29.38671875 108.04101562 C-29.60173529 115.69374766 -29.80465685 123.34673783 -30 131 C-30.66 131.33 -31.32 131.66 -32 132 C-32.11421421 110.63842889 -32.03583981 89.34215699 -31 68 C-32.0725 68.515625 -33.145 69.03125 -34.25 69.5625 C-36.71477612 70.63240282 -37.72132303 71.03572782 -40.4375 70.6875 C-40.953125 70.460625 -41.46875 70.23375 -42 70 C-40.73168307 69.18357746 -39.46024069 68.37200895 -38.1875 67.5625 C-37.47980469 67.11003906 -36.77210937 66.65757812 -36.04296875 66.19140625 C-34 65 -34 65 -31 64 C-29.47862792 61.83647087 -28.13217625 59.71984415 -26.8125 57.4375 C-26.42030273 56.77073242 -26.02810547 56.10396484 -25.62402344 55.41699219 C-21.71958004 48.68551818 -18.20887334 41.7725438 -14.84619141 34.75732422 C-14.12482287 33.25922533 -13.38287894 31.77106265 -12.63671875 30.28515625 C-9.15839072 23.11322907 -6.78968109 15.58783498 -4.40991211 7.99536133 C-4.12639893 7.10743896 -3.84288574 6.2195166 -3.55078125 5.3046875 C-3.29981689 4.50015137 -3.04885254 3.69561523 -2.7902832 2.86669922 C-2 1 -2 1 0 0 Z " fill="#373737" transform="translate(155,253)"/>
<path d="M0 0 C2.92431111 1.3222972 4.95698238 2.77127259 7.25 5 C37.79585389 32.25280645 79.8965638 39.27447315 119.25 39.6875 C121.47137288 39.72077839 123.69272783 39.75527714 125.9140625 39.79101562 C131.2759174 39.87468769 136.63779316 39.94351948 142 40 C142 40.33 142 40.66 142 41 C136.61324688 42.11275912 131.38774652 42.16138386 125.9140625 42.16796875 C124.9394809 42.17129715 123.96489929 42.17462555 122.96078491 42.17805481 C120.89817779 42.18310744 118.83556253 42.18546365 116.77294922 42.18530273 C113.67010345 42.18746852 110.56762573 42.20558451 107.46484375 42.22460938 C92.84159396 42.26731785 78.61633042 41.69869707 64.4375 37.75 C63.64359863 37.53311523 62.84969727 37.31623047 62.03173828 37.09277344 C38.90596846 30.57023936 18.10189626 18.95848414 1 2 C0.67 1.34 0.34 0.68 0 0 Z " fill="#D7D7D7" transform="translate(198,363)"/>
<path d="M0 0 C0.99 0.495 0.99 0.495 2 1 C-29.87224498 17.80800761 -67.5121729 25.0474574 -103 17 C-103.66837891 16.85546387 -104.33675781 16.71092773 -105.02539062 16.56201172 C-112.85651951 14.85391767 -120.41519253 12.64744251 -127.9375 9.875 C-128.63045166 9.62129639 -129.32340332 9.36759277 -130.03735352 9.10620117 C-134.8741262 7.25174761 -134.8741262 7.25174761 -136 5 C-131.97666096 5.67055651 -128.1909317 6.84480721 -124.31176758 8.06958008 C-98.97655885 16.03497163 -73.25613748 18.15865184 -47 14 C-45.77845215 13.8146167 -45.77845215 13.8146167 -44.53222656 13.62548828 C-29.95901098 11.35615969 -16.51532483 7.32094173 -3.0859375 1.22265625 C-2.06757813 0.81917969 -1.04921875 0.41570312 0 0 Z " fill="#D6D6D6" transform="translate(420,444)"/>
<path d="M0 0 C0.33 0 0.66 0 1 0 C2.34637072 10.21799211 2.96333046 20.84054395 1 31 C0.67 31 0.34 31 0 31 C0 27.04 0 23.08 0 19 C-0.66 18.67 -1.32 18.34 -2 18 C-1.34 18 -0.68 18 0 18 C0 15.36 0 12.72 0 10 C-47.85 10 -95.7 10 -145 10 C-145 9.67 -145 9.34 -145 9 C-110.89370379 8.08058737 -76.80429965 7.90961541 -42.6875 7.9375 C-41.10537468 7.93878403 -41.10537468 7.93878403 -39.49128723 7.94009399 C-26.32750815 7.95156394 -13.16375338 7.97175394 0 8 C0 5.36 0 2.72 0 0 Z " fill="#292929" transform="translate(548,544)"/>
<path d="M0 0 C2.05193625 3.54425352 2.77257096 7.06322573 3.5625 11.0625 C3.81128906 12.29097656 4.06007812 13.51945313 4.31640625 14.78515625 C9.30442738 43.34036989 5.86280105 73.09592061 -1 101 C-1.99 100.67 -2.98 100.34 -4 100 C-2.74079837 92.31146299 -1.41729282 84.63563385 -0.0534668 76.96508789 C0.2996625 74.97707484 0.64990328 72.98854934 1 71 C1.2623645 69.67198364 1.2623645 69.67198364 1.5300293 68.31713867 C2.1124694 64.20617054 2.18143485 60.18987333 2.203125 56.04296875 C2.20882507 55.18173904 2.21452515 54.32050934 2.22039795 53.43318176 C2.22981882 51.61017064 2.23637031 49.7871427 2.24023438 47.96411133 C2.2498357 45.23421517 2.28084251 42.50510709 2.3125 39.77539062 C2.36610244 30.48834666 2.0033507 21.67092663 -0.03338623 12.58158875 C-1.00448324 8.0987083 -0.87506399 4.49395423 0 0 Z " fill="#3B3B3B" transform="translate(158,154)"/>
<path d="M0 0 C1 3 1 3 0.13891602 5.3215332 C-0.31813721 6.22218506 -0.77519043 7.12283691 -1.24609375 8.05078125 C-1.74971436 9.05270508 -2.25333496 10.05462891 -2.7722168 11.08691406 C-3.32176025 12.15135742 -3.87130371 13.21580078 -4.4375 14.3125 C-5.26858276 15.94203613 -5.26858276 15.94203613 -6.11645508 17.60449219 C-14.70191916 34.33386081 -24.02939021 49.25975542 -37 63 C-37.70769531 63.77214844 -38.41539062 64.54429687 -39.14453125 65.33984375 C-44.79712712 71.29798534 -51.05687361 75.68844774 -58 80 C-58 77 -58 77 -56.625 75.3125 C-55 74 -55 74 -53 74 C-28.66438688 55.04630132 -14.36418793 26.5423776 0 0 Z " fill="#D5D5D5" transform="translate(186,239)"/>
<path d="M0 0 C2.50547513 2.50547513 3.2055071 4.82103265 4.5 8.125 C10.5096815 22.67735356 20.03045505 37.24185846 31.3203125 48.265625 C33 50 33 50 33 52 C33.66 52 34.32 52 35 52 C35.598125 52.78375 36.19625 53.5675 36.8125 54.375 C38.76597589 57.17685792 38.76597589 57.17685792 41.6875 57.9375 C42.450625 58.288125 43.21375 58.63875 44 59 C44.8125 62.125 44.8125 62.125 45 65 C42.64644558 63.02087469 40.31777006 61.02072027 38 59 C37.08089844 58.19949219 36.16179688 57.39898437 35.21484375 56.57421875 C18.90772114 42.14571082 2.9917962 22.33647845 0 0 Z " fill="#D7D7D7" transform="translate(499,257)"/>
<path d="M0 0 C0.33 0 0.66 0 1 0 C1.12005363 26.35454303 0.96149304 52.66122803 0 79 C-0.33 79 -0.66 79 -1 79 C-2.09070884 33.3932863 -2.09070884 33.3932863 -2.1875 14.1875 C-2.20039062 12.95757324 -2.21328125 11.72764648 -2.2265625 10.46044922 C-2.22785156 9.35330566 -2.22914063 8.24616211 -2.23046875 7.10546875 C-2.23457764 6.15824951 -2.23868652 5.21103027 -2.24291992 4.23510742 C-2 2 -2 2 0 0 Z " fill="#555555" transform="translate(547,397)"/>
<path d="M0 0 C0.33 0 0.66 0 1 0 C1 18.81 1 37.62 1 57 C1.66 57.33 2.32 57.66 3 58 C2.34 58 1.68 58 1 58 C1 60.64 1 63.28 1 66 C0.67 66 0.34 66 0 66 C-0.33 69.96 -0.66 73.92 -1 78 C-1.33 78 -1.66 78 -2 78 C-2.12960672 62.55287288 -1.97253698 47.12871666 -1.5625 31.6875 C-1.54285187 30.9101651 -1.52320374 30.1328302 -1.50296021 29.3319397 C-1.2511687 19.52786452 -0.79709637 9.7773894 0 0 Z " fill="#3D3D3D" transform="translate(122,487)"/>
<path d="M0 0 C0.33 0 0.66 0 1 0 C1 19.14 1 38.28 1 58 C-0.485 58.495 -0.485 58.495 -2 59 C-2.02544556 52.02572411 -2.04290697 45.05146028 -2.05493164 38.07714844 C-2.05994692 35.70670118 -2.06676073 33.33625699 -2.07543945 30.96582031 C-2.08762813 27.55012247 -2.09325649 24.13446569 -2.09765625 20.71875 C-2.10539818 19.14015198 -2.10539818 19.14015198 -2.11329651 17.52966309 C-2.11371953 11.92665104 -1.92436088 6.53237491 -1 1 C-0.67 0.67 -0.34 0.34 0 0 Z " fill="#585858" transform="translate(124,384)"/>
<path d="M0 0 C0.8353125 0.48919922 0.8353125 0.48919922 1.6875 0.98828125 C6.68574235 3.85045043 11.55626223 6.11943604 17 8 C18.32 6.35 19.64 4.7 21 3 C20.67 5.97 20.34 8.94 20 12 C13.77012202 11.49487476 8.54525767 8.67395877 3 6 C1.89809875 10.50563891 1.78198767 14.96907895 1.68359375 19.58203125 C1.66281265 20.39621017 1.64203156 21.2103891 1.62062073 22.04924011 C1.55550537 24.63691179 1.49641792 27.22468053 1.4375 29.8125 C1.39427858 31.57227545 1.35066315 33.33204128 1.30664062 35.09179688 C1.1998632 39.39443309 1.09848982 43.69716643 1 48 C0.67 48 0.34 48 0 48 C-0.16782889 41.32494807 -0.32779181 34.64974154 -0.48217773 27.97436523 C-0.5356848 25.70153492 -0.59102056 23.42874692 -0.64819336 21.15600586 C-0.72986216 17.89706551 -0.80504251 14.63803164 -0.87890625 11.37890625 C-0.90594131 10.35599991 -0.93297638 9.33309357 -0.96083069 8.27919006 C-0.98092697 7.33829025 -1.00102325 6.39739044 -1.02172852 5.42797852 C-1.04171402 4.59524918 -1.06169952 3.76251984 -1.08229065 2.90455627 C-1 1 -1 1 0 0 Z " fill="#484848" transform="translate(544,315)"/>
<path d="M0 0 C-2.40434867 3.606523 -3.22893503 3.6015556 -7.3203125 4.53515625 C-8.40554199 4.7863623 -9.49077148 5.03756836 -10.60888672 5.29638672 C-11.7692041 5.5492041 -12.92952148 5.80202148 -14.125 6.0625 C-15.30465332 6.32562988 -16.48430664 6.58875977 -17.69970703 6.85986328 C-30.48695777 9.64563843 -42.86511572 11.44778015 -56 11 C-56 10.67 -56 10.34 -56 10 C-54.03933594 9.74476563 -54.03933594 9.74476563 -52.0390625 9.484375 C-36.24211056 7.36670542 -20.93810575 4.42380169 -5.72265625 -0.36328125 C-3 -1 -3 -1 0 0 Z " fill="#DBDBDB" transform="translate(382,415)"/>
<path d="M0 0 C0 0.66 0 1.32 0 2 C-0.65484375 2.2266333 -1.3096875 2.4532666 -1.984375 2.68676758 C-4.98994834 3.72762777 -7.99497678 4.7700527 -11 5.8125 C-12.54494141 6.34713867 -12.54494141 6.34713867 -14.12109375 6.89257812 C-20.64667075 9.15782619 -27.12230383 11.5171784 -33.57421875 13.984375 C-37.71531638 15.48466176 -40.65621754 16.54134216 -45 15 C-41.9127412 12.94182747 -39.25542526 11.94679592 -35.75 10.7578125 C-34.50089844 10.33113281 -33.25179687 9.90445313 -31.96484375 9.46484375 C-30.64330018 9.01801907 -29.32168519 8.57140559 -28 8.125 C-26.07048724 7.46955667 -24.14141001 6.81285712 -22.21264648 6.1552124 C-20.33252363 5.51463476 -18.45142257 4.87693056 -16.5703125 4.23925781 C-12.36960484 2.78118942 -8.21624096 1.21388777 -4.07421875 -0.40283203 C-2 -1 -2 -1 0 0 Z " fill="#464646" transform="translate(188,99)"/>
<path d="M0 0 C0.66 0 1.32 0 2 0 C2.18281075 4.2929006 1.70504007 7.43051217 0.1875 11.4375 C-3.38110955 21.62448826 -5.26589919 32.24162607 -6 43 C-7.86328104 40.88882367 -8.95525608 39.63105557 -9.15771484 36.77563477 C-8.34425062 30.7166224 -7.1692076 24.85236663 -5.625 18.9375 C-5.41617187 18.10412109 -5.20734375 17.27074219 -4.9921875 16.41210938 C-3.57278123 10.85132568 -1.88727467 5.4191744 0 0 Z " fill="#464646" transform="translate(517,135)"/>
<path d="M0 0 C-6.94554331 6.94554331 -22.14456576 7.95012946 -31.61181641 8.03076172 C-40.08372493 7.88898564 -48.54161704 7.49288057 -57 7 C-57 6.67 -57 6.34 -57 6 C-56.25129639 5.9906543 -55.50259277 5.98130859 -54.73120117 5.97167969 C-38.28405472 5.71475206 -22.32987818 5.22943496 -6.640625 -0.15234375 C-3.87236017 -1.04097314 -2.67214495 -1.02774806 0 0 Z " fill="#464646" transform="translate(382,82)"/>
<path d="M0 0 C6.54097157 11.61712148 5.2429252 26.14084376 4.6875 38.9375 C4.62404441 40.69981267 4.56218607 42.46218361 4.50195312 44.22460938 C4.35297877 48.48396686 4.18262915 52.7419583 4 57 C3.67 57 3.34 57 3 57 C2.97812622 55.63403687 2.97812622 55.63403687 2.95581055 54.24047852 C2.8022635 32.08314726 2.8022635 32.08314726 -0.4765625 10.2421875 C-1.06752771 6.58173133 -0.69179075 3.6249835 0 0 Z " fill="#4C4C4C" transform="translate(158,154)"/>
<path d="M0 0 C0.33 0 0.66 0 1 0 C0.67 16.5 0.34 33 0 50 C-0.33 50 -0.66 50 -1 50 C-1.80590847 45.04074877 -2.15973239 40.22337072 -2.16796875 35.1953125 C-2.17129715 34.47189667 -2.17462555 33.74848083 -2.17805481 33.00314331 C-2.18308641 31.48208241 -2.18546431 29.96101062 -2.18530273 28.43994141 C-2.18748751 26.13815768 -2.2056785 23.83685538 -2.22460938 21.53515625 C-2.25203434 14.11715553 -2.07074349 7.18621655 0 0 Z " fill="#252525" transform="translate(509,171)"/>
<path d="M0 0 C1.10472656 0.06058594 2.20945312 0.12117188 3.34765625 0.18359375 C16.22806767 0.88040059 29.11216114 1.4593123 42 2 C38.87995707 5.12004293 35.54914749 4.29304763 31.28662109 4.328125 C29.53599365 4.32039063 29.53599365 4.32039063 27.75 4.3125 C26.5738916 4.31121094 25.3977832 4.30992188 24.18603516 4.30859375 C15.76753405 4.21563584 8.08836704 3.47062848 0 1 C0 0.67 0 0.34 0 0 Z " fill="#393939" transform="translate(306,87)"/>
<path d="M0 0 C0.33 0 0.66 0 1 0 C2.34637072 10.21799211 2.96333046 20.84054395 1 31 C0.67 31 0.34 31 0 31 C0 27.04 0 23.08 0 19 C-0.66 18.67 -1.32 18.34 -2 18 C-1.34 18 -0.68 18 0 18 C-0.33 15.36 -0.66 12.72 -1 10 C-6.61 9.67 -12.22 9.34 -18 9 C-18 8.67 -18 8.34 -18 8 C-12.06 8 -6.12 8 0 8 C0 5.36 0 2.72 0 0 Z " fill="#303030" transform="translate(548,544)"/>
<path d="M0 0 C6.3903734 0.57531062 11.91761704 2.62574082 17.875 4.9375 C18.83664062 5.29779297 19.79828125 5.65808594 20.7890625 6.02929688 C27.87288049 8.74576098 27.87288049 8.74576098 29 11 C22.6096266 10.42468938 17.08238296 8.37425918 11.125 6.0625 C10.16335938 5.70220703 9.20171875 5.34191406 8.2109375 4.97070312 C1.12711951 2.25423902 1.12711951 2.25423902 0 0 Z " fill="#3D3D3D" transform="translate(461,91)"/>
<path d="M0 0 C0.66 0.99 1.32 1.98 2 3 C-13.94236311 15 -13.94236311 15 -23 15 C-23 14.34 -23 13.68 -23 13 C-22.07058594 12.62488281 -21.14117187 12.24976562 -20.18359375 11.86328125 C-13.59210416 9.15154742 -7.67320407 6.38383951 -2 2 C-1.34 2 -0.68 2 0 2 C0 1.34 0 0.68 0 0 Z " fill="#414141" transform="translate(404,67)"/>
<path d="M0 0 C0.99 0.66 1.98 1.32 3 2 C0.03 6.95 0.03 6.95 -3 12 C-12.71428571 9 -12.71428571 9 -16 6 C-15.67 5.01 -15.34 4.02 -15 3 C-14.37351562 3.3609375 -13.74703125 3.721875 -13.1015625 4.09375 C-12.28429687 4.5578125 -11.46703125 5.021875 -10.625 5.5 C-9.81289063 5.9640625 -9.00078125 6.428125 -8.1640625 6.90625 C-6.10663126 8.15035859 -6.10663126 8.15035859 -4 8 C-2.68 5.36 -1.36 2.72 0 0 Z " fill="#414141" transform="translate(579,321)"/>
<path d="M0 0 C0.66 0.33 1.32 0.66 2 1 C-6.14082494 8.8023291 -14.8133486 15.47884125 -24 22 C-24.66 21.34 -25.32 20.68 -26 20 C-25.11699219 19.38253906 -24.23398437 18.76507813 -23.32421875 18.12890625 C-11.13305526 9.71599522 -11.13305526 9.71599522 0 0 Z " fill="#DADADA" transform="translate(475,361)"/>
<path d="M0 0 C5.74548634 0.46585024 9.55497444 2.07098434 14.4375 5.0625 C15.07365234 5.43955078 15.70980469 5.81660156 16.36523438 6.20507812 C17.91632902 7.12640502 19.45907343 8.06176593 21 9 C20.67 9.99 20.34 10.98 20 12 C17.36 11.01 14.72 10.02 12 9 C12 8.34 12 7.68 12 7 C11.2575 6.71125 10.515 6.4225 9.75 6.125 C7.43260203 5.17697356 5.22082885 4.15154089 3 3 C3 2.34 3 1.68 3 1 C2.01 0.67 1.02 0.34 0 0 Z " fill="#373737" transform="translate(393,60)"/>
<path d="M0 0 C1.13818359 1.70214844 1.13818359 1.70214844 2 4 C1.21728516 6.29003906 1.21728516 6.29003906 -0.2109375 8.765625 C-0.71367188 9.65507812 -1.21640625 10.54453125 -1.734375 11.4609375 C-2.27578125 12.38132812 -2.8171875 13.30171875 -3.375 14.25 C-3.90867187 15.18585938 -4.44234375 16.12171875 -4.9921875 17.0859375 C-6.31406129 19.39921663 -7.65022986 21.70292282 -9 24 C-9.33 24 -9.66 24 -10 24 C-9.54803484 17.81218608 -7.44359034 13.43479315 -4.4375 8.0625 C-4.01275391 7.28326172 -3.58800781 6.50402344 -3.15039062 5.70117188 C-2.10987146 3.79550195 -1.05625582 1.89699278 0 0 Z " fill="#404040" transform="translate(575,297)"/>
<path d="M0 0 C3.01807353 1.35979137 5.16171372 2.9215311 7.5625 5.1875 C12.29901453 9.4494677 17.5613574 12.71082093 23 16 C22.67 16.99 22.34 17.98 22 19 C2.80291971 5.60583942 2.80291971 5.60583942 0 0 Z " fill="#DBDBDB" transform="translate(198,363)"/>
<path d="M0 0 C4.28705043 1.42901681 5.23208702 4.57025431 7.1875 8.375 C7.73954102 9.40367187 7.73954102 9.40367187 8.30273438 10.453125 C11 15.59744608 11 15.59744608 11 19 C10.34 19 9.68 19 9 19 C7.4933028 16.2118978 5.99580196 13.41896042 4.5 10.625 C4.07074219 9.8309375 3.64148437 9.036875 3.19921875 8.21875 C2.79316406 7.45820313 2.38710938 6.69765625 1.96875 5.9140625 C1.40317383 4.8614624 1.40317383 4.8614624 0.82617188 3.78759766 C0 2 0 2 0 0 Z " fill="#3A3A3A" transform="translate(53,255)"/>
<path d="M0 0 C-5.61 3.63 -11.22 7.26 -17 11 C-17.33 10.34 -17.66 9.68 -18 9 C-15.22511396 6.05168359 -12.44880996 3.8062049 -9 1.6875 C-7.7315625 0.88892578 -7.7315625 0.88892578 -6.4375 0.07421875 C-4 -1 -4 -1 0 0 Z " fill="#363636" transform="translate(61,169)"/>
<path d="M0 0 C0.33 0.66 0.66 1.32 1 2 C-1.55834571 2.86881541 -4.12042461 3.7202133 -6.6875 4.5625 C-7.40873047 4.80935547 -8.12996094 5.05621094 -8.87304688 5.31054688 C-12.94352832 6.63020068 -15.78027933 7.38992772 -20 6 C-16.63660335 3.75773557 -13.23659448 2.57407253 -9.4375 1.3125 C-8.40979492 0.95575195 -8.40979492 0.95575195 -7.36132812 0.59179688 C-2.24241255 -1.12120628 -2.24241255 -1.12120628 0 0 Z " fill="#484848" transform="translate(163,108)"/>
<path d="M0 0 C-0.33 0.66 -0.66 1.32 -1 2 C-12.10849114 4.60709486 -24.74435329 2.630877 -36 2 C-36 1.67 -36 1.34 -36 1 C-31.50008666 0.83093851 -27.00005734 0.66518068 -22.5 0.5 C-21.2315625 0.45230469 -19.963125 0.40460938 -18.65625 0.35546875 C-12.43313793 0.12858446 -6.22729901 -0.06290201 0 0 Z " fill="#525252" transform="translate(361,87)"/>
<path d="M0 0 C0.33 0 0.66 0 1 0 C1.12867289 8.06350113 0.79681084 15.97497656 0 24 C-2 22 -2 22 -2.265625 19.27734375 C-2.23404709 12.52756519 -1.76813355 6.51999246 0 0 Z " fill="#2E2E2E" transform="translate(509,171)"/>
<path d="M0 0 C0.99 0.66 1.98 1.32 3 2 C0.36 6.95 -2.28 11.9 -5 17 C-5.66 15.68 -6.32 14.36 -7 13 C-5.98613427 10.5453777 -4.97276745 8.50453746 -3.625 6.25 C-3.28210938 5.64800781 -2.93921875 5.04601562 -2.5859375 4.42578125 C-1.73822182 2.94227881 -0.87094495 1.46998513 0 0 Z " fill="#3C3C3C" transform="translate(627,233)"/>
<path d="M0 0 C2.81666361 0.58842283 5.62726432 1.19474236 8.4375 1.8125 C9.23994141 1.97814453 10.04238281 2.14378906 10.86914062 2.31445312 C12.93749958 2.77699753 14.97333737 3.37976241 17 4 C17.33 4.99 17.66 5.98 18 7 C11.51527007 6.26309887 5.30760257 4.64681249 -1 3 C-0.67 2.01 -0.34 1.02 0 0 Z " fill="#454545" transform="translate(291,82)"/>
<path d="M0 0 C0.99 0.33 1.98 0.66 3 1 C2.01 5.95 1.02 10.9 0 16 C-0.99 15.67 -1.98 15.34 -3 15 C-2.69052329 13.06201479 -2.37731166 11.12462574 -2.0625 9.1875 C-1.88847656 8.10855469 -1.71445313 7.02960938 -1.53515625 5.91796875 C-1 3 -1 3 0 0 Z " fill="#494949" transform="translate(157,239)"/>
<path d="M0 0 C0.66 0 1.32 0 2 0 C6.40774487 10.37357631 6.40774487 10.37357631 7 16 C6.34 16 5.68 16 5 16 C4.16209211 14.21046815 3.32980604 12.41830305 2.5 10.625 C1.80390625 9.12839844 1.80390625 9.12839844 1.09375 7.6015625 C0 5 0 5 0 3 C-0.66 2.67 -1.32 2.34 -2 2 C-1.34 1.34 -0.68 0.68 0 0 Z " fill="#343434" transform="translate(143,114)"/>
<path d="M0 0 C2.00993705 3.01490557 2.72623341 5.2149927 3.625 8.6875 C3.88539063 9.68136719 4.14578125 10.67523438 4.4140625 11.69921875 C4.60742188 12.45847656 4.80078125 13.21773438 5 14 C3.68 13.67 2.36 13.34 1 13 C0.01 9.37 -0.98 5.74 -2 2 C-1.34 1.34 -0.68 0.68 0 0 Z " fill="#4D4D4D" transform="translate(517,256)"/>
<path d="M0 0 C3.88698768 4.2403502 4.89129015 9.39096352 5.125 15 C5.08375 15.66 5.0425 16.32 5 17 C2.36001029 15.68000515 2.29985024 14.63086688 1.375 11.875 C0.05373468 7.72529737 -0.27625262 4.32795771 0 0 Z " fill="#363636" transform="translate(512,242)"/>
<path d="M0 0 C2.9719385 1.12451727 5.33440687 2.22293791 8 4 C8.39507893 8.34586828 8.45331002 10.32003497 6 14 C5.34 14 4.68 14 4 14 C4.309375 13.236875 4.61875 12.47375 4.9375 11.6875 C5.67893593 9.81210323 6.36228217 7.91315348 7 6 C6.21625 5.7525 5.4325 5.505 4.625 5.25 C1.67682892 3.84610901 1.0975223 2.99324263 0 0 Z " fill="#323232" transform="translate(629,179)"/>
<path d="M0 0 C0.33 0 0.66 0 1 0 C1.36463732 1.74784829 1.7163078 3.49840502 2.0625 5.25 C2.25972656 6.22453125 2.45695313 7.1990625 2.66015625 8.203125 C2.98632432 10.88745074 3.00065712 12.50693427 2 15 C1.01 15.495 1.01 15.495 0 16 C-0.66 11.71 -1.32 7.42 -2 3 C-1.34 3 -0.68 3 0 3 C0 2.01 0 1.02 0 0 Z " fill="#4D4D4D" transform="translate(511,229)"/>
<path d="M0 0 C0.66 0 1.32 0 2 0 C1.36843005 5.05255964 -0.13459373 9.29593201 -2 14 C-2.66 13.34 -3.32 12.68 -4 12 C-3.62793814 7.65927829 -1.77048085 3.92584885 0 0 Z " fill="#3F3F3F" transform="translate(522,123)"/>
<path d="M0 0 C0.66 0.33 1.32 0.66 2 1 C2 1.99 2 2.98 2 4 C-1.33333333 5.66666667 -4.66666667 7.33333333 -8 9 C-8.99 8.34 -9.98 7.68 -11 7 C-9.21475351 5.80286983 -7.4215972 4.61752721 -5.625 3.4375 C-4.62726563 2.77621094 -3.62953125 2.11492187 -2.6015625 1.43359375 C-1.74304688 0.96050781 -0.88453125 0.48742187 0 0 Z " fill="#434343" transform="translate(141,114)"/>
<path d="M0 0 C-2.21229599 2.54414039 -3.65126671 3.54746847 -7 4 C-9.67286275 4.07182357 -12.32490846 4.04458486 -15 4 C-9.84599161 0.56399441 -6.22297833 -0.24403837 0 0 Z " fill="#383838" transform="translate(380,66)"/>
<path d="M0 0 C1.50559539 1.96382007 2.89131683 3.78263366 4 6 C7.465 5.505 7.465 5.505 11 5 C10.1875 6.9375 10.1875 6.9375 9 9 C8.01 9.33 7.02 9.66 6 10 C6 9.34 6 8.68 6 8 C4.68 8.33 3.36 8.66 2 9 C0.93347808 6.69631264 -0.06421005 4.35981813 -1 2 C-0.67 1.34 -0.34 0.68 0 0 Z " fill="#484848" transform="translate(105,316)"/>
<path d="M0 0 C1.90389849 2.85584773 2.69462177 4.9311762 3.625 8.1875 C3.88539063 9.08855469 4.14578125 9.98960937 4.4140625 10.91796875 C4.60742188 11.60503906 4.80078125 12.29210937 5 13 C4.01 13 3.02 13 2 13 C-1.62870159 4.738041 -1.62870159 4.738041 0 0 Z " fill="#444444" transform="translate(150,128)"/>
<path d="M0 0 C0.66 0 1.32 0 2 0 C1.42365861 4.75481646 -0.55068521 7.97048212 -3 12 C-3.66 12 -4.32 12 -5 12 C-3.68938409 7.76570244 -2.05643741 3.92592596 0 0 Z " fill="#373737" transform="translate(611,231)"/>
<path d="M0 0 C3.04049801 3.64859761 4.96518762 7.7444533 7 12 C6.01 12 5.02 12 4 12 C3.13624104 10.38007835 2.28424146 8.75388139 1.4375 7.125 C0.72400391 5.76761719 0.72400391 5.76761719 -0.00390625 4.3828125 C-0.33261719 3.59648437 -0.66132812 2.81015625 -1 2 C-0.67 1.34 -0.34 0.68 0 0 Z " fill="#424242" transform="translate(43,203)"/>
<path d="M0 0 C0.66 0.33 1.32 0.66 2 1 C1.52354792 5.28806873 0.34097516 7.26647487 -3 10 C-3.66 10 -4.32 10 -5 10 C-3.66511872 6.40608886 -2.03977277 3.24509304 0 0 Z " fill="#3C3C3C" transform="translate(130,307)"/>
<path d="M0 0 C1.34771484 0.37898438 1.34771484 0.37898438 2.72265625 0.765625 C3.45355469 1.09046875 4.18445313 1.4153125 4.9375 1.75 C5.2675 2.74 5.5975 3.73 5.9375 4.75 C4.33152675 4.29803755 2.72777492 3.83817673 1.125 3.375 C0.23167969 3.11976562 -0.66164063 2.86453125 -1.58203125 2.6015625 C-4.0625 1.75 -4.0625 1.75 -7.0625 -0.25 C-4.28293508 -1.63978246 -2.94203614 -0.86356169 0 0 Z " fill="#474747" transform="translate(495.0625,102.25)"/>
<path d="M0 0 C0.99 0.33 1.98 0.66 3 1 C2.67 5.29 2.34 9.58 2 14 C-1 10 -1 10 -1.07421875 7.421875 C-0.94660156 6.54015625 -0.81898438 5.6584375 -0.6875 4.75 C-0.56761719 3.85796875 -0.44773437 2.9659375 -0.32421875 2.046875 C-0.21722656 1.37140625 -0.11023438 0.6959375 0 0 Z " fill="#5A5A5A" transform="translate(509,164)"/>
<path d="M0 0 C1.32 0.33 2.64 0.66 4 1 C1.525 5.455 1.525 5.455 -1 10 C-1.66 9.67 -2.32 9.34 -3 9 C-2.01 6.03 -1.02 3.06 0 0 Z " fill="#313131" transform="translate(526,114)"/>
<path d="M0 0 C0 0.99 0 1.98 0 3 C-4.455 4.485 -4.455 4.485 -9 6 C-9.66 5.34 -10.32 4.68 -11 4 C-9.5437455 3.32880451 -8.08492133 2.66318193 -6.625 2 C-5.81289062 1.62875 -5.00078125 1.2575 -4.1640625 0.875 C-2 0 -2 0 0 0 Z " fill="#424242" transform="translate(236,79)"/>
<path d="M0 0 C0.97582031 0.10183594 1.95164062 0.20367187 2.95703125 0.30859375 C3.69308594 0.39238281 4.42914063 0.47617188 5.1875 0.5625 C1.62931064 2.82523207 -0.93797951 2.63581744 -5.0625 2.1875 C-6.14015625 2.07664062 -7.2178125 1.96578125 -8.328125 1.8515625 C-9.55789063 1.70847656 -9.55789063 1.70847656 -10.8125 1.5625 C-10.8125 1.2325 -10.8125 0.9025 -10.8125 0.5625 C-7.01982808 -0.3735342 -3.87575435 -0.42026252 0 0 Z " fill="#454545" transform="translate(312.8125,69.4375)"/>
<path d="M0 0 C0.66 0.33 1.32 0.66 2 1 C2 1.66 2 2.32 2 3 C-3.45769231 6.10096154 -3.45769231 6.10096154 -6.203125 5.58984375 C-6.79609375 5.39519531 -7.3890625 5.20054687 -8 5 C-6.71475739 4.13619741 -5.42157581 3.28419631 -4.125 2.4375 C-3.04605469 1.72400391 -3.04605469 1.72400391 -1.9453125 0.99609375 C-1.30335937 0.66738281 -0.66140625 0.33867187 0 0 Z " fill="#383838" transform="translate(121,318)"/>
<path d="M0 0 C0.66 0 1.32 0 2 0 C1.39301257 4.12751449 -0.03810791 7.3321148 -2 11 C-2.66 10.67 -3.32 10.34 -4 10 C-2.8905928 6.51329166 -1.73662334 3.22515763 0 0 Z " fill="#363636" transform="translate(602,279)"/>
<path d="M0 0 C-4.455 2.97 -4.455 2.97 -9 6 C-9.33 5.34 -9.66 4.68 -10 4 C-4.93506494 -1.23376623 -4.93506494 -1.23376623 0 0 Z " fill="#353535" transform="translate(133,123)"/>
<path d="M0 0 C3.71888239 0.50712033 6.73454239 1.11608215 10 3 C9.67 3.99 9.34 4.98 9 6 C7.68277821 5.57692877 6.37127336 5.13602514 5.0625 4.6875 C4.33160156 4.44386719 3.60070312 4.20023437 2.84765625 3.94921875 C1 3 1 3 0 0 Z " fill="#2E2E2E" transform="translate(404,66)"/>
<path d="M0 0 C3.96 1.98 3.96 1.98 8 4 C8 4.99 8 5.98 8 7 C2.25 5.25 2.25 5.25 0 3 C0 2.01 0 1.02 0 0 Z " fill="#4B4B4B" transform="translate(563,324)"/>
<path d="M0 0 C-2.6855594 2.6855594 -5.37621328 3.06049974 -9 4 C-9.33 3.01 -9.66 2.02 -10 1 C-3.71428571 -1.42857143 -3.71428571 -1.42857143 0 0 Z " fill="#515151" transform="translate(382,82)"/>
<path d="M0 0 C0.99 0.33 1.98 0.66 3 1 C-1.455 3.97 -1.455 3.97 -6 7 C-6 4 -6 4 -4.625 2.3125 C-3 1 -3 1 -1 1 C-0.67 0.67 -0.34 0.34 0 0 Z " fill="#DDDDDD" transform="translate(134,312)"/>
<path d="M0 0 C0.33 0 0.66 0 1 0 C0.88637738 1.4800841 0.75877092 2.95910074 0.625 4.4375 C0.52058594 5.67306641 0.52058594 5.67306641 0.4140625 6.93359375 C0.27742187 7.61550781 0.14078125 8.29742187 0 9 C-0.99 9.495 -0.99 9.495 -2 10 C-2.1953125 3.9453125 -2.1953125 3.9453125 -2 2 C-1.34 1.34 -0.68 0.68 0 0 Z " fill="#343434" transform="translate(160,231)"/>
<path d="M0 0 C6.75 0.875 6.75 0.875 9 2 C9 2.66 9 3.32 9 4 C2.25 3.125 2.25 3.125 0 2 C0 1.34 0 0.68 0 0 Z " fill="#3D3D3D" transform="translate(282,80)"/>
<path d="M0 0 C0.66 0 1.32 0 2 0 C1.44271087 3.34373475 0.64826111 6.03312999 -1 9 C-1.66 9 -2.32 9 -3 9 C-2.44271087 5.65626525 -1.64826111 2.96687001 0 0 Z " fill="#353535" transform="translate(579,290)"/>
<path d="M0 0 C0.66 0 1.32 0 2 0 C1.44271087 3.34373475 0.64826111 6.03312999 -1 9 C-1.66 9 -2.32 9 -3 9 C-2.44271087 5.65626525 -1.64826111 2.96687001 0 0 Z " fill="#333333" transform="translate(619,248)"/>
<path d="M0 0 C-0.33 0.66 -0.66 1.32 -1 2 C-3.06640625 2.6328125 -3.06640625 2.6328125 -5.5625 3.125 C-6.80193359 3.37636719 -6.80193359 3.37636719 -8.06640625 3.6328125 C-8.70449219 3.75398438 -9.34257812 3.87515625 -10 4 C-7.16124653 -0.25813021 -4.8137938 -0.13010254 0 0 Z " fill="#343434" transform="translate(172,105)"/>
<path d="M0 0 C6.52307692 0.61538462 6.52307692 0.61538462 8.9375 2.5625 C9.288125 3.036875 9.63875 3.51125 10 4 C3.47692308 3.38461538 3.47692308 3.38461538 1.0625 1.4375 C0.711875 0.963125 0.36125 0.48875 0 0 Z " fill="#363636" transform="translate(461,91)"/>
<path d="M0 0 C0 0.66 0 1.32 0 2 C-3.08809695 3.76462683 -4.23312136 4 -8 4 C-8 3.34 -8 2.68 -8 2 C-5.09399739 0.74335022 -3.20395416 0 0 0 Z " fill="#363636" transform="translate(111,324)"/>
<path d="M0 0 C3 1 3 1 4.1875 2.875 C5 5 5 5 5 8 C4.34 8 3.68 8 3 8 C0 2.25 0 2.25 0 0 Z " fill="#343434" transform="translate(71,288)"/>
<path d="M0 0 C0.99 0.33 1.98 0.66 3 1 C4.6875 4.5625 4.6875 4.5625 6 8 C5.01 8 4.02 8 3 8 C0 2.25 0 2.25 0 0 Z " fill="#343434" transform="translate(73,260)"/>
<path d="M0 0 C3 1 3 1 4.1875 2.875 C5 5 5 5 5 8 C4.34 8 3.68 8 3 8 C0 2.25 0 2.25 0 0 Z " fill="#313131" transform="translate(53,255)"/>
<path d="M0 0 C0.66 0.33 1.32 0.66 2 1 C1 4 1 4 -1.0625 5.1875 C-1.701875 5.455625 -2.34125 5.72375 -3 6 C-3.99 5.34 -4.98 4.68 -6 4 C-4.02 2.68 -2.04 1.36 0 0 Z " fill="#444444" transform="translate(64,163)"/>
<path d="M0 0 C0.66 0.99 1.32 1.98 2 3 C0.02 4.32 -1.96 5.64 -4 7 C-4.66 6.34 -5.32 5.68 -6 5 C-2.25 2 -2.25 2 0 2 C0 1.34 0 0.68 0 0 Z " fill="#474747" transform="translate(404,67)"/>
<path d="M0 0 C1.89213369 2.38573379 3.02391783 4.07175348 4 7 C3.01 7.33 2.02 7.66 1 8 C0.26919734 6.02253397 -0.39421747 4.01927511 -1 2 C-0.67 1.34 -0.34 0.68 0 0 Z " fill="#484848" transform="translate(51,248)"/>
<path d="M0 0 C1.89213369 2.38573379 3.02391783 4.07175348 4 7 C3.01 7.33 2.02 7.66 1 8 C0.26919734 6.02253397 -0.39421747 4.01927511 -1 2 C-0.67 1.34 -0.34 0.68 0 0 Z " fill="#454545" transform="translate(28,206)"/>
<path d="M0 0 C0.33 0 0.66 0 1 0 C1.125 5.75 1.125 5.75 0 8 C-0.66 8 -1.32 8 -2 8 C-1.125 1.125 -1.125 1.125 0 0 Z " fill="#363636" transform="translate(512,157)"/>
<path d="M0 0 C4.455 0.99 4.455 0.99 9 2 C8.67 2.66 8.34 3.32 8 4 C5.125 3.6875 5.125 3.6875 2 3 C1.34 2.01 0.68 1.02 0 0 Z " fill="#3D3D3D" transform="translate(500,105)"/>
<path d="M0 0 C0.598125 0.20625 1.19625 0.4125 1.8125 0.625 C-3.9375 4.625 -3.9375 4.625 -6.1875 4.625 C-5.03076352 1.15479057 -3.91311293 -0.67081936 0 0 Z " fill="#3A3A3A" transform="translate(398.1875,73.375)"/>
<path d="M0 0 C1.98 0 3.96 0 6 0 C5.67 1.32 5.34 2.64 5 4 C2.525 3.01 2.525 3.01 0 2 C0 1.34 0 0.68 0 0 Z " fill="#343434" transform="translate(571,329)"/>
<path d="M0 0 C1.89213369 2.38573379 3.02391783 4.07175348 4 7 C3.01 7 2.02 7 1 7 C-1 4 -1 4 -0.625 1.8125 C-0.41875 1.214375 -0.2125 0.61625 0 0 Z " fill="#404040" transform="translate(87,314)"/>
<path d="M0 0 C1.89213369 2.38573379 3.02391783 4.07175348 4 7 C2.68 6.67 1.36 6.34 0 6 C-1.125 2.25 -1.125 2.25 0 0 Z " fill="#464646" transform="translate(91,290)"/>
<path d="M0 0 C0.625 1.8125 0.625 1.8125 1 4 C0.01 5.485 0.01 5.485 -1 7 C-1.66 7 -2.32 7 -3 7 C-2.25 2.25 -2.25 2.25 0 0 Z " fill="#333333" transform="translate(147,276)"/>
<path d="M0 0 C0.33 0.66 0.66 1.32 1 2 C0.06553465 4.03144641 -0.93224776 6.03533587 -2 8 C-2.66 7.67 -3.32 7.34 -4 7 C-3.39816251 4.97954558 -2.72693904 2.97888961 -2 1 C-1.34 0.67 -0.68 0.34 0 0 Z " fill="#353535" transform="translate(593,267)"/>
<path d="M0 0 C0.66 0.33 1.32 0.66 2 1 C1.25 5.75 1.25 5.75 -1 8 C-1.93065133 5.39417629 -2.14917407 4.35801776 -1.0625 1.75 C-0.711875 1.1725 -0.36125 0.595 0 0 Z " fill="#4A4A4A" transform="translate(600,251)"/>
<path d="M0 0 C0.66 0.33 1.32 0.66 2 1 C1.25 5.75 1.25 5.75 -1 8 C-1.93065133 5.39417629 -2.14917407 4.35801776 -1.0625 1.75 C-0.711875 1.1725 -0.36125 0.595 0 0 Z " fill="#434343" transform="translate(622,242)"/>
<path d="M0 0 C0.33 0.66 0.66 1.32 1 2 C-0.3125 4.625 -0.3125 4.625 -2 7 C-2.66 7 -3.32 7 -4 7 C-3.43628586 3.73045798 -2.50037734 2.17424117 0 0 Z " fill="#333333" transform="translate(632,227)"/>
<path d="M0 0 C2.91517292 1.07401108 4.77810176 1.77810176 7 4 C5.1875 4.625 5.1875 4.625 3 5 C2.01 4.34 1.02 3.68 0 3 C0 2.01 0 1.02 0 0 Z " fill="#414141" transform="translate(612,168)"/>
<path d="M0 0 C2.97 0.495 2.97 0.495 6 1 C6.33 2.32 6.66 3.64 7 5 C3.535 3.02 3.535 3.02 0 1 C0 0.67 0 0.34 0 0 Z " fill="#323232" transform="translate(605,165)"/>
<path d="M0 0 C2.97 0.495 2.97 0.495 6 1 C6.33 2.32 6.66 3.64 7 5 C3.535 3.02 3.535 3.02 0 1 C0 0.67 0 0.34 0 0 Z " fill="#333333" transform="translate(542,125)"/>
<path d="M0 0 C2.31 0.66 4.62 1.32 7 2 C5.3125 3.125 5.3125 3.125 3 4 C0.25 3.125 0.25 3.125 -2 2 C-1.34 1.34 -0.68 0.68 0 0 Z " fill="#484848" transform="translate(456,88)"/>
</svg>
