<svg version="1.1" id="Layer_1" xmlns="http://www.w3.org/2000/svg" xmlns:xlink="http://www.w3.org/1999/xlink" x="0px" y="0px"
	 width="100%" viewBox="0 0 1507 2000" enable-background="new 0 0 1507 2000" xml:space="preserve">
<path fill="none" opacity="1.000000" stroke="#000000" stroke-linecap="round" stroke-linejoin="round" stroke-width="4.000000"
	d="
M1129.000000,867.000000 
	C1132.729492,869.569214 1133.999390,873.851990 1135.919922,877.541687 
	C1151.081421,906.670471 1168.207275,934.594910 1187.034424,961.475891 
	C1194.414185,972.012512 1202.181152,982.277832 1210.010010,992.993042 
	C1278.406860,967.387634 1340.007202,930.775513 1395.409424,883.412048 
	C1390.285645,872.445190 1385.694458,861.818054 1380.428101,851.536804 
	C1372.812134,836.668457 1365.699463,821.567017 1358.441406,806.528320 
	C1348.172119,785.250244 1337.338989,764.244751 1327.035156,742.982910 
	C1308.244995,704.209473 1289.757690,665.289307 1270.972168,626.513489 
	C1255.275513,594.113953 1239.492188,561.754150 1223.434937,529.532471 
	C1215.027832,512.662292 1204.413818,497.377594 1188.500732,486.498932 
	C1179.494629,480.342224 1169.660767,475.796478 1159.487671,472.033295 
	C1120.518066,457.617767 1081.502808,443.325592 1042.499146,429.002380 
	C1009.336670,416.824219 976.171326,404.654022 942.998535,392.504059 
	C917.005920,382.983887 890.972229,373.574371 865.041443,363.889069 
	C862.344116,362.881622 860.023743,362.792419 857.504333,363.515015 
	C829.934387,371.421936 801.894409,377.001251 773.508972,381.062775 
	C752.925354,384.007965 732.311951,386.551575 711.503357,385.893372 
	C697.952026,385.464691 684.463928,383.876862 670.977600,382.177673 
	C656.732727,380.382965 642.592712,378.022125 628.526733,375.358734 
	C612.371826,372.299866 596.206787,368.934479 580.550781,363.843781 
	C573.550415,361.567535 568.236145,365.047760 562.534851,367.097015 
	C540.948242,374.855957 519.518066,383.048950 497.995544,390.987885 
	C469.847168,401.370819 441.672821,411.683502 413.498169,421.994965 
	C388.840393,431.019257 364.147308,439.947418 339.505585,449.015198 
	C316.146240,457.611176 292.765686,466.157349 269.533295,475.086609 
	C260.251923,478.653870 251.205673,483.258850 243.620499,489.643158 
	C231.843735,499.555511 222.703674,511.709381 215.362137,525.426208 
	C205.853561,543.191833 197.549072,561.524780 188.560944,579.530396 
	C177.142426,602.404724 166.146606,625.490295 155.004654,648.502258 
	C137.820328,683.993713 120.667389,719.500366 103.499763,754.999878 
	C91.167694,780.500488 78.862473,806.014160 66.489555,831.494934 
	C58.545330,847.855347 50.497429,864.165405 42.507679,880.503784 
	C42.114510,881.307800 41.833344,882.166687 41.500011,883.000000 
"/>
<path fill="none" opacity="1.000000" stroke="#000000" stroke-linecap="round" stroke-linejoin="round" stroke-width="5.000000"
	d="
M308.000000,868.500000 
	C308.775574,869.901733 309.012604,871.385498 309.028320,872.999695 
	C309.142151,884.666931 309.208069,896.336670 309.522766,907.999390 
	C310.606476,948.163574 310.260620,988.339844 309.846161,1028.498413 
	C309.385162,1073.168457 309.868744,1117.834351 309.488708,1162.499878 
	C308.372650,1293.665527 309.304504,1424.833496 309.010803,1556.000000 
	C308.938385,1588.333252 309.214325,1620.668823 308.890839,1652.998901 
	C308.767365,1665.338989 309.046387,1677.666748 309.061005,1689.999878 
	C309.065125,1693.500366 308.042725,1696.895630 308.833191,1700.536255 
	C309.371307,1703.014526 310.168884,1703.860718 312.498413,1704.022949 
	C334.674133,1705.566162 356.794556,1707.768677 378.993652,1709.105469 
	C404.819427,1710.660645 430.634644,1712.184082 456.496155,1713.107544 
	C476.495880,1713.821777 496.492188,1714.521240 516.496521,1715.116699 
	C538.499084,1715.771362 560.505127,1715.576172 582.498047,1716.084595 
	C660.995850,1717.899170 739.500427,1716.822998 818.000061,1716.844971 
	C844.324951,1716.852295 870.664978,1716.223267 896.999084,1715.918335 
	C921.336792,1715.636353 945.672668,1714.832275 969.998169,1713.949463 
	C990.840332,1713.193237 1011.693787,1712.379639 1032.492554,1710.895142 
	C1053.999878,1709.359985 1075.556030,1708.440430 1097.006104,1706.054932 
	C1105.969360,1705.058105 1114.993286,1704.537354 1124.003540,1704.068115 
	C1127.285767,1703.896973 1128.051270,1702.525269 1128.048462,1699.500000 
	C1127.985107,1631.666626 1128.290649,1563.831421 1127.848145,1496.000977 
	C1127.684937,1471.001099 1127.676636,1445.999878 1127.518677,1420.999878 
	C1126.590088,1274.000977 1127.226929,1126.999756 1126.869019,980.000305 
	C1126.832031,964.840515 1126.208984,949.651978 1126.624878,934.503418 
	C1127.192749,913.830261 1126.223511,893.142883 1127.145386,872.506470 
	C1128.061157,852.006531 1127.646729,831.466003 1129.084229,811.005920 
	C1130.618774,789.164734 1131.762329,767.300964 1133.852661,745.485901 
	C1136.403198,718.868896 1139.649536,692.371094 1144.008423,666.001404 
	C1146.894043,648.545654 1150.479248,631.233765 1154.452271,613.989014 
	C1159.910034,590.299744 1166.467163,566.925964 1174.585571,544.030334 
	C1180.138062,528.371643 1186.467285,512.987122 1192.547729,497.518768 
	C1193.192261,495.879028 1194.500000,494.499969 1195.500000,492.999969 
"/>
<path fill="none" opacity="1.000000" stroke="#000000" stroke-linecap="round" stroke-linejoin="round" stroke-width="4.000000"
	d="
M241.500000,494.000000 
	C246.772705,502.257019 249.832962,511.554138 253.378693,520.547852 
	C264.417633,548.547791 273.377777,577.263428 280.421936,606.518799 
	C287.014679,633.899414 292.153992,661.565735 296.151947,689.478210 
	C299.367981,711.931641 301.927734,734.447998 303.829712,757.014343 
	C305.356354,775.127380 306.389435,793.305237 307.210907,811.490479 
	C307.880981,826.323853 307.960602,841.181335 308.949188,856.003418 
	C309.301941,861.292175 308.434479,865.933533 304.761536,870.701477 
	C299.869202,877.052307 296.921448,884.882141 292.983551,891.990906 
	C281.002563,913.618774 268.084839,934.677063 253.972488,954.980896 
	C245.790375,966.752686 237.290955,978.303467 229.032501,990.022888 
	C227.174088,992.659973 224.884979,992.403137 222.510803,991.472412 
	C207.630508,985.638855 192.914154,979.447998 178.473022,972.556519 
	C143.426361,955.831909 110.171440,936.215515 78.930466,913.093933 
	C66.314186,903.756592 54.037365,894.042847 42.046947,883.944275 
	C41.441063,883.433899 41.319328,882.708679 40.500000,883.500000 
"/>
<path fill="none" opacity="1.000000" stroke="#000000" stroke-linecap="round" stroke-linejoin="round" stroke-width="4.000000"
	d="
M1127.500000,1672.500000 
	C1115.602783,1672.032104 1103.817749,1673.779419 1092.013062,1674.672119 
	C1078.846313,1675.667725 1065.685669,1676.724731 1052.508911,1677.630005 
	C1046.818359,1678.020996 1041.208862,1678.979614 1035.495972,1678.024414 
	C1033.615845,1677.710205 1033.386230,1679.042358 1033.500000,1680.500000 
"/>
<path fill="none" opacity="1.000000" stroke="#000000" stroke-linecap="round" stroke-linejoin="round" stroke-width="3.000000"
	d="
M169.499985,935.000061 
	C175.166656,937.500061 181.071167,939.574036 186.455322,942.580078 
	C202.539749,951.559998 219.530731,958.488586 236.487000,965.531311 
	C238.748154,966.470459 240.833344,967.833313 243.000015,968.999939 
"/>
<path fill="none" opacity="1.000000" stroke="#000000" stroke-linecap="round" stroke-linejoin="round" stroke-width="4.000000"
	d="
M335.500031,1674.500000 
	C334.833344,1674.166626 334.138580,1673.498047 333.504303,1673.551147 
	C325.618774,1674.212280 317.882080,1671.688110 310.000000,1672.500000 
"/>
<path fill="none" opacity="1.000000" stroke="#000000" stroke-linecap="round" stroke-linejoin="round" stroke-width="3.000000"
	d="
M1238.500000,950.500000 
	C1236.718018,949.513428 1235.140625,950.221130 1233.492310,950.983398 
	C1225.843018,954.520935 1218.166748,958.000061 1210.500000,961.500061 
"/>
<path fill="none" opacity="1.000000" stroke="#000000" stroke-linecap="round" stroke-linejoin="round" stroke-width="3.000000"
	d="
M1258.500000,939.000000 
	C1253.333374,941.666626 1248.032837,944.111328 1243.064209,947.106506 
	C1241.000488,948.350647 1239.388062,947.935425 1237.500000,947.500000 
"/>
<path fill="none" opacity="1.000000" stroke="#000000" stroke-linecap="round" stroke-linejoin="round" stroke-width="3.000000"
	d="
M1209.500000,962.000000 
	C1204.000000,964.166687 1198.500000,966.333374 1193.000000,968.500000 
"/>
<path fill="none" opacity="1.000000" stroke="#000000" stroke-linecap="round" stroke-linejoin="round" stroke-width="3.000000"
	d="
M1267.500000,935.000000 
	C1264.329834,935.015869 1262.322510,937.689514 1259.500000,938.500000 
"/>
</svg>