<svg version="1.1" id="Layer_1" xmlns="http://www.w3.org/2000/svg" xmlns:xlink="http://www.w3.org/1999/xlink" x="0px" y="0px"
	 width="100%" viewBox="0 0 1506 2000" enable-background="new 0 0 1506 2000" xml:space="preserve">
<path fill="none" opacity="1.000000" stroke="#000000" stroke-linecap="round" stroke-linejoin="round" stroke-width="5.000000"
	d="
M1268.000000,493.500000 
	C1262.134155,503.062073 1258.558228,513.656982 1254.559204,524.022827 
	C1238.372437,565.980164 1226.957642,609.237244 1218.865234,653.475342 
	C1213.796753,681.183472 1209.996826,709.042664 1207.143188,737.014587 
	C1204.567383,762.263550 1202.582886,787.589661 1201.947266,812.998657 
	C1201.567749,828.172546 1199.955444,843.344666 1200.197510,858.496826 
	C1200.445801,874.025146 1199.597412,889.503174 1199.352905,904.997681 
	C1198.616821,951.667236 1198.895264,998.336365 1199.169800,1044.999023 
	C1199.316895,1069.998413 1199.323364,1095.000122 1199.481323,1120.000122 
	C1200.409912,1266.999023 1199.658203,1414.000732 1200.147583,1560.999512 
	C1200.264282,1595.998291 1200.227783,1631.000488 1200.486938,1666.000122 
	C1200.569702,1677.166138 1200.376221,1688.335571 1200.572510,1699.498779 
	C1200.634521,1703.032471 1199.481445,1703.882324 1196.008301,1704.120972 
	C1185.656494,1704.832153 1175.306396,1705.610474 1164.985718,1706.884155 
	C1155.218872,1708.089600 1145.334839,1708.355347 1135.499634,1708.995117 
	C1119.834229,1710.013916 1104.177612,1711.297363 1088.495483,1711.876221 
	C1080.490479,1712.171631 1072.500488,1712.791382 1064.499146,1712.958862 
	C1038.828613,1713.496460 1013.193054,1715.103638 987.500122,1715.132324 
	C977.849548,1715.143066 968.180969,1715.981567 958.500122,1716.023926 
	C938.499756,1716.111328 918.498047,1716.208740 898.500366,1716.522461 
	C829.168457,1717.610229 759.832458,1716.972778 690.500244,1716.852661 
	C663.839783,1716.806396 637.168701,1716.204712 610.500916,1715.913818 
	C587.163147,1715.659302 563.811157,1715.093140 540.506104,1713.882324 
	C516.336853,1712.626587 492.130188,1712.106689 467.993774,1710.073853 
	C451.526367,1708.686890 434.992493,1708.108032 418.502533,1706.963379 
	C406.822754,1706.152588 395.168823,1704.972656 383.496124,1704.049072 
	C382.498016,1703.969971 382.414886,1702.399780 380.859558,1703.347778 
	C381.233215,1424.333130 382.737152,1145.664917 381.796387,866.998840 
	C381.014954,866.792419 380.233521,866.586060 379.452087,866.379639 
	C367.816956,887.626282 356.423401,909.026062 343.436981,929.459961 
	C329.638763,951.171204 315.043335,972.354675 298.787994,992.864868 
	C230.571213,967.424561 169.052643,930.674377 113.536263,883.314270 
	C124.998878,859.752258 136.297638,836.649414 147.487091,813.493774 
	C159.876846,787.854370 172.082397,762.125732 184.525360,736.512329 
	C195.403595,714.119873 206.581070,691.872803 217.483093,669.491760 
	C240.039185,623.185791 262.326721,576.747925 285.101196,530.549866 
	C292.325256,515.895813 301.104797,502.117249 313.988037,491.485504 
	C324.600647,482.727570 336.762543,476.780426 349.516418,472.044220 
	C382.634216,459.745880 415.846008,447.701111 448.996246,435.489868 
	C479.180573,424.371124 509.308563,413.099091 539.508240,402.022522 
	C561.632874,393.907715 583.856812,386.064331 605.990784,377.974731 
	C618.375366,373.448334 630.655212,368.636047 643.007996,364.021301 
	C646.121399,362.858215 649.197815,362.744507 652.522217,363.938171 
	C672.636719,371.160248 693.469543,375.663361 714.526306,378.824738 
	C725.245483,380.434082 736.130554,381.303345 746.981873,382.215668 
	C766.320129,383.841614 785.648132,384.221802 804.998596,383.911926 
	C817.006165,383.719635 829.043274,383.101379 840.991211,381.911591 
	C867.742615,379.247803 894.245117,375.061157 920.029663,367.095917 
	C920.951172,366.811249 921.736511,366.340454 922.464050,365.935455 
	C932.428955,360.387695 941.380981,365.150085 950.503479,368.490540 
	C961.989136,372.696411 973.523071,376.770996 984.995422,381.012360 
	C1012.842834,391.307648 1040.661987,401.679077 1068.501709,411.995422 
	C1085.659180,418.353363 1102.817993,424.708832 1120.003418,430.990509 
	C1148.824219,441.525146 1177.695923,451.920563 1206.487427,462.534180 
	C1220.454590,467.683044 1234.612183,472.357910 1248.018433,478.962646 
	C1254.898315,482.352112 1261.072998,486.584930 1267.090454,491.386597 
	C1286.280640,506.699371 1295.591919,528.472473 1305.941772,549.528564 
	C1325.144897,588.595459 1344.002197,627.832275 1362.999390,667.000305 
	C1376.336426,694.498535 1389.622070,722.021729 1403.014648,749.492859 
	C1413.107544,770.195496 1423.689087,790.668213 1433.383301,811.554199 
	C1440.666748,827.246582 1448.787231,842.526123 1455.716431,858.405579 
	C1459.333374,866.694214 1464.072876,874.552734 1467.839355,883.193420 
	C1459.902100,890.875427 1451.075806,897.277527 1442.529297,904.036987 
	C1420.524414,921.440491 1397.174316,936.918945 1372.891113,950.809753 
	C1352.330566,962.571106 1331.296021,973.595459 1309.063477,982.164795 
	C1301.841064,984.948669 1294.729370,988.145325 1287.529297,991.071960 
	C1284.207397,992.422241 1282.271484,992.175354 1279.905640,989.071960 
	C1268.820068,974.530701 1258.039795,959.772522 1248.041138,944.473083 
	C1232.745361,921.068665 1218.040283,897.304382 1205.953125,872.022400 
	C1204.994873,870.017822 1203.741211,867.999573 1201.500000,867.000000 
"/>
<path fill="none" opacity="1.000000" stroke="#000000" stroke-linecap="round" stroke-linejoin="round" stroke-width="4.000000"
	d="
M313.500000,493.000000 
	C318.815399,501.415375 321.802399,510.875122 325.461273,520.015503 
	C338.773590,553.271606 348.834259,587.520142 356.525757,622.494324 
	C362.200317,648.297180 366.588867,674.294128 370.148834,700.479797 
	C372.976013,721.275513 375.197266,742.125977 376.836243,763.012878 
	C378.349670,782.299072 379.451019,801.636414 380.193848,820.992554 
	C380.641449,832.656799 380.456635,844.355713 381.488525,856.001038 
	C381.807556,859.601013 381.227600,863.103943 380.000000,866.500000 
"/>
<path fill="none" opacity="1.000000" stroke="#000000" stroke-linecap="round" stroke-linejoin="round" stroke-width="4.000000"
	d="
M956.500000,372.000000 
	C954.952454,376.488617 951.773682,380.518463 950.404175,384.634491 
	C946.820618,395.404785 940.136902,403.884094 933.453186,412.463531 
	C913.225586,438.428558 887.487976,455.912048 855.011108,463.050476 
	C838.181702,466.749603 821.205444,468.830414 803.999817,468.975494 
	C785.474976,469.131744 766.962891,469.200043 748.494446,467.047577 
	C711.826111,462.774078 679.996460,448.843994 655.016602,420.985077 
	C647.515808,412.619751 640.429504,403.754333 635.250366,393.868805 
	C631.501831,386.713928 627.890503,379.385590 624.500000,372.000000 
"/>
<path fill="none" opacity="1.000000" stroke="#000000" stroke-linecap="round" stroke-linejoin="round" stroke-width="5.000000"
	d="
M949.500000,384.500000 
	C944.612732,384.032990 940.772156,387.093079 936.544739,388.623505 
	C918.875793,395.020172 900.916626,400.198242 882.529175,404.136200 
	C872.545959,406.274170 862.520630,408.348450 852.463989,409.739624 
	C844.898010,410.786285 837.160706,411.434174 829.521118,412.208344 
	C812.354553,413.947968 795.177917,414.416992 778.004883,413.851929 
	C766.159790,413.462128 754.309937,412.484070 742.480103,411.180389 
	C729.037903,409.699005 715.732483,407.587860 702.511414,404.943054 
	C680.464661,400.532776 658.976990,394.085266 638.046082,385.882355 
	C636.104919,385.121582 634.377075,385.092743 632.500000,385.000000 
"/>
<path fill="none" opacity="1.000000" stroke="#000000" stroke-linecap="round" stroke-linejoin="round" stroke-width="4.000000"
	d="
M1199.000000,1672.000000 
	C1188.632690,1672.140137 1178.348145,1673.613159 1168.020874,1674.309814 
	C1157.531982,1675.017578 1147.011353,1676.143921 1136.496826,1676.959351 
	C1127.512085,1677.656128 1118.500122,1678.003052 1109.499878,1678.497192 
	C1107.988892,1678.580078 1106.072510,1677.918701 1106.000000,1680.500000 
"/>
<path fill="none" opacity="1.000000" stroke="#000000" stroke-linecap="round" stroke-linejoin="round" stroke-width="3.000000"
	d="
M240.500000,935.000000 
	C244.555374,933.754456 246.918365,937.231812 249.950012,938.609985 
	C257.270752,941.937622 264.224182,946.069641 271.526306,949.443054 
	C281.755402,954.168701 292.151825,958.534607 302.507355,962.982910 
	C306.629333,964.753540 310.833344,966.333313 315.000000,968.000000 
"/>
<path fill="none" opacity="1.000000" stroke="#000000" stroke-linecap="round" stroke-linejoin="round" stroke-width="3.000000"
	d="
M1340.500000,934.000000 
	C1331.614502,939.046570 1322.533447,943.961914 1313.334961,948.136230 
	C1300.583862,953.922791 1287.969482,960.291199 1274.522095,964.569336 
	C1271.574707,965.506958 1269.381226,968.330872 1266.000000,968.500000 
"/>
<path fill="none" opacity="1.000000" stroke="#000000" stroke-linecap="round" stroke-linejoin="round" stroke-width="4.000000"
	d="
M408.500000,1673.500000 
	C399.587097,1673.887451 390.779663,1672.877930 382.000000,1671.500000 
"/>
<path fill="none" opacity="1.000000" stroke="#000000" stroke-linecap="round" stroke-linejoin="round" stroke-width="2.000000"
	d="
M405.500000,1674.000000 
	C405.889221,1675.721558 407.260437,1675.479126 408.500000,1675.500000 
"/>
</svg>